G04 Layer_Physical_Order=2*
G04 Layer_Color=16711680*
%FSLAX44Y44*%
%MOMM*%
G71*
G01*
G75*
%ADD10P,1.6236X8X22.5*%
%ADD11P,2.1648X8X22.5*%
G04:AMPARAMS|DCode=12|XSize=1.3mm|YSize=2mm|CornerRadius=0mm|HoleSize=0mm|Usage=FLASHONLY|Rotation=0.000|XOffset=0mm|YOffset=0mm|HoleType=Round|Shape=Octagon|*
%AMOCTAGOND12*
4,1,8,-0.3250,1.0000,0.3250,1.0000,0.6500,0.6750,0.6500,-0.6750,0.3250,-1.0000,-0.3250,-1.0000,-0.6500,-0.6750,-0.6500,0.6750,-0.3250,1.0000,0.0*
%
%ADD12OCTAGOND12*%

%ADD13P,2.1648X8X112.5*%
%ADD14C,1.0000*%
%ADD15R,2.0000X0.5000*%
%ADD16R,2.2000X0.6000*%
%ADD17R,1.2000X0.3000*%
%ADD18R,1.5000X0.4000*%
G36*
X298000Y177500D02*
X290000D01*
Y185500D01*
X298000D01*
Y177500D01*
D02*
G37*
G36*
X310500D02*
X302500D01*
Y185500D01*
X310500D01*
Y177500D01*
D02*
G37*
G36*
X285500D02*
X277500D01*
Y185500D01*
X285500D01*
Y177500D01*
D02*
G37*
G36*
X260500D02*
X252500D01*
Y185500D01*
X260500D01*
Y177500D01*
D02*
G37*
G36*
X273000D02*
X265000D01*
Y185500D01*
X273000D01*
Y177500D01*
D02*
G37*
G36*
X323000D02*
X315000D01*
Y185500D01*
X323000D01*
Y177500D01*
D02*
G37*
G36*
X110500Y177500D02*
X102500D01*
Y185500D01*
X110500D01*
Y177500D01*
D02*
G37*
G36*
X123000D02*
X115000D01*
Y185500D01*
X123000D01*
Y177500D01*
D02*
G37*
G36*
X98000D02*
X90000D01*
Y185500D01*
X98000D01*
Y177500D01*
D02*
G37*
G36*
X73000D02*
X65000D01*
Y185500D01*
X73000D01*
Y177500D01*
D02*
G37*
G36*
X85500D02*
X77500D01*
Y185500D01*
X85500D01*
Y177500D01*
D02*
G37*
G36*
X248000Y177500D02*
X240000D01*
Y185500D01*
X248000D01*
Y177500D01*
D02*
G37*
G36*
X148000Y165000D02*
X140000D01*
Y173000D01*
X148000D01*
Y165000D01*
D02*
G37*
G36*
X350500D02*
X342500D01*
Y173000D01*
X350500D01*
Y165000D01*
D02*
G37*
G36*
X135500D02*
X127500D01*
Y173000D01*
X135500D01*
Y165000D01*
D02*
G37*
G36*
X110500D02*
X102500D01*
Y173000D01*
X110500D01*
Y165000D01*
D02*
G37*
G36*
X123000D02*
X115000D01*
Y173000D01*
X123000D01*
Y165000D01*
D02*
G37*
G36*
X363000D02*
X355000D01*
Y173000D01*
X363000D01*
Y165000D01*
D02*
G37*
G36*
X223000Y177500D02*
X215000D01*
Y185500D01*
X223000D01*
Y177500D01*
D02*
G37*
G36*
X235500D02*
X227500D01*
Y185500D01*
X235500D01*
Y177500D01*
D02*
G37*
G36*
X210500D02*
X202500D01*
Y185500D01*
X210500D01*
Y177500D01*
D02*
G37*
G36*
X410500Y173000D02*
X381000D01*
Y178000D01*
X410500D01*
Y173000D01*
D02*
G37*
G36*
X198000Y177500D02*
X190000D01*
Y185500D01*
X198000D01*
Y177500D01*
D02*
G37*
G36*
X135500Y177500D02*
X127500D01*
Y185500D01*
X135500D01*
Y177500D01*
D02*
G37*
G36*
X73000Y190000D02*
X65000D01*
Y198000D01*
X73000D01*
Y190000D01*
D02*
G37*
G36*
X85500D02*
X77500D01*
Y198000D01*
X85500D01*
Y190000D01*
D02*
G37*
G36*
X323000Y190000D02*
X315000D01*
Y198000D01*
X323000D01*
Y190000D01*
D02*
G37*
G36*
X298000D02*
X290000D01*
Y198000D01*
X298000D01*
Y190000D01*
D02*
G37*
G36*
X310500D02*
X302500D01*
Y198000D01*
X310500D01*
Y190000D01*
D02*
G37*
G36*
X98000Y190000D02*
X90000D01*
Y198000D01*
X98000D01*
Y190000D01*
D02*
G37*
G36*
X148000D02*
X140000D01*
Y198000D01*
X148000D01*
Y190000D01*
D02*
G37*
G36*
X350500D02*
X342500D01*
Y198000D01*
X350500D01*
Y190000D01*
D02*
G37*
G36*
X135500D02*
X127500D01*
Y198000D01*
X135500D01*
Y190000D01*
D02*
G37*
G36*
X110500D02*
X102500D01*
Y198000D01*
X110500D01*
Y190000D01*
D02*
G37*
G36*
X123000D02*
X115000D01*
Y198000D01*
X123000D01*
Y190000D01*
D02*
G37*
G36*
X285500Y190000D02*
X277500D01*
Y198000D01*
X285500D01*
Y190000D01*
D02*
G37*
G36*
X410500Y183000D02*
X381000D01*
Y188000D01*
X410500D01*
Y183000D01*
D02*
G37*
G36*
X198000Y190000D02*
X190000D01*
Y198000D01*
X198000D01*
Y190000D01*
D02*
G37*
G36*
X363000Y177500D02*
X355000D01*
Y185500D01*
X363000D01*
Y177500D01*
D02*
G37*
G36*
X148000D02*
X140000D01*
Y185500D01*
X148000D01*
Y177500D01*
D02*
G37*
G36*
X350500D02*
X342500D01*
Y185500D01*
X350500D01*
Y177500D01*
D02*
G37*
G36*
X210500Y190000D02*
X202500D01*
Y198000D01*
X210500D01*
Y190000D01*
D02*
G37*
G36*
X260500D02*
X252500D01*
Y198000D01*
X260500D01*
Y190000D01*
D02*
G37*
G36*
X273000D02*
X265000D01*
Y198000D01*
X273000D01*
Y190000D01*
D02*
G37*
G36*
X248000D02*
X240000D01*
Y198000D01*
X248000D01*
Y190000D01*
D02*
G37*
G36*
X223000D02*
X215000D01*
Y198000D01*
X223000D01*
Y190000D01*
D02*
G37*
G36*
X235500D02*
X227500D01*
Y198000D01*
X235500D01*
Y190000D01*
D02*
G37*
G36*
X248000Y152500D02*
X240000D01*
Y160500D01*
X248000D01*
Y152500D01*
D02*
G37*
G36*
X260500D02*
X252500D01*
Y160500D01*
X260500D01*
Y152500D01*
D02*
G37*
G36*
X235500D02*
X227500D01*
Y160500D01*
X235500D01*
Y152500D01*
D02*
G37*
G36*
X210500D02*
X202500D01*
Y160500D01*
X210500D01*
Y152500D01*
D02*
G37*
G36*
X223000D02*
X215000D01*
Y160500D01*
X223000D01*
Y152500D01*
D02*
G37*
G36*
X273000D02*
X265000D01*
Y160500D01*
X273000D01*
Y152500D01*
D02*
G37*
G36*
X323000D02*
X315000D01*
Y160500D01*
X323000D01*
Y152500D01*
D02*
G37*
G36*
X73000Y152500D02*
X65000D01*
Y160500D01*
X73000D01*
Y152500D01*
D02*
G37*
G36*
X310500Y152500D02*
X302500D01*
Y160500D01*
X310500D01*
Y152500D01*
D02*
G37*
G36*
X285500D02*
X277500D01*
Y160500D01*
X285500D01*
Y152500D01*
D02*
G37*
G36*
X298000D02*
X290000D01*
Y160500D01*
X298000D01*
Y152500D01*
D02*
G37*
G36*
X198000D02*
X190000D01*
Y160500D01*
X198000D01*
Y152500D01*
D02*
G37*
G36*
X98000Y140000D02*
X90000D01*
Y148000D01*
X98000D01*
Y140000D01*
D02*
G37*
G36*
X110500D02*
X102500D01*
Y148000D01*
X110500D01*
Y140000D01*
D02*
G37*
G36*
X85500D02*
X77500D01*
Y148000D01*
X85500D01*
Y140000D01*
D02*
G37*
G36*
X323000Y140000D02*
X315000D01*
Y148000D01*
X323000D01*
Y140000D01*
D02*
G37*
G36*
X73000Y140000D02*
X65000D01*
Y148000D01*
X73000D01*
Y140000D01*
D02*
G37*
G36*
X123000D02*
X115000D01*
Y148000D01*
X123000D01*
Y140000D01*
D02*
G37*
G36*
X363000D02*
X355000D01*
Y148000D01*
X363000D01*
Y140000D01*
D02*
G37*
G36*
X410500Y143000D02*
X381000D01*
Y148000D01*
X410500D01*
Y143000D01*
D02*
G37*
G36*
X350500Y140000D02*
X342500D01*
Y148000D01*
X350500D01*
Y140000D01*
D02*
G37*
G36*
X135500D02*
X127500D01*
Y148000D01*
X135500D01*
Y140000D01*
D02*
G37*
G36*
X148000D02*
X140000D01*
Y148000D01*
X148000D01*
Y140000D01*
D02*
G37*
G36*
X85500Y152500D02*
X77500D01*
Y160500D01*
X85500D01*
Y152500D01*
D02*
G37*
G36*
X273000Y165000D02*
X265000D01*
Y173000D01*
X273000D01*
Y165000D01*
D02*
G37*
G36*
X285500D02*
X277500D01*
Y173000D01*
X285500D01*
Y165000D01*
D02*
G37*
G36*
X260500D02*
X252500D01*
Y173000D01*
X260500D01*
Y165000D01*
D02*
G37*
G36*
X235500D02*
X227500D01*
Y173000D01*
X235500D01*
Y165000D01*
D02*
G37*
G36*
X248000D02*
X240000D01*
Y173000D01*
X248000D01*
Y165000D01*
D02*
G37*
G36*
X298000D02*
X290000D01*
Y173000D01*
X298000D01*
Y165000D01*
D02*
G37*
G36*
X85500Y165000D02*
X77500D01*
Y173000D01*
X85500D01*
Y165000D01*
D02*
G37*
G36*
X98000D02*
X90000D01*
Y173000D01*
X98000D01*
Y165000D01*
D02*
G37*
G36*
X73000D02*
X65000D01*
Y173000D01*
X73000D01*
Y165000D01*
D02*
G37*
G36*
X310500Y165000D02*
X302500D01*
Y173000D01*
X310500D01*
Y165000D01*
D02*
G37*
G36*
X323000D02*
X315000D01*
Y173000D01*
X323000D01*
Y165000D01*
D02*
G37*
G36*
X223000D02*
X215000D01*
Y173000D01*
X223000D01*
Y165000D01*
D02*
G37*
G36*
X135500Y152500D02*
X127500D01*
Y160500D01*
X135500D01*
Y152500D01*
D02*
G37*
G36*
X148000D02*
X140000D01*
Y160500D01*
X148000D01*
Y152500D01*
D02*
G37*
G36*
X123000D02*
X115000D01*
Y160500D01*
X123000D01*
Y152500D01*
D02*
G37*
G36*
X98000D02*
X90000D01*
Y160500D01*
X98000D01*
Y152500D01*
D02*
G37*
G36*
X110500D02*
X102500D01*
Y160500D01*
X110500D01*
Y152500D01*
D02*
G37*
G36*
X350500D02*
X342500D01*
Y160500D01*
X350500D01*
Y152500D01*
D02*
G37*
G36*
X198000Y165000D02*
X190000D01*
Y173000D01*
X198000D01*
Y165000D01*
D02*
G37*
G36*
X210500D02*
X202500D01*
Y173000D01*
X210500D01*
Y165000D01*
D02*
G37*
G36*
X410500Y163000D02*
X381000D01*
Y168000D01*
X410500D01*
Y163000D01*
D02*
G37*
G36*
X363000Y152500D02*
X355000D01*
Y160500D01*
X363000D01*
Y152500D01*
D02*
G37*
G36*
X410500Y153000D02*
X381000D01*
Y158000D01*
X410500D01*
Y153000D01*
D02*
G37*
G36*
X363000Y190000D02*
X355000D01*
Y198000D01*
X363000D01*
Y190000D01*
D02*
G37*
G36*
X350500Y227500D02*
X342500D01*
Y235500D01*
X350500D01*
Y227500D01*
D02*
G37*
G36*
X363000D02*
X355000D01*
Y235500D01*
X363000D01*
Y227500D01*
D02*
G37*
G36*
X148000D02*
X140000D01*
Y235500D01*
X148000D01*
Y227500D01*
D02*
G37*
G36*
X123000D02*
X115000D01*
Y235500D01*
X123000D01*
Y227500D01*
D02*
G37*
G36*
X135500D02*
X127500D01*
Y235500D01*
X135500D01*
Y227500D01*
D02*
G37*
G36*
X410500Y233000D02*
X381000D01*
Y238000D01*
X410500D01*
Y233000D01*
D02*
G37*
G36*
X235500Y240000D02*
X227500D01*
Y248000D01*
X235500D01*
Y240000D01*
D02*
G37*
G36*
X248000D02*
X240000D01*
Y248000D01*
X248000D01*
Y240000D01*
D02*
G37*
G36*
X223000D02*
X215000D01*
Y248000D01*
X223000D01*
Y240000D01*
D02*
G37*
G36*
X198000D02*
X190000D01*
Y248000D01*
X198000D01*
Y240000D01*
D02*
G37*
G36*
X210500D02*
X202500D01*
Y248000D01*
X210500D01*
Y240000D01*
D02*
G37*
G36*
X110500Y227500D02*
X102500D01*
Y235500D01*
X110500D01*
Y227500D01*
D02*
G37*
G36*
X273000Y227500D02*
X265000D01*
Y235500D01*
X273000D01*
Y227500D01*
D02*
G37*
G36*
X285500D02*
X277500D01*
Y235500D01*
X285500D01*
Y227500D01*
D02*
G37*
G36*
X260500D02*
X252500D01*
Y235500D01*
X260500D01*
Y227500D01*
D02*
G37*
G36*
X235500D02*
X227500D01*
Y235500D01*
X235500D01*
Y227500D01*
D02*
G37*
G36*
X248000D02*
X240000D01*
Y235500D01*
X248000D01*
Y227500D01*
D02*
G37*
G36*
X298000D02*
X290000D01*
Y235500D01*
X298000D01*
Y227500D01*
D02*
G37*
G36*
X85500Y227500D02*
X77500D01*
Y235500D01*
X85500D01*
Y227500D01*
D02*
G37*
G36*
X98000D02*
X90000D01*
Y235500D01*
X98000D01*
Y227500D01*
D02*
G37*
G36*
X73000D02*
X65000D01*
Y235500D01*
X73000D01*
Y227500D01*
D02*
G37*
G36*
X310500Y227500D02*
X302500D01*
Y235500D01*
X310500D01*
Y227500D01*
D02*
G37*
G36*
X323000D02*
X315000D01*
Y235500D01*
X323000D01*
Y227500D01*
D02*
G37*
G36*
X260500Y240000D02*
X252500D01*
Y248000D01*
X260500D01*
Y240000D01*
D02*
G37*
G36*
X379000Y253750D02*
X423750D01*
Y250750D01*
X375000D01*
Y253750D01*
Y257500D01*
X379000D01*
Y253750D01*
D02*
G37*
G36*
X198000Y252500D02*
X190000D01*
Y260500D01*
X198000D01*
Y252500D01*
D02*
G37*
G36*
X410500Y243000D02*
X381000D01*
Y248000D01*
X410500D01*
Y243000D01*
D02*
G37*
G36*
X350500Y240000D02*
X342500D01*
Y248000D01*
X350500D01*
Y240000D01*
D02*
G37*
G36*
X363000D02*
X355000D01*
Y248000D01*
X363000D01*
Y240000D01*
D02*
G37*
G36*
X210500Y252500D02*
X202500D01*
Y260500D01*
X210500D01*
Y252500D01*
D02*
G37*
G36*
X260500D02*
X252500D01*
Y260500D01*
X260500D01*
Y252500D01*
D02*
G37*
G36*
X273000D02*
X265000D01*
Y260500D01*
X273000D01*
Y252500D01*
D02*
G37*
G36*
X248000D02*
X240000D01*
Y260500D01*
X248000D01*
Y252500D01*
D02*
G37*
G36*
X223000D02*
X215000D01*
Y260500D01*
X223000D01*
Y252500D01*
D02*
G37*
G36*
X235500D02*
X227500D01*
Y260500D01*
X235500D01*
Y252500D01*
D02*
G37*
G36*
X148000Y240000D02*
X140000D01*
Y248000D01*
X148000D01*
Y240000D01*
D02*
G37*
G36*
X310500Y240000D02*
X302500D01*
Y248000D01*
X310500D01*
Y240000D01*
D02*
G37*
G36*
X323000D02*
X315000D01*
Y248000D01*
X323000D01*
Y240000D01*
D02*
G37*
G36*
X298000D02*
X290000D01*
Y248000D01*
X298000D01*
Y240000D01*
D02*
G37*
G36*
X273000D02*
X265000D01*
Y248000D01*
X273000D01*
Y240000D01*
D02*
G37*
G36*
X285500D02*
X277500D01*
Y248000D01*
X285500D01*
Y240000D01*
D02*
G37*
G36*
X73000Y240000D02*
X65000D01*
Y248000D01*
X73000D01*
Y240000D01*
D02*
G37*
G36*
X123000D02*
X115000D01*
Y248000D01*
X123000D01*
Y240000D01*
D02*
G37*
G36*
X135500D02*
X127500D01*
Y248000D01*
X135500D01*
Y240000D01*
D02*
G37*
G36*
X110500D02*
X102500D01*
Y248000D01*
X110500D01*
Y240000D01*
D02*
G37*
G36*
X85500D02*
X77500D01*
Y248000D01*
X85500D01*
Y240000D01*
D02*
G37*
G36*
X98000D02*
X90000D01*
Y248000D01*
X98000D01*
Y240000D01*
D02*
G37*
G36*
X110500Y202500D02*
X102500D01*
Y210500D01*
X110500D01*
Y202500D01*
D02*
G37*
G36*
X123000D02*
X115000D01*
Y210500D01*
X123000D01*
Y202500D01*
D02*
G37*
G36*
X98000D02*
X90000D01*
Y210500D01*
X98000D01*
Y202500D01*
D02*
G37*
G36*
X73000D02*
X65000D01*
Y210500D01*
X73000D01*
Y202500D01*
D02*
G37*
G36*
X85500D02*
X77500D01*
Y210500D01*
X85500D01*
Y202500D01*
D02*
G37*
G36*
X135500D02*
X127500D01*
Y210500D01*
X135500D01*
Y202500D01*
D02*
G37*
G36*
X410500Y203000D02*
X381000D01*
Y208000D01*
X410500D01*
Y203000D01*
D02*
G37*
G36*
Y213000D02*
X381000D01*
Y218000D01*
X410500D01*
Y213000D01*
D02*
G37*
G36*
X363000Y202500D02*
X355000D01*
Y210500D01*
X363000D01*
Y202500D01*
D02*
G37*
G36*
X148000D02*
X140000D01*
Y210500D01*
X148000D01*
Y202500D01*
D02*
G37*
G36*
X350500D02*
X342500D01*
Y210500D01*
X350500D01*
Y202500D01*
D02*
G37*
G36*
X323000Y202500D02*
X315000D01*
Y210500D01*
X323000D01*
Y202500D01*
D02*
G37*
G36*
X223000D02*
X215000D01*
Y210500D01*
X223000D01*
Y202500D01*
D02*
G37*
G36*
X235500D02*
X227500D01*
Y210500D01*
X235500D01*
Y202500D01*
D02*
G37*
G36*
X210500D02*
X202500D01*
Y210500D01*
X210500D01*
Y202500D01*
D02*
G37*
G36*
X410500Y193000D02*
X381000D01*
Y198000D01*
X410500D01*
Y193000D01*
D02*
G37*
G36*
X198000Y202500D02*
X190000D01*
Y210500D01*
X198000D01*
Y202500D01*
D02*
G37*
G36*
X248000D02*
X240000D01*
Y210500D01*
X248000D01*
Y202500D01*
D02*
G37*
G36*
X298000D02*
X290000D01*
Y210500D01*
X298000D01*
Y202500D01*
D02*
G37*
G36*
X310500D02*
X302500D01*
Y210500D01*
X310500D01*
Y202500D01*
D02*
G37*
G36*
X285500D02*
X277500D01*
Y210500D01*
X285500D01*
Y202500D01*
D02*
G37*
G36*
X260500D02*
X252500D01*
Y210500D01*
X260500D01*
Y202500D01*
D02*
G37*
G36*
X273000D02*
X265000D01*
Y210500D01*
X273000D01*
Y202500D01*
D02*
G37*
G36*
X198000Y215000D02*
X190000D01*
Y223000D01*
X198000D01*
Y215000D01*
D02*
G37*
G36*
X135500Y215000D02*
X127500D01*
Y223000D01*
X135500D01*
Y215000D01*
D02*
G37*
G36*
X148000D02*
X140000D01*
Y223000D01*
X148000D01*
Y215000D01*
D02*
G37*
G36*
X123000D02*
X115000D01*
Y223000D01*
X123000D01*
Y215000D01*
D02*
G37*
G36*
X98000D02*
X90000D01*
Y223000D01*
X98000D01*
Y215000D01*
D02*
G37*
G36*
X110500D02*
X102500D01*
Y223000D01*
X110500D01*
Y215000D01*
D02*
G37*
G36*
X350500D02*
X342500D01*
Y223000D01*
X350500D01*
Y215000D01*
D02*
G37*
G36*
X210500Y227500D02*
X202500D01*
Y235500D01*
X210500D01*
Y227500D01*
D02*
G37*
G36*
X223000D02*
X215000D01*
Y235500D01*
X223000D01*
Y227500D01*
D02*
G37*
G36*
X198000D02*
X190000D01*
Y235500D01*
X198000D01*
Y227500D01*
D02*
G37*
G36*
X363000Y215000D02*
X355000D01*
Y223000D01*
X363000D01*
Y215000D01*
D02*
G37*
G36*
X410500Y223000D02*
X381000D01*
Y228000D01*
X410500D01*
Y223000D01*
D02*
G37*
G36*
X85500Y215000D02*
X77500D01*
Y223000D01*
X85500D01*
Y215000D01*
D02*
G37*
G36*
X248000Y215000D02*
X240000D01*
Y223000D01*
X248000D01*
Y215000D01*
D02*
G37*
G36*
X260500D02*
X252500D01*
Y223000D01*
X260500D01*
Y215000D01*
D02*
G37*
G36*
X235500D02*
X227500D01*
Y223000D01*
X235500D01*
Y215000D01*
D02*
G37*
G36*
X210500D02*
X202500D01*
Y223000D01*
X210500D01*
Y215000D01*
D02*
G37*
G36*
X223000D02*
X215000D01*
Y223000D01*
X223000D01*
Y215000D01*
D02*
G37*
G36*
X273000D02*
X265000D01*
Y223000D01*
X273000D01*
Y215000D01*
D02*
G37*
G36*
X323000D02*
X315000D01*
Y223000D01*
X323000D01*
Y215000D01*
D02*
G37*
G36*
X73000Y215000D02*
X65000D01*
Y223000D01*
X73000D01*
Y215000D01*
D02*
G37*
G36*
X310500Y215000D02*
X302500D01*
Y223000D01*
X310500D01*
Y215000D01*
D02*
G37*
G36*
X285500D02*
X277500D01*
Y223000D01*
X285500D01*
Y215000D01*
D02*
G37*
G36*
X298000D02*
X290000D01*
Y223000D01*
X298000D01*
Y215000D01*
D02*
G37*
G36*
X310500Y140000D02*
X302500D01*
Y148000D01*
X310500D01*
Y140000D01*
D02*
G37*
G36*
Y65000D02*
X302500D01*
Y73000D01*
X310500D01*
Y65000D01*
D02*
G37*
G36*
X323000D02*
X315000D01*
Y73000D01*
X323000D01*
Y65000D01*
D02*
G37*
G36*
X298000D02*
X290000D01*
Y73000D01*
X298000D01*
Y65000D01*
D02*
G37*
G36*
X273000D02*
X265000D01*
Y73000D01*
X273000D01*
Y65000D01*
D02*
G37*
G36*
X285500D02*
X277500D01*
Y73000D01*
X285500D01*
Y65000D01*
D02*
G37*
G36*
X73000Y65000D02*
X65000D01*
Y73000D01*
X73000D01*
Y65000D01*
D02*
G37*
G36*
X123000D02*
X115000D01*
Y73000D01*
X123000D01*
Y65000D01*
D02*
G37*
G36*
X135500D02*
X127500D01*
Y73000D01*
X135500D01*
Y65000D01*
D02*
G37*
G36*
X110500D02*
X102500D01*
Y73000D01*
X110500D01*
Y65000D01*
D02*
G37*
G36*
X85500D02*
X77500D01*
Y73000D01*
X85500D01*
Y65000D01*
D02*
G37*
G36*
X98000D02*
X90000D01*
Y73000D01*
X98000D01*
Y65000D01*
D02*
G37*
G36*
X260500Y65000D02*
X252500D01*
Y73000D01*
X260500D01*
Y65000D01*
D02*
G37*
G36*
X148000Y52500D02*
X140000D01*
Y60500D01*
X148000D01*
Y52500D01*
D02*
G37*
G36*
X350500D02*
X342500D01*
Y60500D01*
X350500D01*
Y52500D01*
D02*
G37*
G36*
X135500D02*
X127500D01*
Y60500D01*
X135500D01*
Y52500D01*
D02*
G37*
G36*
X110500D02*
X102500D01*
Y60500D01*
X110500D01*
Y52500D01*
D02*
G37*
G36*
X123000D02*
X115000D01*
Y60500D01*
X123000D01*
Y52500D01*
D02*
G37*
G36*
X363000D02*
X355000D01*
Y60500D01*
X363000D01*
Y52500D01*
D02*
G37*
G36*
X235500Y65000D02*
X227500D01*
Y73000D01*
X235500D01*
Y65000D01*
D02*
G37*
G36*
X248000D02*
X240000D01*
Y73000D01*
X248000D01*
Y65000D01*
D02*
G37*
G36*
X223000D02*
X215000D01*
Y73000D01*
X223000D01*
Y65000D01*
D02*
G37*
G36*
X198000D02*
X190000D01*
Y73000D01*
X198000D01*
Y65000D01*
D02*
G37*
G36*
X210500D02*
X202500D01*
Y73000D01*
X210500D01*
Y65000D01*
D02*
G37*
G36*
X148000Y65000D02*
X140000D01*
Y73000D01*
X148000D01*
Y65000D01*
D02*
G37*
G36*
X85500Y77500D02*
X77500D01*
Y85500D01*
X85500D01*
Y77500D01*
D02*
G37*
G36*
X98000D02*
X90000D01*
Y85500D01*
X98000D01*
Y77500D01*
D02*
G37*
G36*
X73000D02*
X65000D01*
Y85500D01*
X73000D01*
Y77500D01*
D02*
G37*
G36*
X310500Y77500D02*
X302500D01*
Y85500D01*
X310500D01*
Y77500D01*
D02*
G37*
G36*
X323000D02*
X315000D01*
Y85500D01*
X323000D01*
Y77500D01*
D02*
G37*
G36*
X110500Y77500D02*
X102500D01*
Y85500D01*
X110500D01*
Y77500D01*
D02*
G37*
G36*
X350500D02*
X342500D01*
Y85500D01*
X350500D01*
Y77500D01*
D02*
G37*
G36*
X363000D02*
X355000D01*
Y85500D01*
X363000D01*
Y77500D01*
D02*
G37*
G36*
X148000D02*
X140000D01*
Y85500D01*
X148000D01*
Y77500D01*
D02*
G37*
G36*
X123000D02*
X115000D01*
Y85500D01*
X123000D01*
Y77500D01*
D02*
G37*
G36*
X135500D02*
X127500D01*
Y85500D01*
X135500D01*
Y77500D01*
D02*
G37*
G36*
X298000Y77500D02*
X290000D01*
Y85500D01*
X298000D01*
Y77500D01*
D02*
G37*
G36*
X198000D02*
X190000D01*
Y85500D01*
X198000D01*
Y77500D01*
D02*
G37*
G36*
X210500D02*
X202500D01*
Y85500D01*
X210500D01*
Y77500D01*
D02*
G37*
G36*
X410500Y73000D02*
X381000D01*
Y78000D01*
X410500D01*
Y73000D01*
D02*
G37*
G36*
X350500Y65000D02*
X342500D01*
Y73000D01*
X350500D01*
Y65000D01*
D02*
G37*
G36*
X363000D02*
X355000D01*
Y73000D01*
X363000D01*
Y65000D01*
D02*
G37*
G36*
X223000Y77500D02*
X215000D01*
Y85500D01*
X223000D01*
Y77500D01*
D02*
G37*
G36*
X273000D02*
X265000D01*
Y85500D01*
X273000D01*
Y77500D01*
D02*
G37*
G36*
X285500D02*
X277500D01*
Y85500D01*
X285500D01*
Y77500D01*
D02*
G37*
G36*
X260500D02*
X252500D01*
Y85500D01*
X260500D01*
Y77500D01*
D02*
G37*
G36*
X235500D02*
X227500D01*
Y85500D01*
X235500D01*
Y77500D01*
D02*
G37*
G36*
X248000D02*
X240000D01*
Y85500D01*
X248000D01*
Y77500D01*
D02*
G37*
G36*
X388000Y40000D02*
X380000D01*
Y48000D01*
X388000D01*
Y40000D01*
D02*
G37*
G36*
X400500D02*
X392500D01*
Y48000D01*
X400500D01*
Y40000D01*
D02*
G37*
G36*
X375500D02*
X367500D01*
Y48000D01*
X375500D01*
Y40000D01*
D02*
G37*
G36*
X310500D02*
X302500D01*
Y48000D01*
X310500D01*
Y40000D01*
D02*
G37*
G36*
X323000D02*
X315000D01*
Y48000D01*
X323000D01*
Y40000D01*
D02*
G37*
G36*
X413000D02*
X405000D01*
Y48000D01*
X413000D01*
Y40000D01*
D02*
G37*
G36*
X98000Y40000D02*
X90000D01*
Y48000D01*
X98000D01*
Y40000D01*
D02*
G37*
G36*
X110500D02*
X102500D01*
Y48000D01*
X110500D01*
Y40000D01*
D02*
G37*
G36*
X85500D02*
X77500D01*
Y48000D01*
X85500D01*
Y40000D01*
D02*
G37*
G36*
X425500Y40000D02*
X417500D01*
Y48000D01*
X425500D01*
Y40000D01*
D02*
G37*
G36*
X73000Y40000D02*
X65000D01*
Y48000D01*
X73000D01*
Y40000D01*
D02*
G37*
G36*
X298000Y40000D02*
X290000D01*
Y48000D01*
X298000D01*
Y40000D01*
D02*
G37*
G36*
X198000D02*
X190000D01*
Y48000D01*
X198000D01*
Y40000D01*
D02*
G37*
G36*
X210500D02*
X202500D01*
Y48000D01*
X210500D01*
Y40000D01*
D02*
G37*
G36*
X172500D02*
X152500D01*
Y247500D01*
X172500D01*
Y40000D01*
D02*
G37*
G36*
X462500Y40000D02*
X437500D01*
Y460500D01*
X462500D01*
Y40000D01*
D02*
G37*
G36*
X60000Y40000D02*
X40000D01*
Y247500D01*
X60000D01*
Y40000D01*
D02*
G37*
G36*
X223000D02*
X215000D01*
Y48000D01*
X223000D01*
Y40000D01*
D02*
G37*
G36*
X273000D02*
X265000D01*
Y48000D01*
X273000D01*
Y40000D01*
D02*
G37*
G36*
X285500D02*
X277500D01*
Y48000D01*
X285500D01*
Y40000D01*
D02*
G37*
G36*
X260500D02*
X252500D01*
Y48000D01*
X260500D01*
Y40000D01*
D02*
G37*
G36*
X235500D02*
X227500D01*
Y48000D01*
X235500D01*
Y40000D01*
D02*
G37*
G36*
X248000D02*
X240000D01*
Y48000D01*
X248000D01*
Y40000D01*
D02*
G37*
G36*
X123000Y40000D02*
X115000D01*
Y48000D01*
X123000D01*
Y40000D01*
D02*
G37*
G36*
X375500Y52500D02*
X367500D01*
Y60500D01*
X375500D01*
Y52500D01*
D02*
G37*
G36*
X388000D02*
X380000D01*
Y60500D01*
X388000D01*
Y52500D01*
D02*
G37*
G36*
X323000D02*
X315000D01*
Y60500D01*
X323000D01*
Y52500D01*
D02*
G37*
G36*
X298000D02*
X290000D01*
Y60500D01*
X298000D01*
Y52500D01*
D02*
G37*
G36*
X310500D02*
X302500D01*
Y60500D01*
X310500D01*
Y52500D01*
D02*
G37*
G36*
X400500D02*
X392500D01*
Y60500D01*
X400500D01*
Y52500D01*
D02*
G37*
G36*
X85500Y52500D02*
X77500D01*
Y60500D01*
X85500D01*
Y52500D01*
D02*
G37*
G36*
X98000D02*
X90000D01*
Y60500D01*
X98000D01*
Y52500D01*
D02*
G37*
G36*
X73000D02*
X65000D01*
Y60500D01*
X73000D01*
Y52500D01*
D02*
G37*
G36*
X413000Y52500D02*
X405000D01*
Y60500D01*
X413000D01*
Y52500D01*
D02*
G37*
G36*
X425500D02*
X417500D01*
Y60500D01*
X425500D01*
Y52500D01*
D02*
G37*
G36*
X285500D02*
X277500D01*
Y60500D01*
X285500D01*
Y52500D01*
D02*
G37*
G36*
X363000Y40000D02*
X355000D01*
Y48000D01*
X363000D01*
Y40000D01*
D02*
G37*
G36*
X198000Y52500D02*
X190000D01*
Y60500D01*
X198000D01*
Y52500D01*
D02*
G37*
G36*
X350500Y40000D02*
X342500D01*
Y48000D01*
X350500D01*
Y40000D01*
D02*
G37*
G36*
X135500D02*
X127500D01*
Y48000D01*
X135500D01*
Y40000D01*
D02*
G37*
G36*
X148000D02*
X140000D01*
Y48000D01*
X148000D01*
Y40000D01*
D02*
G37*
G36*
X210500Y52500D02*
X202500D01*
Y60500D01*
X210500D01*
Y52500D01*
D02*
G37*
G36*
X260500D02*
X252500D01*
Y60500D01*
X260500D01*
Y52500D01*
D02*
G37*
G36*
X273000D02*
X265000D01*
Y60500D01*
X273000D01*
Y52500D01*
D02*
G37*
G36*
X248000D02*
X240000D01*
Y60500D01*
X248000D01*
Y52500D01*
D02*
G37*
G36*
X223000D02*
X215000D01*
Y60500D01*
X223000D01*
Y52500D01*
D02*
G37*
G36*
X235500D02*
X227500D01*
Y60500D01*
X235500D01*
Y52500D01*
D02*
G37*
G36*
X410500Y83000D02*
X381000D01*
Y88000D01*
X410500D01*
Y83000D01*
D02*
G37*
G36*
X363000Y115000D02*
X355000D01*
Y123000D01*
X363000D01*
Y115000D01*
D02*
G37*
G36*
X410500Y123000D02*
X381000D01*
Y128000D01*
X410500D01*
Y123000D01*
D02*
G37*
G36*
X350500Y115000D02*
X342500D01*
Y123000D01*
X350500D01*
Y115000D01*
D02*
G37*
G36*
X135500D02*
X127500D01*
Y123000D01*
X135500D01*
Y115000D01*
D02*
G37*
G36*
X148000D02*
X140000D01*
Y123000D01*
X148000D01*
Y115000D01*
D02*
G37*
G36*
X198000Y127500D02*
X190000D01*
Y135500D01*
X198000D01*
Y127500D01*
D02*
G37*
G36*
X248000D02*
X240000D01*
Y135500D01*
X248000D01*
Y127500D01*
D02*
G37*
G36*
X260500D02*
X252500D01*
Y135500D01*
X260500D01*
Y127500D01*
D02*
G37*
G36*
X235500D02*
X227500D01*
Y135500D01*
X235500D01*
Y127500D01*
D02*
G37*
G36*
X210500D02*
X202500D01*
Y135500D01*
X210500D01*
Y127500D01*
D02*
G37*
G36*
X223000D02*
X215000D01*
Y135500D01*
X223000D01*
Y127500D01*
D02*
G37*
G36*
X123000Y115000D02*
X115000D01*
Y123000D01*
X123000D01*
Y115000D01*
D02*
G37*
G36*
X285500Y115000D02*
X277500D01*
Y123000D01*
X285500D01*
Y115000D01*
D02*
G37*
G36*
X298000D02*
X290000D01*
Y123000D01*
X298000D01*
Y115000D01*
D02*
G37*
G36*
X273000D02*
X265000D01*
Y123000D01*
X273000D01*
Y115000D01*
D02*
G37*
G36*
X248000D02*
X240000D01*
Y123000D01*
X248000D01*
Y115000D01*
D02*
G37*
G36*
X260500D02*
X252500D01*
Y123000D01*
X260500D01*
Y115000D01*
D02*
G37*
G36*
X310500D02*
X302500D01*
Y123000D01*
X310500D01*
Y115000D01*
D02*
G37*
G36*
X98000Y115000D02*
X90000D01*
Y123000D01*
X98000D01*
Y115000D01*
D02*
G37*
G36*
X110500D02*
X102500D01*
Y123000D01*
X110500D01*
Y115000D01*
D02*
G37*
G36*
X85500D02*
X77500D01*
Y123000D01*
X85500D01*
Y115000D01*
D02*
G37*
G36*
X323000Y115000D02*
X315000D01*
Y123000D01*
X323000D01*
Y115000D01*
D02*
G37*
G36*
X73000Y115000D02*
X65000D01*
Y123000D01*
X73000D01*
Y115000D01*
D02*
G37*
G36*
X273000Y127500D02*
X265000D01*
Y135500D01*
X273000D01*
Y127500D01*
D02*
G37*
G36*
X210500Y140000D02*
X202500D01*
Y148000D01*
X210500D01*
Y140000D01*
D02*
G37*
G36*
X223000D02*
X215000D01*
Y148000D01*
X223000D01*
Y140000D01*
D02*
G37*
G36*
X198000D02*
X190000D01*
Y148000D01*
X198000D01*
Y140000D01*
D02*
G37*
G36*
X363000Y127500D02*
X355000D01*
Y135500D01*
X363000D01*
Y127500D01*
D02*
G37*
G36*
X410500Y133000D02*
X381000D01*
Y138000D01*
X410500D01*
Y133000D01*
D02*
G37*
G36*
X235500Y140000D02*
X227500D01*
Y148000D01*
X235500D01*
Y140000D01*
D02*
G37*
G36*
X285500D02*
X277500D01*
Y148000D01*
X285500D01*
Y140000D01*
D02*
G37*
G36*
X298000D02*
X290000D01*
Y148000D01*
X298000D01*
Y140000D01*
D02*
G37*
G36*
X273000D02*
X265000D01*
Y148000D01*
X273000D01*
Y140000D01*
D02*
G37*
G36*
X248000D02*
X240000D01*
Y148000D01*
X248000D01*
Y140000D01*
D02*
G37*
G36*
X260500D02*
X252500D01*
Y148000D01*
X260500D01*
Y140000D01*
D02*
G37*
G36*
X350500Y127500D02*
X342500D01*
Y135500D01*
X350500D01*
Y127500D01*
D02*
G37*
G36*
X323000Y127500D02*
X315000D01*
Y135500D01*
X323000D01*
Y127500D01*
D02*
G37*
G36*
X73000Y127500D02*
X65000D01*
Y135500D01*
X73000D01*
Y127500D01*
D02*
G37*
G36*
X310500Y127500D02*
X302500D01*
Y135500D01*
X310500D01*
Y127500D01*
D02*
G37*
G36*
X285500D02*
X277500D01*
Y135500D01*
X285500D01*
Y127500D01*
D02*
G37*
G36*
X298000D02*
X290000D01*
Y135500D01*
X298000D01*
Y127500D01*
D02*
G37*
G36*
X85500Y127500D02*
X77500D01*
Y135500D01*
X85500D01*
Y127500D01*
D02*
G37*
G36*
X135500D02*
X127500D01*
Y135500D01*
X135500D01*
Y127500D01*
D02*
G37*
G36*
X148000D02*
X140000D01*
Y135500D01*
X148000D01*
Y127500D01*
D02*
G37*
G36*
X123000D02*
X115000D01*
Y135500D01*
X123000D01*
Y127500D01*
D02*
G37*
G36*
X98000D02*
X90000D01*
Y135500D01*
X98000D01*
Y127500D01*
D02*
G37*
G36*
X110500D02*
X102500D01*
Y135500D01*
X110500D01*
Y127500D01*
D02*
G37*
G36*
X123000Y90000D02*
X115000D01*
Y98000D01*
X123000D01*
Y90000D01*
D02*
G37*
G36*
X135500D02*
X127500D01*
Y98000D01*
X135500D01*
Y90000D01*
D02*
G37*
G36*
X110500D02*
X102500D01*
Y98000D01*
X110500D01*
Y90000D01*
D02*
G37*
G36*
X85500D02*
X77500D01*
Y98000D01*
X85500D01*
Y90000D01*
D02*
G37*
G36*
X98000D02*
X90000D01*
Y98000D01*
X98000D01*
Y90000D01*
D02*
G37*
G36*
X148000D02*
X140000D01*
Y98000D01*
X148000D01*
Y90000D01*
D02*
G37*
G36*
X198000Y102500D02*
X190000D01*
Y110500D01*
X198000D01*
Y102500D01*
D02*
G37*
G36*
X210500D02*
X202500D01*
Y110500D01*
X210500D01*
Y102500D01*
D02*
G37*
G36*
X410500Y93000D02*
X381000D01*
Y98000D01*
X410500D01*
Y93000D01*
D02*
G37*
G36*
X350500Y90000D02*
X342500D01*
Y98000D01*
X350500D01*
Y90000D01*
D02*
G37*
G36*
X363000D02*
X355000D01*
Y98000D01*
X363000D01*
Y90000D01*
D02*
G37*
G36*
X73000D02*
X65000D01*
Y98000D01*
X73000D01*
Y90000D01*
D02*
G37*
G36*
X235500Y90000D02*
X227500D01*
Y98000D01*
X235500D01*
Y90000D01*
D02*
G37*
G36*
X248000D02*
X240000D01*
Y98000D01*
X248000D01*
Y90000D01*
D02*
G37*
G36*
X223000D02*
X215000D01*
Y98000D01*
X223000D01*
Y90000D01*
D02*
G37*
G36*
X198000D02*
X190000D01*
Y98000D01*
X198000D01*
Y90000D01*
D02*
G37*
G36*
X210500D02*
X202500D01*
Y98000D01*
X210500D01*
Y90000D01*
D02*
G37*
G36*
X260500D02*
X252500D01*
Y98000D01*
X260500D01*
Y90000D01*
D02*
G37*
G36*
X310500D02*
X302500D01*
Y98000D01*
X310500D01*
Y90000D01*
D02*
G37*
G36*
X323000D02*
X315000D01*
Y98000D01*
X323000D01*
Y90000D01*
D02*
G37*
G36*
X298000D02*
X290000D01*
Y98000D01*
X298000D01*
Y90000D01*
D02*
G37*
G36*
X273000D02*
X265000D01*
Y98000D01*
X273000D01*
Y90000D01*
D02*
G37*
G36*
X285500D02*
X277500D01*
Y98000D01*
X285500D01*
Y90000D01*
D02*
G37*
G36*
X223000Y102500D02*
X215000D01*
Y110500D01*
X223000D01*
Y102500D01*
D02*
G37*
G36*
X350500Y102500D02*
X342500D01*
Y110500D01*
X350500D01*
Y102500D01*
D02*
G37*
G36*
X363000D02*
X355000D01*
Y110500D01*
X363000D01*
Y102500D01*
D02*
G37*
G36*
X148000D02*
X140000D01*
Y110500D01*
X148000D01*
Y102500D01*
D02*
G37*
G36*
X123000D02*
X115000D01*
Y110500D01*
X123000D01*
Y102500D01*
D02*
G37*
G36*
X135500D02*
X127500D01*
Y110500D01*
X135500D01*
Y102500D01*
D02*
G37*
G36*
X410500Y103000D02*
X381000D01*
Y108000D01*
X410500D01*
Y103000D01*
D02*
G37*
G36*
X223000Y115000D02*
X215000D01*
Y123000D01*
X223000D01*
Y115000D01*
D02*
G37*
G36*
X235500D02*
X227500D01*
Y123000D01*
X235500D01*
Y115000D01*
D02*
G37*
G36*
X210500D02*
X202500D01*
Y123000D01*
X210500D01*
Y115000D01*
D02*
G37*
G36*
X410500Y113000D02*
X381000D01*
Y118000D01*
X410500D01*
Y113000D01*
D02*
G37*
G36*
X198000Y115000D02*
X190000D01*
Y123000D01*
X198000D01*
Y115000D01*
D02*
G37*
G36*
X110500Y102500D02*
X102500D01*
Y110500D01*
X110500D01*
Y102500D01*
D02*
G37*
G36*
X273000Y102500D02*
X265000D01*
Y110500D01*
X273000D01*
Y102500D01*
D02*
G37*
G36*
X285500D02*
X277500D01*
Y110500D01*
X285500D01*
Y102500D01*
D02*
G37*
G36*
X260500D02*
X252500D01*
Y110500D01*
X260500D01*
Y102500D01*
D02*
G37*
G36*
X235500D02*
X227500D01*
Y110500D01*
X235500D01*
Y102500D01*
D02*
G37*
G36*
X248000D02*
X240000D01*
Y110500D01*
X248000D01*
Y102500D01*
D02*
G37*
G36*
X298000D02*
X290000D01*
Y110500D01*
X298000D01*
Y102500D01*
D02*
G37*
G36*
X85500Y102500D02*
X77500D01*
Y110500D01*
X85500D01*
Y102500D01*
D02*
G37*
G36*
X98000D02*
X90000D01*
Y110500D01*
X98000D01*
Y102500D01*
D02*
G37*
G36*
X73000D02*
X65000D01*
Y110500D01*
X73000D01*
Y102500D01*
D02*
G37*
G36*
X310500Y102500D02*
X302500D01*
Y110500D01*
X310500D01*
Y102500D01*
D02*
G37*
G36*
X323000D02*
X315000D01*
Y110500D01*
X323000D01*
Y102500D01*
D02*
G37*
G36*
X285500Y252500D02*
X277500D01*
Y260500D01*
X285500D01*
Y252500D01*
D02*
G37*
G36*
X73000Y390000D02*
X65000D01*
Y398000D01*
X73000D01*
Y390000D01*
D02*
G37*
G36*
X85500D02*
X77500D01*
Y398000D01*
X85500D01*
Y390000D01*
D02*
G37*
G36*
X323000Y390000D02*
X315000D01*
Y398000D01*
X323000D01*
Y390000D01*
D02*
G37*
G36*
X298000D02*
X290000D01*
Y398000D01*
X298000D01*
Y390000D01*
D02*
G37*
G36*
X310500D02*
X302500D01*
Y398000D01*
X310500D01*
Y390000D01*
D02*
G37*
G36*
X98000Y390000D02*
X90000D01*
Y398000D01*
X98000D01*
Y390000D01*
D02*
G37*
G36*
X148000D02*
X140000D01*
Y398000D01*
X148000D01*
Y390000D01*
D02*
G37*
G36*
X350500D02*
X342500D01*
Y398000D01*
X350500D01*
Y390000D01*
D02*
G37*
G36*
X135500D02*
X127500D01*
Y398000D01*
X135500D01*
Y390000D01*
D02*
G37*
G36*
X110500D02*
X102500D01*
Y398000D01*
X110500D01*
Y390000D01*
D02*
G37*
G36*
X123000D02*
X115000D01*
Y398000D01*
X123000D01*
Y390000D01*
D02*
G37*
G36*
X285500Y390000D02*
X277500D01*
Y398000D01*
X285500D01*
Y390000D01*
D02*
G37*
G36*
X423750Y385750D02*
X400500D01*
Y388750D01*
X423750D01*
Y385750D01*
D02*
G37*
G36*
X198000Y390000D02*
X190000D01*
Y398000D01*
X198000D01*
Y390000D01*
D02*
G37*
G36*
X379000Y383750D02*
X423750D01*
Y380750D01*
X375000D01*
Y387500D01*
X379000D01*
Y383750D01*
D02*
G37*
G36*
X350500Y377500D02*
X342500D01*
Y385500D01*
X350500D01*
Y377500D01*
D02*
G37*
G36*
X363000D02*
X355000D01*
Y385500D01*
X363000D01*
Y377500D01*
D02*
G37*
G36*
X210500Y390000D02*
X202500D01*
Y398000D01*
X210500D01*
Y390000D01*
D02*
G37*
G36*
X260500D02*
X252500D01*
Y398000D01*
X260500D01*
Y390000D01*
D02*
G37*
G36*
X273000D02*
X265000D01*
Y398000D01*
X273000D01*
Y390000D01*
D02*
G37*
G36*
X248000D02*
X240000D01*
Y398000D01*
X248000D01*
Y390000D01*
D02*
G37*
G36*
X223000D02*
X215000D01*
Y398000D01*
X223000D01*
Y390000D01*
D02*
G37*
G36*
X235500D02*
X227500D01*
Y398000D01*
X235500D01*
Y390000D01*
D02*
G37*
G36*
X363000Y390000D02*
X355000D01*
Y398000D01*
X363000D01*
Y390000D01*
D02*
G37*
G36*
X85500Y402500D02*
X77500D01*
Y410500D01*
X85500D01*
Y402500D01*
D02*
G37*
G36*
X98000D02*
X90000D01*
Y410500D01*
X98000D01*
Y402500D01*
D02*
G37*
G36*
X73000D02*
X65000D01*
Y410500D01*
X73000D01*
Y402500D01*
D02*
G37*
G36*
X310500Y402500D02*
X302500D01*
Y410500D01*
X310500D01*
Y402500D01*
D02*
G37*
G36*
X323000D02*
X315000D01*
Y410500D01*
X323000D01*
Y402500D01*
D02*
G37*
G36*
X110500Y402500D02*
X102500D01*
Y410500D01*
X110500D01*
Y402500D01*
D02*
G37*
G36*
X350500D02*
X342500D01*
Y410500D01*
X350500D01*
Y402500D01*
D02*
G37*
G36*
X363000D02*
X355000D01*
Y410500D01*
X363000D01*
Y402500D01*
D02*
G37*
G36*
X148000D02*
X140000D01*
Y410500D01*
X148000D01*
Y402500D01*
D02*
G37*
G36*
X123000D02*
X115000D01*
Y410500D01*
X123000D01*
Y402500D01*
D02*
G37*
G36*
X135500D02*
X127500D01*
Y410500D01*
X135500D01*
Y402500D01*
D02*
G37*
G36*
X298000Y402500D02*
X290000D01*
Y410500D01*
X298000D01*
Y402500D01*
D02*
G37*
G36*
X198000D02*
X190000D01*
Y410500D01*
X198000D01*
Y402500D01*
D02*
G37*
G36*
X210500D02*
X202500D01*
Y410500D01*
X210500D01*
Y402500D01*
D02*
G37*
G36*
X379000Y403750D02*
X423750D01*
Y400750D01*
X375000D01*
Y407500D01*
X379000D01*
Y403750D01*
D02*
G37*
G36*
Y393750D02*
X423750D01*
Y390750D01*
X375000D01*
Y397500D01*
X379000D01*
Y393750D01*
D02*
G37*
G36*
X423750Y395750D02*
X400500D01*
Y398750D01*
X423750D01*
Y395750D01*
D02*
G37*
G36*
X223000Y402500D02*
X215000D01*
Y410500D01*
X223000D01*
Y402500D01*
D02*
G37*
G36*
X273000D02*
X265000D01*
Y410500D01*
X273000D01*
Y402500D01*
D02*
G37*
G36*
X285500D02*
X277500D01*
Y410500D01*
X285500D01*
Y402500D01*
D02*
G37*
G36*
X260500D02*
X252500D01*
Y410500D01*
X260500D01*
Y402500D01*
D02*
G37*
G36*
X235500D02*
X227500D01*
Y410500D01*
X235500D01*
Y402500D01*
D02*
G37*
G36*
X248000D02*
X240000D01*
Y410500D01*
X248000D01*
Y402500D01*
D02*
G37*
G36*
X310500Y365000D02*
X302500D01*
Y373000D01*
X310500D01*
Y365000D01*
D02*
G37*
G36*
X323000D02*
X315000D01*
Y373000D01*
X323000D01*
Y365000D01*
D02*
G37*
G36*
X298000D02*
X290000D01*
Y373000D01*
X298000D01*
Y365000D01*
D02*
G37*
G36*
X273000D02*
X265000D01*
Y373000D01*
X273000D01*
Y365000D01*
D02*
G37*
G36*
X285500D02*
X277500D01*
Y373000D01*
X285500D01*
Y365000D01*
D02*
G37*
G36*
X73000Y365000D02*
X65000D01*
Y373000D01*
X73000D01*
Y365000D01*
D02*
G37*
G36*
X123000D02*
X115000D01*
Y373000D01*
X123000D01*
Y365000D01*
D02*
G37*
G36*
X135500D02*
X127500D01*
Y373000D01*
X135500D01*
Y365000D01*
D02*
G37*
G36*
X110500D02*
X102500D01*
Y373000D01*
X110500D01*
Y365000D01*
D02*
G37*
G36*
X85500D02*
X77500D01*
Y373000D01*
X85500D01*
Y365000D01*
D02*
G37*
G36*
X98000D02*
X90000D01*
Y373000D01*
X98000D01*
Y365000D01*
D02*
G37*
G36*
X260500Y365000D02*
X252500D01*
Y373000D01*
X260500D01*
Y365000D01*
D02*
G37*
G36*
X363000Y352500D02*
X355000D01*
Y360500D01*
X363000D01*
Y352500D01*
D02*
G37*
G36*
X423750Y355750D02*
X400500D01*
Y358750D01*
X423750D01*
Y355750D01*
D02*
G37*
G36*
X350500Y352500D02*
X342500D01*
Y360500D01*
X350500D01*
Y352500D01*
D02*
G37*
G36*
X135500D02*
X127500D01*
Y360500D01*
X135500D01*
Y352500D01*
D02*
G37*
G36*
X148000D02*
X140000D01*
Y360500D01*
X148000D01*
Y352500D01*
D02*
G37*
G36*
X379000Y363750D02*
X423750D01*
Y360750D01*
X375000D01*
Y363750D01*
Y367500D01*
X379000D01*
Y363750D01*
D02*
G37*
G36*
X235500Y365000D02*
X227500D01*
Y373000D01*
X235500D01*
Y365000D01*
D02*
G37*
G36*
X248000D02*
X240000D01*
Y373000D01*
X248000D01*
Y365000D01*
D02*
G37*
G36*
X223000D02*
X215000D01*
Y373000D01*
X223000D01*
Y365000D01*
D02*
G37*
G36*
X198000D02*
X190000D01*
Y373000D01*
X198000D01*
Y365000D01*
D02*
G37*
G36*
X210500D02*
X202500D01*
Y373000D01*
X210500D01*
Y365000D01*
D02*
G37*
G36*
X148000Y365000D02*
X140000D01*
Y373000D01*
X148000D01*
Y365000D01*
D02*
G37*
G36*
X323000Y377500D02*
X315000D01*
Y385500D01*
X323000D01*
Y377500D01*
D02*
G37*
G36*
X73000Y377500D02*
X65000D01*
Y385500D01*
X73000D01*
Y377500D01*
D02*
G37*
G36*
X310500Y377500D02*
X302500D01*
Y385500D01*
X310500D01*
Y377500D01*
D02*
G37*
G36*
X285500D02*
X277500D01*
Y385500D01*
X285500D01*
Y377500D01*
D02*
G37*
G36*
X298000D02*
X290000D01*
Y385500D01*
X298000D01*
Y377500D01*
D02*
G37*
G36*
X85500Y377500D02*
X77500D01*
Y385500D01*
X85500D01*
Y377500D01*
D02*
G37*
G36*
X135500D02*
X127500D01*
Y385500D01*
X135500D01*
Y377500D01*
D02*
G37*
G36*
X148000D02*
X140000D01*
Y385500D01*
X148000D01*
Y377500D01*
D02*
G37*
G36*
X123000D02*
X115000D01*
Y385500D01*
X123000D01*
Y377500D01*
D02*
G37*
G36*
X98000D02*
X90000D01*
Y385500D01*
X98000D01*
Y377500D01*
D02*
G37*
G36*
X110500D02*
X102500D01*
Y385500D01*
X110500D01*
Y377500D01*
D02*
G37*
G36*
X273000Y377500D02*
X265000D01*
Y385500D01*
X273000D01*
Y377500D01*
D02*
G37*
G36*
X379000Y373750D02*
X423750D01*
Y370750D01*
X375000D01*
Y373750D01*
Y377500D01*
X379000D01*
Y373750D01*
D02*
G37*
G36*
X423750Y375750D02*
X400500D01*
Y378750D01*
X423750D01*
Y375750D01*
D02*
G37*
G36*
Y365750D02*
X400500D01*
Y368750D01*
X423750D01*
Y365750D01*
D02*
G37*
G36*
X350500Y365000D02*
X342500D01*
Y373000D01*
X350500D01*
Y365000D01*
D02*
G37*
G36*
X363000D02*
X355000D01*
Y373000D01*
X363000D01*
Y365000D01*
D02*
G37*
G36*
X198000Y377500D02*
X190000D01*
Y385500D01*
X198000D01*
Y377500D01*
D02*
G37*
G36*
X248000D02*
X240000D01*
Y385500D01*
X248000D01*
Y377500D01*
D02*
G37*
G36*
X260500D02*
X252500D01*
Y385500D01*
X260500D01*
Y377500D01*
D02*
G37*
G36*
X235500D02*
X227500D01*
Y385500D01*
X235500D01*
Y377500D01*
D02*
G37*
G36*
X210500D02*
X202500D01*
Y385500D01*
X210500D01*
Y377500D01*
D02*
G37*
G36*
X223000D02*
X215000D01*
Y385500D01*
X223000D01*
Y377500D01*
D02*
G37*
G36*
X423750Y405750D02*
X400500D01*
Y408750D01*
X423750D01*
Y405750D01*
D02*
G37*
G36*
X350500Y440000D02*
X342500D01*
Y448000D01*
X350500D01*
Y440000D01*
D02*
G37*
G36*
X363000D02*
X355000D01*
Y448000D01*
X363000D01*
Y440000D01*
D02*
G37*
G36*
X148000D02*
X140000D01*
Y448000D01*
X148000D01*
Y440000D01*
D02*
G37*
G36*
X123000D02*
X115000D01*
Y448000D01*
X123000D01*
Y440000D01*
D02*
G37*
G36*
X135500D02*
X127500D01*
Y448000D01*
X135500D01*
Y440000D01*
D02*
G37*
G36*
X375500D02*
X367500D01*
Y448000D01*
X375500D01*
Y440000D01*
D02*
G37*
G36*
X425500D02*
X417500D01*
Y448000D01*
X425500D01*
Y440000D01*
D02*
G37*
G36*
X198000Y452500D02*
X190000D01*
Y460500D01*
X198000D01*
Y452500D01*
D02*
G37*
G36*
X413000Y440000D02*
X405000D01*
Y448000D01*
X413000D01*
Y440000D01*
D02*
G37*
G36*
X388000D02*
X380000D01*
Y448000D01*
X388000D01*
Y440000D01*
D02*
G37*
G36*
X400500D02*
X392500D01*
Y448000D01*
X400500D01*
Y440000D01*
D02*
G37*
G36*
X110500D02*
X102500D01*
Y448000D01*
X110500D01*
Y440000D01*
D02*
G37*
G36*
X273000Y440000D02*
X265000D01*
Y448000D01*
X273000D01*
Y440000D01*
D02*
G37*
G36*
X285500D02*
X277500D01*
Y448000D01*
X285500D01*
Y440000D01*
D02*
G37*
G36*
X260500D02*
X252500D01*
Y448000D01*
X260500D01*
Y440000D01*
D02*
G37*
G36*
X235500D02*
X227500D01*
Y448000D01*
X235500D01*
Y440000D01*
D02*
G37*
G36*
X248000D02*
X240000D01*
Y448000D01*
X248000D01*
Y440000D01*
D02*
G37*
G36*
X298000D02*
X290000D01*
Y448000D01*
X298000D01*
Y440000D01*
D02*
G37*
G36*
X85500Y440000D02*
X77500D01*
Y448000D01*
X85500D01*
Y440000D01*
D02*
G37*
G36*
X98000D02*
X90000D01*
Y448000D01*
X98000D01*
Y440000D01*
D02*
G37*
G36*
X73000D02*
X65000D01*
Y448000D01*
X73000D01*
Y440000D01*
D02*
G37*
G36*
X310500Y440000D02*
X302500D01*
Y448000D01*
X310500D01*
Y440000D01*
D02*
G37*
G36*
X323000D02*
X315000D01*
Y448000D01*
X323000D01*
Y440000D01*
D02*
G37*
G36*
X210500Y452500D02*
X202500D01*
Y460500D01*
X210500D01*
Y452500D01*
D02*
G37*
G36*
X148000Y452500D02*
X140000D01*
Y460500D01*
X148000D01*
Y452500D01*
D02*
G37*
G36*
X350500D02*
X342500D01*
Y460500D01*
X350500D01*
Y452500D01*
D02*
G37*
G36*
X135500D02*
X127500D01*
Y460500D01*
X135500D01*
Y452500D01*
D02*
G37*
G36*
X110500D02*
X102500D01*
Y460500D01*
X110500D01*
Y452500D01*
D02*
G37*
G36*
X123000D02*
X115000D01*
Y460500D01*
X123000D01*
Y452500D01*
D02*
G37*
G36*
X363000D02*
X355000D01*
Y460500D01*
X363000D01*
Y452500D01*
D02*
G37*
G36*
X413000D02*
X405000D01*
Y460500D01*
X413000D01*
Y452500D01*
D02*
G37*
G36*
X425500D02*
X417500D01*
Y460500D01*
X425500D01*
Y452500D01*
D02*
G37*
G36*
X400500D02*
X392500D01*
Y460500D01*
X400500D01*
Y452500D01*
D02*
G37*
G36*
X375500D02*
X367500D01*
Y460500D01*
X375500D01*
Y452500D01*
D02*
G37*
G36*
X388000D02*
X380000D01*
Y460500D01*
X388000D01*
Y452500D01*
D02*
G37*
G36*
X98000D02*
X90000D01*
Y460500D01*
X98000D01*
Y452500D01*
D02*
G37*
G36*
X260500Y452500D02*
X252500D01*
Y460500D01*
X260500D01*
Y452500D01*
D02*
G37*
G36*
X273000D02*
X265000D01*
Y460500D01*
X273000D01*
Y452500D01*
D02*
G37*
G36*
X248000D02*
X240000D01*
Y460500D01*
X248000D01*
Y452500D01*
D02*
G37*
G36*
X223000D02*
X215000D01*
Y460500D01*
X223000D01*
Y452500D01*
D02*
G37*
G36*
X235500D02*
X227500D01*
Y460500D01*
X235500D01*
Y452500D01*
D02*
G37*
G36*
X285500D02*
X277500D01*
Y460500D01*
X285500D01*
Y452500D01*
D02*
G37*
G36*
X73000Y452500D02*
X65000D01*
Y460500D01*
X73000D01*
Y452500D01*
D02*
G37*
G36*
X85500D02*
X77500D01*
Y460500D01*
X85500D01*
Y452500D01*
D02*
G37*
G36*
X323000Y452500D02*
X315000D01*
Y460500D01*
X323000D01*
Y452500D01*
D02*
G37*
G36*
X298000D02*
X290000D01*
Y460500D01*
X298000D01*
Y452500D01*
D02*
G37*
G36*
X310500D02*
X302500D01*
Y460500D01*
X310500D01*
Y452500D01*
D02*
G37*
G36*
X110500Y415000D02*
X102500D01*
Y423000D01*
X110500D01*
Y415000D01*
D02*
G37*
G36*
X123000D02*
X115000D01*
Y423000D01*
X123000D01*
Y415000D01*
D02*
G37*
G36*
X98000D02*
X90000D01*
Y423000D01*
X98000D01*
Y415000D01*
D02*
G37*
G36*
X73000D02*
X65000D01*
Y423000D01*
X73000D01*
Y415000D01*
D02*
G37*
G36*
X85500D02*
X77500D01*
Y423000D01*
X85500D01*
Y415000D01*
D02*
G37*
G36*
X135500D02*
X127500D01*
Y423000D01*
X135500D01*
Y415000D01*
D02*
G37*
G36*
X423750Y415750D02*
X400500D01*
Y418750D01*
X423750D01*
Y415750D01*
D02*
G37*
G36*
X379000Y423750D02*
X423750D01*
Y420750D01*
X375000D01*
Y423750D01*
Y427500D01*
X379000D01*
Y423750D01*
D02*
G37*
G36*
X363000Y415000D02*
X355000D01*
Y423000D01*
X363000D01*
Y415000D01*
D02*
G37*
G36*
X148000D02*
X140000D01*
Y423000D01*
X148000D01*
Y415000D01*
D02*
G37*
G36*
X350500D02*
X342500D01*
Y423000D01*
X350500D01*
Y415000D01*
D02*
G37*
G36*
X323000Y415000D02*
X315000D01*
Y423000D01*
X323000D01*
Y415000D01*
D02*
G37*
G36*
X223000D02*
X215000D01*
Y423000D01*
X223000D01*
Y415000D01*
D02*
G37*
G36*
X235500D02*
X227500D01*
Y423000D01*
X235500D01*
Y415000D01*
D02*
G37*
G36*
X210500D02*
X202500D01*
Y423000D01*
X210500D01*
Y415000D01*
D02*
G37*
G36*
X379000Y413750D02*
X423750D01*
Y410750D01*
X375000D01*
Y417500D01*
X379000D01*
Y413750D01*
D02*
G37*
G36*
X198000Y415000D02*
X190000D01*
Y423000D01*
X198000D01*
Y415000D01*
D02*
G37*
G36*
X248000D02*
X240000D01*
Y423000D01*
X248000D01*
Y415000D01*
D02*
G37*
G36*
X298000D02*
X290000D01*
Y423000D01*
X298000D01*
Y415000D01*
D02*
G37*
G36*
X310500D02*
X302500D01*
Y423000D01*
X310500D01*
Y415000D01*
D02*
G37*
G36*
X285500D02*
X277500D01*
Y423000D01*
X285500D01*
Y415000D01*
D02*
G37*
G36*
X260500D02*
X252500D01*
Y423000D01*
X260500D01*
Y415000D01*
D02*
G37*
G36*
X273000D02*
X265000D01*
Y423000D01*
X273000D01*
Y415000D01*
D02*
G37*
G36*
X423750Y425750D02*
X400500D01*
Y428750D01*
X423750D01*
Y425750D01*
D02*
G37*
G36*
X123000Y427500D02*
X115000D01*
Y435500D01*
X123000D01*
Y427500D01*
D02*
G37*
G36*
X135500D02*
X127500D01*
Y435500D01*
X135500D01*
Y427500D01*
D02*
G37*
G36*
X110500D02*
X102500D01*
Y435500D01*
X110500D01*
Y427500D01*
D02*
G37*
G36*
X85500D02*
X77500D01*
Y435500D01*
X85500D01*
Y427500D01*
D02*
G37*
G36*
X98000D02*
X90000D01*
Y435500D01*
X98000D01*
Y427500D01*
D02*
G37*
G36*
X148000D02*
X140000D01*
Y435500D01*
X148000D01*
Y427500D01*
D02*
G37*
G36*
X210500Y440000D02*
X202500D01*
Y448000D01*
X210500D01*
Y440000D01*
D02*
G37*
G36*
X223000D02*
X215000D01*
Y448000D01*
X223000D01*
Y440000D01*
D02*
G37*
G36*
X198000D02*
X190000D01*
Y448000D01*
X198000D01*
Y440000D01*
D02*
G37*
G36*
X350500Y427500D02*
X342500D01*
Y435500D01*
X350500D01*
Y427500D01*
D02*
G37*
G36*
X363000D02*
X355000D01*
Y435500D01*
X363000D01*
Y427500D01*
D02*
G37*
G36*
X73000D02*
X65000D01*
Y435500D01*
X73000D01*
Y427500D01*
D02*
G37*
G36*
X235500Y427500D02*
X227500D01*
Y435500D01*
X235500D01*
Y427500D01*
D02*
G37*
G36*
X248000D02*
X240000D01*
Y435500D01*
X248000D01*
Y427500D01*
D02*
G37*
G36*
X223000D02*
X215000D01*
Y435500D01*
X223000D01*
Y427500D01*
D02*
G37*
G36*
X198000D02*
X190000D01*
Y435500D01*
X198000D01*
Y427500D01*
D02*
G37*
G36*
X210500D02*
X202500D01*
Y435500D01*
X210500D01*
Y427500D01*
D02*
G37*
G36*
X260500D02*
X252500D01*
Y435500D01*
X260500D01*
Y427500D01*
D02*
G37*
G36*
X310500D02*
X302500D01*
Y435500D01*
X310500D01*
Y427500D01*
D02*
G37*
G36*
X323000D02*
X315000D01*
Y435500D01*
X323000D01*
Y427500D01*
D02*
G37*
G36*
X298000D02*
X290000D01*
Y435500D01*
X298000D01*
Y427500D01*
D02*
G37*
G36*
X273000D02*
X265000D01*
Y435500D01*
X273000D01*
Y427500D01*
D02*
G37*
G36*
X285500D02*
X277500D01*
Y435500D01*
X285500D01*
Y427500D01*
D02*
G37*
G36*
X123000Y352500D02*
X115000D01*
Y360500D01*
X123000D01*
Y352500D01*
D02*
G37*
G36*
X210500Y290000D02*
X202500D01*
Y298000D01*
X210500D01*
Y290000D01*
D02*
G37*
G36*
X223000D02*
X215000D01*
Y298000D01*
X223000D01*
Y290000D01*
D02*
G37*
G36*
X198000D02*
X190000D01*
Y298000D01*
X198000D01*
Y290000D01*
D02*
G37*
G36*
X379000Y283750D02*
X423750D01*
Y280750D01*
X375000D01*
Y283750D01*
Y287500D01*
X379000D01*
Y283750D01*
D02*
G37*
G36*
X423750Y285750D02*
X400500D01*
Y288750D01*
X423750D01*
Y285750D01*
D02*
G37*
G36*
X235500Y290000D02*
X227500D01*
Y298000D01*
X235500D01*
Y290000D01*
D02*
G37*
G36*
X285500D02*
X277500D01*
Y298000D01*
X285500D01*
Y290000D01*
D02*
G37*
G36*
X298000D02*
X290000D01*
Y298000D01*
X298000D01*
Y290000D01*
D02*
G37*
G36*
X273000D02*
X265000D01*
Y298000D01*
X273000D01*
Y290000D01*
D02*
G37*
G36*
X248000D02*
X240000D01*
Y298000D01*
X248000D01*
Y290000D01*
D02*
G37*
G36*
X260500D02*
X252500D01*
Y298000D01*
X260500D01*
Y290000D01*
D02*
G37*
G36*
X363000Y277500D02*
X355000D01*
Y285500D01*
X363000D01*
Y277500D01*
D02*
G37*
G36*
X73000D02*
X65000D01*
Y285500D01*
X73000D01*
Y277500D01*
D02*
G37*
G36*
X85500D02*
X77500D01*
Y285500D01*
X85500D01*
Y277500D01*
D02*
G37*
G36*
X323000Y277500D02*
X315000D01*
Y285500D01*
X323000D01*
Y277500D01*
D02*
G37*
G36*
X298000D02*
X290000D01*
Y285500D01*
X298000D01*
Y277500D01*
D02*
G37*
G36*
X310500D02*
X302500D01*
Y285500D01*
X310500D01*
Y277500D01*
D02*
G37*
G36*
X98000Y277500D02*
X90000D01*
Y285500D01*
X98000D01*
Y277500D01*
D02*
G37*
G36*
X148000D02*
X140000D01*
Y285500D01*
X148000D01*
Y277500D01*
D02*
G37*
G36*
X350500D02*
X342500D01*
Y285500D01*
X350500D01*
Y277500D01*
D02*
G37*
G36*
X135500D02*
X127500D01*
Y285500D01*
X135500D01*
Y277500D01*
D02*
G37*
G36*
X110500D02*
X102500D01*
Y285500D01*
X110500D01*
Y277500D01*
D02*
G37*
G36*
X123000D02*
X115000D01*
Y285500D01*
X123000D01*
Y277500D01*
D02*
G37*
G36*
X310500Y290000D02*
X302500D01*
Y298000D01*
X310500D01*
Y290000D01*
D02*
G37*
G36*
X223000Y302500D02*
X215000D01*
Y310500D01*
X223000D01*
Y302500D01*
D02*
G37*
G36*
X235500D02*
X227500D01*
Y310500D01*
X235500D01*
Y302500D01*
D02*
G37*
G36*
X210500D02*
X202500D01*
Y310500D01*
X210500D01*
Y302500D01*
D02*
G37*
G36*
X379000Y303750D02*
X423750D01*
Y300750D01*
X375000D01*
Y307500D01*
X379000D01*
Y303750D01*
D02*
G37*
G36*
X198000Y302500D02*
X190000D01*
Y310500D01*
X198000D01*
Y302500D01*
D02*
G37*
G36*
X248000D02*
X240000D01*
Y310500D01*
X248000D01*
Y302500D01*
D02*
G37*
G36*
X298000D02*
X290000D01*
Y310500D01*
X298000D01*
Y302500D01*
D02*
G37*
G36*
X310500D02*
X302500D01*
Y310500D01*
X310500D01*
Y302500D01*
D02*
G37*
G36*
X285500D02*
X277500D01*
Y310500D01*
X285500D01*
Y302500D01*
D02*
G37*
G36*
X260500D02*
X252500D01*
Y310500D01*
X260500D01*
Y302500D01*
D02*
G37*
G36*
X273000D02*
X265000D01*
Y310500D01*
X273000D01*
Y302500D01*
D02*
G37*
G36*
X423750Y295750D02*
X400500D01*
Y298750D01*
X423750D01*
Y295750D01*
D02*
G37*
G36*
X98000Y290000D02*
X90000D01*
Y298000D01*
X98000D01*
Y290000D01*
D02*
G37*
G36*
X110500D02*
X102500D01*
Y298000D01*
X110500D01*
Y290000D01*
D02*
G37*
G36*
X85500D02*
X77500D01*
Y298000D01*
X85500D01*
Y290000D01*
D02*
G37*
G36*
X323000Y290000D02*
X315000D01*
Y298000D01*
X323000D01*
Y290000D01*
D02*
G37*
G36*
X73000Y290000D02*
X65000D01*
Y298000D01*
X73000D01*
Y290000D01*
D02*
G37*
G36*
X123000D02*
X115000D01*
Y298000D01*
X123000D01*
Y290000D01*
D02*
G37*
G36*
X363000D02*
X355000D01*
Y298000D01*
X363000D01*
Y290000D01*
D02*
G37*
G36*
X379000Y293750D02*
X423750D01*
Y290750D01*
X375000D01*
Y293750D01*
Y297500D01*
X379000D01*
Y293750D01*
D02*
G37*
G36*
X350500Y290000D02*
X342500D01*
Y298000D01*
X350500D01*
Y290000D01*
D02*
G37*
G36*
X135500D02*
X127500D01*
Y298000D01*
X135500D01*
Y290000D01*
D02*
G37*
G36*
X148000D02*
X140000D01*
Y298000D01*
X148000D01*
Y290000D01*
D02*
G37*
G36*
X379000Y263750D02*
X423750D01*
Y260750D01*
X375000D01*
Y267500D01*
X379000D01*
Y263750D01*
D02*
G37*
G36*
X198000Y265000D02*
X190000D01*
Y273000D01*
X198000D01*
Y265000D01*
D02*
G37*
G36*
X423750Y255750D02*
X400500D01*
Y258750D01*
X423750D01*
Y255750D01*
D02*
G37*
G36*
X350500Y252500D02*
X342500D01*
Y260500D01*
X350500D01*
Y252500D01*
D02*
G37*
G36*
X363000D02*
X355000D01*
Y260500D01*
X363000D01*
Y252500D01*
D02*
G37*
G36*
X210500Y265000D02*
X202500D01*
Y273000D01*
X210500D01*
Y265000D01*
D02*
G37*
G36*
X260500D02*
X252500D01*
Y273000D01*
X260500D01*
Y265000D01*
D02*
G37*
G36*
X273000D02*
X265000D01*
Y273000D01*
X273000D01*
Y265000D01*
D02*
G37*
G36*
X248000D02*
X240000D01*
Y273000D01*
X248000D01*
Y265000D01*
D02*
G37*
G36*
X223000D02*
X215000D01*
Y273000D01*
X223000D01*
Y265000D01*
D02*
G37*
G36*
X235500D02*
X227500D01*
Y273000D01*
X235500D01*
Y265000D01*
D02*
G37*
G36*
X172500Y252500D02*
X152500D01*
Y460000D01*
X172500D01*
Y252500D01*
D02*
G37*
G36*
X60000D02*
X40000D01*
Y460000D01*
X60000D01*
Y252500D01*
D02*
G37*
G36*
X73000D02*
X65000D01*
Y260500D01*
X73000D01*
Y252500D01*
D02*
G37*
G36*
X323000Y252500D02*
X315000D01*
Y260500D01*
X323000D01*
Y252500D01*
D02*
G37*
G36*
X298000D02*
X290000D01*
Y260500D01*
X298000D01*
Y252500D01*
D02*
G37*
G36*
X310500D02*
X302500D01*
Y260500D01*
X310500D01*
Y252500D01*
D02*
G37*
G36*
X85500Y252500D02*
X77500D01*
Y260500D01*
X85500D01*
Y252500D01*
D02*
G37*
G36*
X135500D02*
X127500D01*
Y260500D01*
X135500D01*
Y252500D01*
D02*
G37*
G36*
X148000D02*
X140000D01*
Y260500D01*
X148000D01*
Y252500D01*
D02*
G37*
G36*
X123000D02*
X115000D01*
Y260500D01*
X123000D01*
Y252500D01*
D02*
G37*
G36*
X98000D02*
X90000D01*
Y260500D01*
X98000D01*
Y252500D01*
D02*
G37*
G36*
X110500D02*
X102500D01*
Y260500D01*
X110500D01*
Y252500D01*
D02*
G37*
G36*
X285500Y265000D02*
X277500D01*
Y273000D01*
X285500D01*
Y265000D01*
D02*
G37*
G36*
X198000Y277500D02*
X190000D01*
Y285500D01*
X198000D01*
Y277500D01*
D02*
G37*
G36*
X210500D02*
X202500D01*
Y285500D01*
X210500D01*
Y277500D01*
D02*
G37*
G36*
X423750Y275750D02*
X400500D01*
Y278750D01*
X423750D01*
Y275750D01*
D02*
G37*
G36*
Y265750D02*
X400500D01*
Y268750D01*
X423750D01*
Y265750D01*
D02*
G37*
G36*
X379000Y273750D02*
X423750D01*
Y270750D01*
X375000D01*
Y273750D01*
Y277500D01*
X379000D01*
Y273750D01*
D02*
G37*
G36*
X223000Y277500D02*
X215000D01*
Y285500D01*
X223000D01*
Y277500D01*
D02*
G37*
G36*
X273000D02*
X265000D01*
Y285500D01*
X273000D01*
Y277500D01*
D02*
G37*
G36*
X285500D02*
X277500D01*
Y285500D01*
X285500D01*
Y277500D01*
D02*
G37*
G36*
X260500D02*
X252500D01*
Y285500D01*
X260500D01*
Y277500D01*
D02*
G37*
G36*
X235500D02*
X227500D01*
Y285500D01*
X235500D01*
Y277500D01*
D02*
G37*
G36*
X248000D02*
X240000D01*
Y285500D01*
X248000D01*
Y277500D01*
D02*
G37*
G36*
X363000Y265000D02*
X355000D01*
Y273000D01*
X363000D01*
Y265000D01*
D02*
G37*
G36*
X73000D02*
X65000D01*
Y273000D01*
X73000D01*
Y265000D01*
D02*
G37*
G36*
X85500D02*
X77500D01*
Y273000D01*
X85500D01*
Y265000D01*
D02*
G37*
G36*
X323000Y265000D02*
X315000D01*
Y273000D01*
X323000D01*
Y265000D01*
D02*
G37*
G36*
X298000D02*
X290000D01*
Y273000D01*
X298000D01*
Y265000D01*
D02*
G37*
G36*
X310500D02*
X302500D01*
Y273000D01*
X310500D01*
Y265000D01*
D02*
G37*
G36*
X98000Y265000D02*
X90000D01*
Y273000D01*
X98000D01*
Y265000D01*
D02*
G37*
G36*
X148000D02*
X140000D01*
Y273000D01*
X148000D01*
Y265000D01*
D02*
G37*
G36*
X350500D02*
X342500D01*
Y273000D01*
X350500D01*
Y265000D01*
D02*
G37*
G36*
X135500D02*
X127500D01*
Y273000D01*
X135500D01*
Y265000D01*
D02*
G37*
G36*
X110500D02*
X102500D01*
Y273000D01*
X110500D01*
Y265000D01*
D02*
G37*
G36*
X123000D02*
X115000D01*
Y273000D01*
X123000D01*
Y265000D01*
D02*
G37*
G36*
X323000Y302500D02*
X315000D01*
Y310500D01*
X323000D01*
Y302500D01*
D02*
G37*
G36*
X273000Y340000D02*
X265000D01*
Y348000D01*
X273000D01*
Y340000D01*
D02*
G37*
G36*
X285500D02*
X277500D01*
Y348000D01*
X285500D01*
Y340000D01*
D02*
G37*
G36*
X260500D02*
X252500D01*
Y348000D01*
X260500D01*
Y340000D01*
D02*
G37*
G36*
X235500D02*
X227500D01*
Y348000D01*
X235500D01*
Y340000D01*
D02*
G37*
G36*
X248000D02*
X240000D01*
Y348000D01*
X248000D01*
Y340000D01*
D02*
G37*
G36*
X298000D02*
X290000D01*
Y348000D01*
X298000D01*
Y340000D01*
D02*
G37*
G36*
X85500Y340000D02*
X77500D01*
Y348000D01*
X85500D01*
Y340000D01*
D02*
G37*
G36*
X98000D02*
X90000D01*
Y348000D01*
X98000D01*
Y340000D01*
D02*
G37*
G36*
X73000D02*
X65000D01*
Y348000D01*
X73000D01*
Y340000D01*
D02*
G37*
G36*
X310500Y340000D02*
X302500D01*
Y348000D01*
X310500D01*
Y340000D01*
D02*
G37*
G36*
X323000D02*
X315000D01*
Y348000D01*
X323000D01*
Y340000D01*
D02*
G37*
G36*
X223000D02*
X215000D01*
Y348000D01*
X223000D01*
Y340000D01*
D02*
G37*
G36*
X135500Y327500D02*
X127500D01*
Y335500D01*
X135500D01*
Y327500D01*
D02*
G37*
G36*
X148000D02*
X140000D01*
Y335500D01*
X148000D01*
Y327500D01*
D02*
G37*
G36*
X123000D02*
X115000D01*
Y335500D01*
X123000D01*
Y327500D01*
D02*
G37*
G36*
X98000D02*
X90000D01*
Y335500D01*
X98000D01*
Y327500D01*
D02*
G37*
G36*
X110500D02*
X102500D01*
Y335500D01*
X110500D01*
Y327500D01*
D02*
G37*
G36*
X350500D02*
X342500D01*
Y335500D01*
X350500D01*
Y327500D01*
D02*
G37*
G36*
X198000Y340000D02*
X190000D01*
Y348000D01*
X198000D01*
Y340000D01*
D02*
G37*
G36*
X210500D02*
X202500D01*
Y348000D01*
X210500D01*
Y340000D01*
D02*
G37*
G36*
X423750Y335750D02*
X400500D01*
Y338750D01*
X423750D01*
Y335750D01*
D02*
G37*
G36*
X363000Y327500D02*
X355000D01*
Y335500D01*
X363000D01*
Y327500D01*
D02*
G37*
G36*
X379000Y333750D02*
X423750D01*
Y330750D01*
X375000D01*
Y333750D01*
Y337500D01*
X379000D01*
Y333750D01*
D02*
G37*
G36*
X110500Y340000D02*
X102500D01*
Y348000D01*
X110500D01*
Y340000D01*
D02*
G37*
G36*
X285500Y352500D02*
X277500D01*
Y360500D01*
X285500D01*
Y352500D01*
D02*
G37*
G36*
X298000D02*
X290000D01*
Y360500D01*
X298000D01*
Y352500D01*
D02*
G37*
G36*
X273000D02*
X265000D01*
Y360500D01*
X273000D01*
Y352500D01*
D02*
G37*
G36*
X248000D02*
X240000D01*
Y360500D01*
X248000D01*
Y352500D01*
D02*
G37*
G36*
X260500D02*
X252500D01*
Y360500D01*
X260500D01*
Y352500D01*
D02*
G37*
G36*
X310500D02*
X302500D01*
Y360500D01*
X310500D01*
Y352500D01*
D02*
G37*
G36*
X98000Y352500D02*
X90000D01*
Y360500D01*
X98000D01*
Y352500D01*
D02*
G37*
G36*
X110500D02*
X102500D01*
Y360500D01*
X110500D01*
Y352500D01*
D02*
G37*
G36*
X85500D02*
X77500D01*
Y360500D01*
X85500D01*
Y352500D01*
D02*
G37*
G36*
X323000Y352500D02*
X315000D01*
Y360500D01*
X323000D01*
Y352500D01*
D02*
G37*
G36*
X73000Y352500D02*
X65000D01*
Y360500D01*
X73000D01*
Y352500D01*
D02*
G37*
G36*
X235500Y352500D02*
X227500D01*
Y360500D01*
X235500D01*
Y352500D01*
D02*
G37*
G36*
X350500Y340000D02*
X342500D01*
Y348000D01*
X350500D01*
Y340000D01*
D02*
G37*
G36*
X363000D02*
X355000D01*
Y348000D01*
X363000D01*
Y340000D01*
D02*
G37*
G36*
X148000D02*
X140000D01*
Y348000D01*
X148000D01*
Y340000D01*
D02*
G37*
G36*
X123000D02*
X115000D01*
Y348000D01*
X123000D01*
Y340000D01*
D02*
G37*
G36*
X135500D02*
X127500D01*
Y348000D01*
X135500D01*
Y340000D01*
D02*
G37*
G36*
X379000Y343750D02*
X423750D01*
Y340750D01*
X375000D01*
Y347500D01*
X379000D01*
Y343750D01*
D02*
G37*
G36*
X210500Y352500D02*
X202500D01*
Y360500D01*
X210500D01*
Y352500D01*
D02*
G37*
G36*
X223000D02*
X215000D01*
Y360500D01*
X223000D01*
Y352500D01*
D02*
G37*
G36*
X198000D02*
X190000D01*
Y360500D01*
X198000D01*
Y352500D01*
D02*
G37*
G36*
X423750Y345750D02*
X400500D01*
Y348750D01*
X423750D01*
Y345750D01*
D02*
G37*
G36*
X379000Y353750D02*
X423750D01*
Y350750D01*
X375000D01*
Y353750D01*
Y357500D01*
X379000D01*
Y353750D01*
D02*
G37*
G36*
X248000Y315000D02*
X240000D01*
Y323000D01*
X248000D01*
Y315000D01*
D02*
G37*
G36*
X260500D02*
X252500D01*
Y323000D01*
X260500D01*
Y315000D01*
D02*
G37*
G36*
X235500D02*
X227500D01*
Y323000D01*
X235500D01*
Y315000D01*
D02*
G37*
G36*
X210500D02*
X202500D01*
Y323000D01*
X210500D01*
Y315000D01*
D02*
G37*
G36*
X223000D02*
X215000D01*
Y323000D01*
X223000D01*
Y315000D01*
D02*
G37*
G36*
X273000D02*
X265000D01*
Y323000D01*
X273000D01*
Y315000D01*
D02*
G37*
G36*
X323000D02*
X315000D01*
Y323000D01*
X323000D01*
Y315000D01*
D02*
G37*
G36*
X73000Y315000D02*
X65000D01*
Y323000D01*
X73000D01*
Y315000D01*
D02*
G37*
G36*
X310500Y315000D02*
X302500D01*
Y323000D01*
X310500D01*
Y315000D01*
D02*
G37*
G36*
X285500D02*
X277500D01*
Y323000D01*
X285500D01*
Y315000D01*
D02*
G37*
G36*
X298000D02*
X290000D01*
Y323000D01*
X298000D01*
Y315000D01*
D02*
G37*
G36*
X198000D02*
X190000D01*
Y323000D01*
X198000D01*
Y315000D01*
D02*
G37*
G36*
X110500Y302500D02*
X102500D01*
Y310500D01*
X110500D01*
Y302500D01*
D02*
G37*
G36*
X123000D02*
X115000D01*
Y310500D01*
X123000D01*
Y302500D01*
D02*
G37*
G36*
X98000D02*
X90000D01*
Y310500D01*
X98000D01*
Y302500D01*
D02*
G37*
G36*
X73000D02*
X65000D01*
Y310500D01*
X73000D01*
Y302500D01*
D02*
G37*
G36*
X85500D02*
X77500D01*
Y310500D01*
X85500D01*
Y302500D01*
D02*
G37*
G36*
X135500D02*
X127500D01*
Y310500D01*
X135500D01*
Y302500D01*
D02*
G37*
G36*
X423750Y305750D02*
X400500D01*
Y308750D01*
X423750D01*
Y305750D01*
D02*
G37*
G36*
X379000Y313750D02*
X423750D01*
Y310750D01*
X375000D01*
Y313750D01*
Y317500D01*
X379000D01*
Y313750D01*
D02*
G37*
G36*
X363000Y302500D02*
X355000D01*
Y310500D01*
X363000D01*
Y302500D01*
D02*
G37*
G36*
X148000D02*
X140000D01*
Y310500D01*
X148000D01*
Y302500D01*
D02*
G37*
G36*
X350500D02*
X342500D01*
Y310500D01*
X350500D01*
Y302500D01*
D02*
G37*
G36*
X85500Y315000D02*
X77500D01*
Y323000D01*
X85500D01*
Y315000D01*
D02*
G37*
G36*
X260500Y327500D02*
X252500D01*
Y335500D01*
X260500D01*
Y327500D01*
D02*
G37*
G36*
X273000D02*
X265000D01*
Y335500D01*
X273000D01*
Y327500D01*
D02*
G37*
G36*
X248000D02*
X240000D01*
Y335500D01*
X248000D01*
Y327500D01*
D02*
G37*
G36*
X223000D02*
X215000D01*
Y335500D01*
X223000D01*
Y327500D01*
D02*
G37*
G36*
X235500D02*
X227500D01*
Y335500D01*
X235500D01*
Y327500D01*
D02*
G37*
G36*
X285500D02*
X277500D01*
Y335500D01*
X285500D01*
Y327500D01*
D02*
G37*
G36*
X73000Y327500D02*
X65000D01*
Y335500D01*
X73000D01*
Y327500D01*
D02*
G37*
G36*
X85500D02*
X77500D01*
Y335500D01*
X85500D01*
Y327500D01*
D02*
G37*
G36*
X323000Y327500D02*
X315000D01*
Y335500D01*
X323000D01*
Y327500D01*
D02*
G37*
G36*
X298000D02*
X290000D01*
Y335500D01*
X298000D01*
Y327500D01*
D02*
G37*
G36*
X310500D02*
X302500D01*
Y335500D01*
X310500D01*
Y327500D01*
D02*
G37*
G36*
X210500D02*
X202500D01*
Y335500D01*
X210500D01*
Y327500D01*
D02*
G37*
G36*
X135500Y315000D02*
X127500D01*
Y323000D01*
X135500D01*
Y315000D01*
D02*
G37*
G36*
X148000D02*
X140000D01*
Y323000D01*
X148000D01*
Y315000D01*
D02*
G37*
G36*
X123000D02*
X115000D01*
Y323000D01*
X123000D01*
Y315000D01*
D02*
G37*
G36*
X98000D02*
X90000D01*
Y323000D01*
X98000D01*
Y315000D01*
D02*
G37*
G36*
X110500D02*
X102500D01*
Y323000D01*
X110500D01*
Y315000D01*
D02*
G37*
G36*
X350500D02*
X342500D01*
Y323000D01*
X350500D01*
Y315000D01*
D02*
G37*
G36*
X423750Y325750D02*
X400500D01*
Y328750D01*
X423750D01*
Y325750D01*
D02*
G37*
G36*
X198000Y327500D02*
X190000D01*
Y335500D01*
X198000D01*
Y327500D01*
D02*
G37*
G36*
X379000Y323750D02*
X423750D01*
Y320750D01*
X375000D01*
Y323750D01*
Y327500D01*
X379000D01*
Y323750D01*
D02*
G37*
G36*
X363000Y315000D02*
X355000D01*
Y323000D01*
X363000D01*
Y315000D01*
D02*
G37*
G36*
X423750Y315750D02*
X400500D01*
Y318750D01*
X423750D01*
Y315750D01*
D02*
G37*
D10*
X227000Y479000D02*
D03*
X207000D02*
D03*
X187000D02*
D03*
X167000D02*
D03*
X147000D02*
D03*
X127000D02*
D03*
X107000D02*
D03*
X87000D02*
D03*
X67000D02*
D03*
X47000D02*
D03*
D11*
X249800Y478750D02*
D03*
X275200D02*
D03*
X300600D02*
D03*
X326000D02*
D03*
X351400D02*
D03*
X376800D02*
D03*
X402200D02*
D03*
X427600D02*
D03*
X453000D02*
D03*
X453750Y21500D02*
D03*
X428350D02*
D03*
X402950D02*
D03*
X377550D02*
D03*
X352150D02*
D03*
X326750D02*
D03*
X301350D02*
D03*
X275950D02*
D03*
X250550D02*
D03*
D12*
X225000Y20000D02*
D03*
X210000D02*
D03*
X195000D02*
D03*
X180000D02*
D03*
X165000D02*
D03*
X150000D02*
D03*
X135000D02*
D03*
X120000D02*
D03*
X105000D02*
D03*
X90000D02*
D03*
X75000D02*
D03*
X60000D02*
D03*
X45000D02*
D03*
D13*
X478600Y478600D02*
D03*
Y453200D02*
D03*
Y427800D02*
D03*
Y402400D02*
D03*
Y377000D02*
D03*
Y351600D02*
D03*
Y326200D02*
D03*
Y300800D02*
D03*
Y275400D02*
D03*
Y250000D02*
D03*
Y224600D02*
D03*
Y199200D02*
D03*
Y173800D02*
D03*
Y148400D02*
D03*
Y123000D02*
D03*
Y97600D02*
D03*
Y72200D02*
D03*
Y46800D02*
D03*
Y21400D02*
D03*
X21400Y478600D02*
D03*
Y453200D02*
D03*
Y427800D02*
D03*
Y402400D02*
D03*
Y377000D02*
D03*
Y351600D02*
D03*
Y326200D02*
D03*
Y300800D02*
D03*
Y275400D02*
D03*
Y250000D02*
D03*
Y224600D02*
D03*
Y199200D02*
D03*
Y173800D02*
D03*
Y148400D02*
D03*
Y123000D02*
D03*
Y97600D02*
D03*
Y72200D02*
D03*
Y46800D02*
D03*
Y21400D02*
D03*
D14*
X332000Y454250D02*
D03*
Y439176D02*
D03*
Y424102D02*
D03*
Y378880D02*
D03*
Y393954D02*
D03*
Y409028D02*
D03*
Y318583D02*
D03*
Y303509D02*
D03*
Y288435D02*
D03*
Y333657D02*
D03*
Y348732D02*
D03*
Y363806D02*
D03*
Y273361D02*
D03*
Y258287D02*
D03*
Y243213D02*
D03*
Y197991D02*
D03*
Y213065D02*
D03*
Y228139D02*
D03*
Y182917D02*
D03*
Y167843D02*
D03*
Y152769D02*
D03*
Y107547D02*
D03*
Y122621D02*
D03*
Y137695D02*
D03*
Y92472D02*
D03*
Y77398D02*
D03*
Y62324D02*
D03*
Y47250D02*
D03*
X181750Y47250D02*
D03*
Y62324D02*
D03*
Y77398D02*
D03*
Y92472D02*
D03*
Y137694D02*
D03*
Y122620D02*
D03*
Y107546D02*
D03*
Y152768D02*
D03*
Y167843D02*
D03*
Y182917D02*
D03*
Y228139D02*
D03*
Y213065D02*
D03*
Y197991D02*
D03*
Y243213D02*
D03*
Y258287D02*
D03*
Y273361D02*
D03*
Y363805D02*
D03*
Y348731D02*
D03*
Y333657D02*
D03*
Y288435D02*
D03*
Y303509D02*
D03*
Y318583D02*
D03*
Y409027D02*
D03*
Y393953D02*
D03*
Y378879D02*
D03*
Y424101D02*
D03*
Y439176D02*
D03*
Y454250D02*
D03*
D15*
X381000Y245500D02*
D03*
Y235500D02*
D03*
Y225500D02*
D03*
Y215500D02*
D03*
Y205500D02*
D03*
Y195500D02*
D03*
Y185500D02*
D03*
Y175500D02*
D03*
Y165500D02*
D03*
Y155500D02*
D03*
Y145500D02*
D03*
Y135500D02*
D03*
Y125500D02*
D03*
Y115500D02*
D03*
Y105500D02*
D03*
Y95500D02*
D03*
Y75500D02*
D03*
Y85500D02*
D03*
D16*
X412250Y245501D02*
D03*
Y235501D02*
D03*
Y225501D02*
D03*
Y215501D02*
D03*
Y205501D02*
D03*
Y195501D02*
D03*
Y185501D02*
D03*
Y175501D02*
D03*
Y165501D02*
D03*
Y155501D02*
D03*
Y145501D02*
D03*
Y135501D02*
D03*
D03*
Y125501D02*
D03*
Y115501D02*
D03*
Y105501D02*
D03*
Y95501D02*
D03*
Y85501D02*
D03*
Y75501D02*
D03*
D17*
X417750Y252250D02*
D03*
Y277250D02*
D03*
Y267250D02*
D03*
Y272250D02*
D03*
Y257250D02*
D03*
Y262250D02*
D03*
Y302250D02*
D03*
Y292250D02*
D03*
Y297250D02*
D03*
Y282250D02*
D03*
Y287250D02*
D03*
Y327250D02*
D03*
Y317250D02*
D03*
Y322250D02*
D03*
Y307250D02*
D03*
Y312250D02*
D03*
Y352250D02*
D03*
Y342250D02*
D03*
Y347250D02*
D03*
Y332250D02*
D03*
Y337250D02*
D03*
Y377250D02*
D03*
Y367250D02*
D03*
Y372250D02*
D03*
Y357250D02*
D03*
Y362250D02*
D03*
Y387250D02*
D03*
Y382250D02*
D03*
Y397250D02*
D03*
Y392250D02*
D03*
Y407250D02*
D03*
Y402250D02*
D03*
Y412250D02*
D03*
Y417250D02*
D03*
Y422250D02*
D03*
Y427250D02*
D03*
D18*
X393250Y267250D02*
D03*
X375000D02*
D03*
Y257250D02*
D03*
X393250D02*
D03*
Y307250D02*
D03*
X375000D02*
D03*
Y297250D02*
D03*
X393250D02*
D03*
X375000Y287250D02*
D03*
X393250D02*
D03*
X375000Y277250D02*
D03*
X393250D02*
D03*
Y347250D02*
D03*
X375000D02*
D03*
Y337250D02*
D03*
X393250D02*
D03*
X375000Y327250D02*
D03*
X393250D02*
D03*
X375000Y317250D02*
D03*
X393250D02*
D03*
X393000Y387250D02*
D03*
X374750D02*
D03*
Y377250D02*
D03*
X393000D02*
D03*
X374750Y367250D02*
D03*
X393000D02*
D03*
X374750Y357250D02*
D03*
X393000D02*
D03*
Y397250D02*
D03*
X374750D02*
D03*
X393000Y407250D02*
D03*
X374750D02*
D03*
X393000Y417250D02*
D03*
X374750D02*
D03*
Y427250D02*
D03*
X393000D02*
D03*
M02*
