G04 Layer_Color=8388736*
%FSLAX44Y44*%
%MOMM*%
G71*
G01*
G75*
%ADD19P,1.8435X8X22.5*%
%ADD20P,2.3847X8X22.5*%
G04:AMPARAMS|DCode=21|XSize=1.5032mm|YSize=2.2032mm|CornerRadius=0mm|HoleSize=0mm|Usage=FLASHONLY|Rotation=0.000|XOffset=0mm|YOffset=0mm|HoleType=Round|Shape=Octagon|*
%AMOCTAGOND21*
4,1,8,-0.3758,1.1016,0.3758,1.1016,0.7516,0.7258,0.7516,-0.7258,0.3758,-1.1016,-0.3758,-1.1016,-0.7516,-0.7258,-0.7516,0.7258,-0.3758,1.1016,0.0*
%
%ADD21OCTAGOND21*%

%ADD22P,2.3847X8X112.5*%
%ADD23C,1.2032*%
G36*
X323000Y177500D02*
X315000D01*
Y185500D01*
X323000D01*
Y177500D01*
D02*
G37*
G36*
X310500D02*
X302500D01*
Y185500D01*
X310500D01*
Y177500D01*
D02*
G37*
G36*
X360500D02*
X352500D01*
Y185500D01*
X360500D01*
Y177500D01*
D02*
G37*
G36*
X348000D02*
X340000D01*
Y185500D01*
X348000D01*
Y177500D01*
D02*
G37*
G36*
X273000D02*
X265000D01*
Y185500D01*
X273000D01*
Y177500D01*
D02*
G37*
G36*
X260500D02*
X252500D01*
Y185500D01*
X260500D01*
Y177500D01*
D02*
G37*
G36*
X298000D02*
X290000D01*
Y185500D01*
X298000D01*
Y177500D01*
D02*
G37*
G36*
X285500D02*
X277500D01*
Y185500D01*
X285500D01*
Y177500D01*
D02*
G37*
G36*
X373000D02*
X365000D01*
Y185500D01*
X373000D01*
Y177500D01*
D02*
G37*
G36*
X448000D02*
X440000D01*
Y185500D01*
X448000D01*
Y177500D01*
D02*
G37*
G36*
X435500D02*
X427500D01*
Y185500D01*
X435500D01*
Y177500D01*
D02*
G37*
G36*
X48000Y177500D02*
X40000D01*
Y185500D01*
X48000D01*
Y177500D01*
D02*
G37*
G36*
X460500Y177500D02*
X452500D01*
Y185500D01*
X460500D01*
Y177500D01*
D02*
G37*
G36*
X398000D02*
X390000D01*
Y185500D01*
X398000D01*
Y177500D01*
D02*
G37*
G36*
X385500D02*
X377500D01*
Y185500D01*
X385500D01*
Y177500D01*
D02*
G37*
G36*
X423000D02*
X415000D01*
Y185500D01*
X423000D01*
Y177500D01*
D02*
G37*
G36*
X410500D02*
X402500D01*
Y185500D01*
X410500D01*
Y177500D01*
D02*
G37*
G36*
X98000Y165000D02*
X90000D01*
Y173000D01*
X98000D01*
Y165000D01*
D02*
G37*
G36*
X85500D02*
X77500D01*
Y173000D01*
X85500D01*
Y165000D01*
D02*
G37*
G36*
X123000D02*
X115000D01*
Y173000D01*
X123000D01*
Y165000D01*
D02*
G37*
G36*
X110500D02*
X102500D01*
Y173000D01*
X110500D01*
Y165000D01*
D02*
G37*
G36*
X48000D02*
X40000D01*
Y173000D01*
X48000D01*
Y165000D01*
D02*
G37*
G36*
X460500Y165000D02*
X452500D01*
Y173000D01*
X460500D01*
Y165000D01*
D02*
G37*
G36*
X73000Y165000D02*
X65000D01*
Y173000D01*
X73000D01*
Y165000D01*
D02*
G37*
G36*
X60500D02*
X52500D01*
Y173000D01*
X60500D01*
Y165000D01*
D02*
G37*
G36*
X135500D02*
X127500D01*
Y173000D01*
X135500D01*
Y165000D01*
D02*
G37*
G36*
X223000Y177500D02*
X215000D01*
Y185500D01*
X223000D01*
Y177500D01*
D02*
G37*
G36*
X210500D02*
X202500D01*
Y185500D01*
X210500D01*
Y177500D01*
D02*
G37*
G36*
X248000D02*
X240000D01*
Y185500D01*
X248000D01*
Y177500D01*
D02*
G37*
G36*
X235500D02*
X227500D01*
Y185500D01*
X235500D01*
Y177500D01*
D02*
G37*
G36*
X160500Y165000D02*
X152500D01*
Y173000D01*
X160500D01*
Y165000D01*
D02*
G37*
G36*
X148000D02*
X140000D01*
Y173000D01*
X148000D01*
Y165000D01*
D02*
G37*
G36*
X198000Y177500D02*
X190000D01*
Y185500D01*
X198000D01*
Y177500D01*
D02*
G37*
G36*
X173000Y165000D02*
X165000D01*
Y173000D01*
X173000D01*
Y165000D01*
D02*
G37*
G36*
X360500Y190000D02*
X352500D01*
Y198000D01*
X360500D01*
Y190000D01*
D02*
G37*
G36*
X348000D02*
X340000D01*
Y198000D01*
X348000D01*
Y190000D01*
D02*
G37*
G36*
X385500D02*
X377500D01*
Y198000D01*
X385500D01*
Y190000D01*
D02*
G37*
G36*
X373000D02*
X365000D01*
Y198000D01*
X373000D01*
Y190000D01*
D02*
G37*
G36*
X298000D02*
X290000D01*
Y198000D01*
X298000D01*
Y190000D01*
D02*
G37*
G36*
X285500D02*
X277500D01*
Y198000D01*
X285500D01*
Y190000D01*
D02*
G37*
G36*
X323000D02*
X315000D01*
Y198000D01*
X323000D01*
Y190000D01*
D02*
G37*
G36*
X310500D02*
X302500D01*
Y198000D01*
X310500D01*
Y190000D01*
D02*
G37*
G36*
X398000D02*
X390000D01*
Y198000D01*
X398000D01*
Y190000D01*
D02*
G37*
G36*
X48000Y190000D02*
X40000D01*
Y198000D01*
X48000D01*
Y190000D01*
D02*
G37*
G36*
X460500Y190000D02*
X452500D01*
Y198000D01*
X460500D01*
Y190000D01*
D02*
G37*
G36*
X73000Y190000D02*
X65000D01*
Y198000D01*
X73000D01*
Y190000D01*
D02*
G37*
G36*
X60500D02*
X52500D01*
Y198000D01*
X60500D01*
Y190000D01*
D02*
G37*
G36*
X423000Y190000D02*
X415000D01*
Y198000D01*
X423000D01*
Y190000D01*
D02*
G37*
G36*
X410500D02*
X402500D01*
Y198000D01*
X410500D01*
Y190000D01*
D02*
G37*
G36*
X448000D02*
X440000D01*
Y198000D01*
X448000D01*
Y190000D01*
D02*
G37*
G36*
X435500D02*
X427500D01*
Y198000D01*
X435500D01*
Y190000D01*
D02*
G37*
G36*
X123000Y177500D02*
X115000D01*
Y185500D01*
X123000D01*
Y177500D01*
D02*
G37*
G36*
X110500D02*
X102500D01*
Y185500D01*
X110500D01*
Y177500D01*
D02*
G37*
G36*
X148000D02*
X140000D01*
Y185500D01*
X148000D01*
Y177500D01*
D02*
G37*
G36*
X135500D02*
X127500D01*
Y185500D01*
X135500D01*
Y177500D01*
D02*
G37*
G36*
X73000D02*
X65000D01*
Y185500D01*
X73000D01*
Y177500D01*
D02*
G37*
G36*
X60500D02*
X52500D01*
Y185500D01*
X60500D01*
Y177500D01*
D02*
G37*
G36*
X98000D02*
X90000D01*
Y185500D01*
X98000D01*
Y177500D01*
D02*
G37*
G36*
X85500D02*
X77500D01*
Y185500D01*
X85500D01*
Y177500D01*
D02*
G37*
G36*
X160500D02*
X152500D01*
Y185500D01*
X160500D01*
Y177500D01*
D02*
G37*
G36*
X248000Y190000D02*
X240000D01*
Y198000D01*
X248000D01*
Y190000D01*
D02*
G37*
G36*
X235500D02*
X227500D01*
Y198000D01*
X235500D01*
Y190000D01*
D02*
G37*
G36*
X273000D02*
X265000D01*
Y198000D01*
X273000D01*
Y190000D01*
D02*
G37*
G36*
X260500D02*
X252500D01*
Y198000D01*
X260500D01*
Y190000D01*
D02*
G37*
G36*
X198000D02*
X190000D01*
Y198000D01*
X198000D01*
Y190000D01*
D02*
G37*
G36*
X173000Y177500D02*
X165000D01*
Y185500D01*
X173000D01*
Y177500D01*
D02*
G37*
G36*
X223000Y190000D02*
X215000D01*
Y198000D01*
X223000D01*
Y190000D01*
D02*
G37*
G36*
X210500D02*
X202500D01*
Y198000D01*
X210500D01*
Y190000D01*
D02*
G37*
G36*
X273000Y152500D02*
X265000D01*
Y160500D01*
X273000D01*
Y152500D01*
D02*
G37*
G36*
X260500D02*
X252500D01*
Y160500D01*
X260500D01*
Y152500D01*
D02*
G37*
G36*
X298000D02*
X290000D01*
Y160500D01*
X298000D01*
Y152500D01*
D02*
G37*
G36*
X285500D02*
X277500D01*
Y160500D01*
X285500D01*
Y152500D01*
D02*
G37*
G36*
X223000D02*
X215000D01*
Y160500D01*
X223000D01*
Y152500D01*
D02*
G37*
G36*
X210500D02*
X202500D01*
Y160500D01*
X210500D01*
Y152500D01*
D02*
G37*
G36*
X248000D02*
X240000D01*
Y160500D01*
X248000D01*
Y152500D01*
D02*
G37*
G36*
X235500D02*
X227500D01*
Y160500D01*
X235500D01*
Y152500D01*
D02*
G37*
G36*
X310500D02*
X302500D01*
Y160500D01*
X310500D01*
Y152500D01*
D02*
G37*
G36*
X398000D02*
X390000D01*
Y160500D01*
X398000D01*
Y152500D01*
D02*
G37*
G36*
X385500D02*
X377500D01*
Y160500D01*
X385500D01*
Y152500D01*
D02*
G37*
G36*
X423000D02*
X415000D01*
Y160500D01*
X423000D01*
Y152500D01*
D02*
G37*
G36*
X410500D02*
X402500D01*
Y160500D01*
X410500D01*
Y152500D01*
D02*
G37*
G36*
X348000D02*
X340000D01*
Y160500D01*
X348000D01*
Y152500D01*
D02*
G37*
G36*
X323000D02*
X315000D01*
Y160500D01*
X323000D01*
Y152500D01*
D02*
G37*
G36*
X373000D02*
X365000D01*
Y160500D01*
X373000D01*
Y152500D01*
D02*
G37*
G36*
X360500D02*
X352500D01*
Y160500D01*
X360500D01*
Y152500D01*
D02*
G37*
G36*
X48000Y140000D02*
X40000D01*
Y148000D01*
X48000D01*
Y140000D01*
D02*
G37*
G36*
X460500Y140000D02*
X452500D01*
Y148000D01*
X460500D01*
Y140000D01*
D02*
G37*
G36*
X73000Y140000D02*
X65000D01*
Y148000D01*
X73000D01*
Y140000D01*
D02*
G37*
G36*
X60500D02*
X52500D01*
Y148000D01*
X60500D01*
Y140000D01*
D02*
G37*
G36*
X423000Y140000D02*
X415000D01*
Y148000D01*
X423000D01*
Y140000D01*
D02*
G37*
G36*
X410500D02*
X402500D01*
Y148000D01*
X410500D01*
Y140000D01*
D02*
G37*
G36*
X448000D02*
X440000D01*
Y148000D01*
X448000D01*
Y140000D01*
D02*
G37*
G36*
X435500D02*
X427500D01*
Y148000D01*
X435500D01*
Y140000D01*
D02*
G37*
G36*
X85500Y140000D02*
X77500D01*
Y148000D01*
X85500D01*
Y140000D01*
D02*
G37*
G36*
X160500D02*
X152500D01*
Y148000D01*
X160500D01*
Y140000D01*
D02*
G37*
G36*
X148000D02*
X140000D01*
Y148000D01*
X148000D01*
Y140000D01*
D02*
G37*
G36*
X198000Y152500D02*
X190000D01*
Y160500D01*
X198000D01*
Y152500D01*
D02*
G37*
G36*
X173000Y140000D02*
X165000D01*
Y148000D01*
X173000D01*
Y140000D01*
D02*
G37*
G36*
X110500D02*
X102500D01*
Y148000D01*
X110500D01*
Y140000D01*
D02*
G37*
G36*
X98000D02*
X90000D01*
Y148000D01*
X98000D01*
Y140000D01*
D02*
G37*
G36*
X135500D02*
X127500D01*
Y148000D01*
X135500D01*
Y140000D01*
D02*
G37*
G36*
X123000D02*
X115000D01*
Y148000D01*
X123000D01*
Y140000D01*
D02*
G37*
G36*
X298000Y165000D02*
X290000D01*
Y173000D01*
X298000D01*
Y165000D01*
D02*
G37*
G36*
X285500D02*
X277500D01*
Y173000D01*
X285500D01*
Y165000D01*
D02*
G37*
G36*
X323000D02*
X315000D01*
Y173000D01*
X323000D01*
Y165000D01*
D02*
G37*
G36*
X310500D02*
X302500D01*
Y173000D01*
X310500D01*
Y165000D01*
D02*
G37*
G36*
X248000D02*
X240000D01*
Y173000D01*
X248000D01*
Y165000D01*
D02*
G37*
G36*
X235500D02*
X227500D01*
Y173000D01*
X235500D01*
Y165000D01*
D02*
G37*
G36*
X273000D02*
X265000D01*
Y173000D01*
X273000D01*
Y165000D01*
D02*
G37*
G36*
X260500D02*
X252500D01*
Y173000D01*
X260500D01*
Y165000D01*
D02*
G37*
G36*
X348000D02*
X340000D01*
Y173000D01*
X348000D01*
Y165000D01*
D02*
G37*
G36*
X423000D02*
X415000D01*
Y173000D01*
X423000D01*
Y165000D01*
D02*
G37*
G36*
X410500D02*
X402500D01*
Y173000D01*
X410500D01*
Y165000D01*
D02*
G37*
G36*
X448000D02*
X440000D01*
Y173000D01*
X448000D01*
Y165000D01*
D02*
G37*
G36*
X435500D02*
X427500D01*
Y173000D01*
X435500D01*
Y165000D01*
D02*
G37*
G36*
X373000D02*
X365000D01*
Y173000D01*
X373000D01*
Y165000D01*
D02*
G37*
G36*
X360500D02*
X352500D01*
Y173000D01*
X360500D01*
Y165000D01*
D02*
G37*
G36*
X398000D02*
X390000D01*
Y173000D01*
X398000D01*
Y165000D01*
D02*
G37*
G36*
X385500D02*
X377500D01*
Y173000D01*
X385500D01*
Y165000D01*
D02*
G37*
G36*
X73000Y152500D02*
X65000D01*
Y160500D01*
X73000D01*
Y152500D01*
D02*
G37*
G36*
X60500D02*
X52500D01*
Y160500D01*
X60500D01*
Y152500D01*
D02*
G37*
G36*
X98000D02*
X90000D01*
Y160500D01*
X98000D01*
Y152500D01*
D02*
G37*
G36*
X85500D02*
X77500D01*
Y160500D01*
X85500D01*
Y152500D01*
D02*
G37*
G36*
X448000Y152500D02*
X440000D01*
Y160500D01*
X448000D01*
Y152500D01*
D02*
G37*
G36*
X435500D02*
X427500D01*
Y160500D01*
X435500D01*
Y152500D01*
D02*
G37*
G36*
X48000Y152500D02*
X40000D01*
Y160500D01*
X48000D01*
Y152500D01*
D02*
G37*
G36*
X460500Y152500D02*
X452500D01*
Y160500D01*
X460500D01*
Y152500D01*
D02*
G37*
G36*
X110500Y152500D02*
X102500D01*
Y160500D01*
X110500D01*
Y152500D01*
D02*
G37*
G36*
X198000Y165000D02*
X190000D01*
Y173000D01*
X198000D01*
Y165000D01*
D02*
G37*
G36*
X173000Y152500D02*
X165000D01*
Y160500D01*
X173000D01*
Y152500D01*
D02*
G37*
G36*
X223000Y165000D02*
X215000D01*
Y173000D01*
X223000D01*
Y165000D01*
D02*
G37*
G36*
X210500D02*
X202500D01*
Y173000D01*
X210500D01*
Y165000D01*
D02*
G37*
G36*
X135500Y152500D02*
X127500D01*
Y160500D01*
X135500D01*
Y152500D01*
D02*
G37*
G36*
X123000D02*
X115000D01*
Y160500D01*
X123000D01*
Y152500D01*
D02*
G37*
G36*
X160500D02*
X152500D01*
Y160500D01*
X160500D01*
Y152500D01*
D02*
G37*
G36*
X148000D02*
X140000D01*
Y160500D01*
X148000D01*
Y152500D01*
D02*
G37*
G36*
X435500Y227500D02*
X427500D01*
Y235500D01*
X435500D01*
Y227500D01*
D02*
G37*
G36*
X423000D02*
X415000D01*
Y235500D01*
X423000D01*
Y227500D01*
D02*
G37*
G36*
X460500D02*
X452500D01*
Y235500D01*
X460500D01*
Y227500D01*
D02*
G37*
G36*
X448000D02*
X440000D01*
Y235500D01*
X448000D01*
Y227500D01*
D02*
G37*
G36*
X385500D02*
X377500D01*
Y235500D01*
X385500D01*
Y227500D01*
D02*
G37*
G36*
X373000D02*
X365000D01*
Y235500D01*
X373000D01*
Y227500D01*
D02*
G37*
G36*
X410500D02*
X402500D01*
Y235500D01*
X410500D01*
Y227500D01*
D02*
G37*
G36*
X398000D02*
X390000D01*
Y235500D01*
X398000D01*
Y227500D01*
D02*
G37*
G36*
X48000Y227500D02*
X40000D01*
Y235500D01*
X48000D01*
Y227500D01*
D02*
G37*
G36*
X123000D02*
X115000D01*
Y235500D01*
X123000D01*
Y227500D01*
D02*
G37*
G36*
X110500D02*
X102500D01*
Y235500D01*
X110500D01*
Y227500D01*
D02*
G37*
G36*
X148000D02*
X140000D01*
Y235500D01*
X148000D01*
Y227500D01*
D02*
G37*
G36*
X135500D02*
X127500D01*
Y235500D01*
X135500D01*
Y227500D01*
D02*
G37*
G36*
X73000D02*
X65000D01*
Y235500D01*
X73000D01*
Y227500D01*
D02*
G37*
G36*
X60500D02*
X52500D01*
Y235500D01*
X60500D01*
Y227500D01*
D02*
G37*
G36*
X98000D02*
X90000D01*
Y235500D01*
X98000D01*
Y227500D01*
D02*
G37*
G36*
X85500D02*
X77500D01*
Y235500D01*
X85500D01*
Y227500D01*
D02*
G37*
G36*
X210500Y227500D02*
X202500D01*
Y235500D01*
X210500D01*
Y227500D01*
D02*
G37*
G36*
X198000D02*
X190000D01*
Y235500D01*
X198000D01*
Y227500D01*
D02*
G37*
G36*
X235500D02*
X227500D01*
Y235500D01*
X235500D01*
Y227500D01*
D02*
G37*
G36*
X223000D02*
X215000D01*
Y235500D01*
X223000D01*
Y227500D01*
D02*
G37*
G36*
X148000Y215000D02*
X140000D01*
Y223000D01*
X148000D01*
Y215000D01*
D02*
G37*
G36*
X135500D02*
X127500D01*
Y223000D01*
X135500D01*
Y215000D01*
D02*
G37*
G36*
X173000D02*
X165000D01*
Y223000D01*
X173000D01*
Y215000D01*
D02*
G37*
G36*
X160500D02*
X152500D01*
Y223000D01*
X160500D01*
Y215000D01*
D02*
G37*
G36*
X248000Y227500D02*
X240000D01*
Y235500D01*
X248000D01*
Y227500D01*
D02*
G37*
G36*
X323000D02*
X315000D01*
Y235500D01*
X323000D01*
Y227500D01*
D02*
G37*
G36*
X310500D02*
X302500D01*
Y235500D01*
X310500D01*
Y227500D01*
D02*
G37*
G36*
X360500D02*
X352500D01*
Y235500D01*
X360500D01*
Y227500D01*
D02*
G37*
G36*
X348000D02*
X340000D01*
Y235500D01*
X348000D01*
Y227500D01*
D02*
G37*
G36*
X273000D02*
X265000D01*
Y235500D01*
X273000D01*
Y227500D01*
D02*
G37*
G36*
X260500D02*
X252500D01*
Y235500D01*
X260500D01*
Y227500D01*
D02*
G37*
G36*
X298000D02*
X290000D01*
Y235500D01*
X298000D01*
Y227500D01*
D02*
G37*
G36*
X285500D02*
X277500D01*
Y235500D01*
X285500D01*
Y227500D01*
D02*
G37*
G36*
X460500Y240000D02*
X452500D01*
Y248000D01*
X460500D01*
Y240000D01*
D02*
G37*
G36*
X448000D02*
X440000D01*
Y248000D01*
X448000D01*
Y240000D01*
D02*
G37*
G36*
X60500Y240000D02*
X52500D01*
Y248000D01*
X60500D01*
Y240000D01*
D02*
G37*
G36*
X48000D02*
X40000D01*
Y248000D01*
X48000D01*
Y240000D01*
D02*
G37*
G36*
X410500Y240000D02*
X402500D01*
Y248000D01*
X410500D01*
Y240000D01*
D02*
G37*
G36*
X398000D02*
X390000D01*
Y248000D01*
X398000D01*
Y240000D01*
D02*
G37*
G36*
X435500D02*
X427500D01*
Y248000D01*
X435500D01*
Y240000D01*
D02*
G37*
G36*
X423000D02*
X415000D01*
Y248000D01*
X423000D01*
Y240000D01*
D02*
G37*
G36*
X73000Y240000D02*
X65000D01*
Y248000D01*
X73000D01*
Y240000D01*
D02*
G37*
G36*
X148000D02*
X140000D01*
Y248000D01*
X148000D01*
Y240000D01*
D02*
G37*
G36*
X135500D02*
X127500D01*
Y248000D01*
X135500D01*
Y240000D01*
D02*
G37*
G36*
X173000D02*
X165000D01*
Y248000D01*
X173000D01*
Y240000D01*
D02*
G37*
G36*
X160500D02*
X152500D01*
Y248000D01*
X160500D01*
Y240000D01*
D02*
G37*
G36*
X98000D02*
X90000D01*
Y248000D01*
X98000D01*
Y240000D01*
D02*
G37*
G36*
X85500D02*
X77500D01*
Y248000D01*
X85500D01*
Y240000D01*
D02*
G37*
G36*
X123000D02*
X115000D01*
Y248000D01*
X123000D01*
Y240000D01*
D02*
G37*
G36*
X110500D02*
X102500D01*
Y248000D01*
X110500D01*
Y240000D01*
D02*
G37*
G36*
X235500Y240000D02*
X227500D01*
Y248000D01*
X235500D01*
Y240000D01*
D02*
G37*
G36*
X223000D02*
X215000D01*
Y248000D01*
X223000D01*
Y240000D01*
D02*
G37*
G36*
X260500D02*
X252500D01*
Y248000D01*
X260500D01*
Y240000D01*
D02*
G37*
G36*
X248000D02*
X240000D01*
Y248000D01*
X248000D01*
Y240000D01*
D02*
G37*
G36*
X173000Y227500D02*
X165000D01*
Y235500D01*
X173000D01*
Y227500D01*
D02*
G37*
G36*
X160500D02*
X152500D01*
Y235500D01*
X160500D01*
Y227500D01*
D02*
G37*
G36*
X210500Y240000D02*
X202500D01*
Y248000D01*
X210500D01*
Y240000D01*
D02*
G37*
G36*
X198000D02*
X190000D01*
Y248000D01*
X198000D01*
Y240000D01*
D02*
G37*
G36*
X273000D02*
X265000D01*
Y248000D01*
X273000D01*
Y240000D01*
D02*
G37*
G36*
X360500D02*
X352500D01*
Y248000D01*
X360500D01*
Y240000D01*
D02*
G37*
G36*
X348000D02*
X340000D01*
Y248000D01*
X348000D01*
Y240000D01*
D02*
G37*
G36*
X385500D02*
X377500D01*
Y248000D01*
X385500D01*
Y240000D01*
D02*
G37*
G36*
X373000D02*
X365000D01*
Y248000D01*
X373000D01*
Y240000D01*
D02*
G37*
G36*
X298000D02*
X290000D01*
Y248000D01*
X298000D01*
Y240000D01*
D02*
G37*
G36*
X285500D02*
X277500D01*
Y248000D01*
X285500D01*
Y240000D01*
D02*
G37*
G36*
X323000D02*
X315000D01*
Y248000D01*
X323000D01*
Y240000D01*
D02*
G37*
G36*
X310500D02*
X302500D01*
Y248000D01*
X310500D01*
Y240000D01*
D02*
G37*
G36*
X385500Y202500D02*
X377500D01*
Y210500D01*
X385500D01*
Y202500D01*
D02*
G37*
G36*
X373000D02*
X365000D01*
Y210500D01*
X373000D01*
Y202500D01*
D02*
G37*
G36*
X410500D02*
X402500D01*
Y210500D01*
X410500D01*
Y202500D01*
D02*
G37*
G36*
X398000D02*
X390000D01*
Y210500D01*
X398000D01*
Y202500D01*
D02*
G37*
G36*
X323000D02*
X315000D01*
Y210500D01*
X323000D01*
Y202500D01*
D02*
G37*
G36*
X310500D02*
X302500D01*
Y210500D01*
X310500D01*
Y202500D01*
D02*
G37*
G36*
X360500D02*
X352500D01*
Y210500D01*
X360500D01*
Y202500D01*
D02*
G37*
G36*
X348000D02*
X340000D01*
Y210500D01*
X348000D01*
Y202500D01*
D02*
G37*
G36*
X423000D02*
X415000D01*
Y210500D01*
X423000D01*
Y202500D01*
D02*
G37*
G36*
X73000Y202500D02*
X65000D01*
Y210500D01*
X73000D01*
Y202500D01*
D02*
G37*
G36*
X60500D02*
X52500D01*
Y210500D01*
X60500D01*
Y202500D01*
D02*
G37*
G36*
X98000D02*
X90000D01*
Y210500D01*
X98000D01*
Y202500D01*
D02*
G37*
G36*
X85500D02*
X77500D01*
Y210500D01*
X85500D01*
Y202500D01*
D02*
G37*
G36*
X448000Y202500D02*
X440000D01*
Y210500D01*
X448000D01*
Y202500D01*
D02*
G37*
G36*
X435500D02*
X427500D01*
Y210500D01*
X435500D01*
Y202500D01*
D02*
G37*
G36*
X48000Y202500D02*
X40000D01*
Y210500D01*
X48000D01*
Y202500D01*
D02*
G37*
G36*
X460500Y202500D02*
X452500D01*
Y210500D01*
X460500D01*
Y202500D01*
D02*
G37*
G36*
X148000Y190000D02*
X140000D01*
Y198000D01*
X148000D01*
Y190000D01*
D02*
G37*
G36*
X135500D02*
X127500D01*
Y198000D01*
X135500D01*
Y190000D01*
D02*
G37*
G36*
X173000D02*
X165000D01*
Y198000D01*
X173000D01*
Y190000D01*
D02*
G37*
G36*
X160500D02*
X152500D01*
Y198000D01*
X160500D01*
Y190000D01*
D02*
G37*
G36*
X98000D02*
X90000D01*
Y198000D01*
X98000D01*
Y190000D01*
D02*
G37*
G36*
X85500D02*
X77500D01*
Y198000D01*
X85500D01*
Y190000D01*
D02*
G37*
G36*
X123000D02*
X115000D01*
Y198000D01*
X123000D01*
Y190000D01*
D02*
G37*
G36*
X110500D02*
X102500D01*
Y198000D01*
X110500D01*
Y190000D01*
D02*
G37*
G36*
X198000Y202500D02*
X190000D01*
Y210500D01*
X198000D01*
Y202500D01*
D02*
G37*
G36*
X273000D02*
X265000D01*
Y210500D01*
X273000D01*
Y202500D01*
D02*
G37*
G36*
X260500D02*
X252500D01*
Y210500D01*
X260500D01*
Y202500D01*
D02*
G37*
G36*
X298000D02*
X290000D01*
Y210500D01*
X298000D01*
Y202500D01*
D02*
G37*
G36*
X285500D02*
X277500D01*
Y210500D01*
X285500D01*
Y202500D01*
D02*
G37*
G36*
X223000D02*
X215000D01*
Y210500D01*
X223000D01*
Y202500D01*
D02*
G37*
G36*
X210500D02*
X202500D01*
Y210500D01*
X210500D01*
Y202500D01*
D02*
G37*
G36*
X248000D02*
X240000D01*
Y210500D01*
X248000D01*
Y202500D01*
D02*
G37*
G36*
X235500D02*
X227500D01*
Y210500D01*
X235500D01*
Y202500D01*
D02*
G37*
G36*
X410500Y215000D02*
X402500D01*
Y223000D01*
X410500D01*
Y215000D01*
D02*
G37*
G36*
X398000D02*
X390000D01*
Y223000D01*
X398000D01*
Y215000D01*
D02*
G37*
G36*
X435500D02*
X427500D01*
Y223000D01*
X435500D01*
Y215000D01*
D02*
G37*
G36*
X423000D02*
X415000D01*
Y223000D01*
X423000D01*
Y215000D01*
D02*
G37*
G36*
X360500D02*
X352500D01*
Y223000D01*
X360500D01*
Y215000D01*
D02*
G37*
G36*
X348000D02*
X340000D01*
Y223000D01*
X348000D01*
Y215000D01*
D02*
G37*
G36*
X385500D02*
X377500D01*
Y223000D01*
X385500D01*
Y215000D01*
D02*
G37*
G36*
X373000D02*
X365000D01*
Y223000D01*
X373000D01*
Y215000D01*
D02*
G37*
G36*
X448000D02*
X440000D01*
Y223000D01*
X448000D01*
Y215000D01*
D02*
G37*
G36*
X98000Y215000D02*
X90000D01*
Y223000D01*
X98000D01*
Y215000D01*
D02*
G37*
G36*
X85500D02*
X77500D01*
Y223000D01*
X85500D01*
Y215000D01*
D02*
G37*
G36*
X123000D02*
X115000D01*
Y223000D01*
X123000D01*
Y215000D01*
D02*
G37*
G36*
X110500D02*
X102500D01*
Y223000D01*
X110500D01*
Y215000D01*
D02*
G37*
G36*
X48000D02*
X40000D01*
Y223000D01*
X48000D01*
Y215000D01*
D02*
G37*
G36*
X460500Y215000D02*
X452500D01*
Y223000D01*
X460500D01*
Y215000D01*
D02*
G37*
G36*
X73000Y215000D02*
X65000D01*
Y223000D01*
X73000D01*
Y215000D01*
D02*
G37*
G36*
X60500D02*
X52500D01*
Y223000D01*
X60500D01*
Y215000D01*
D02*
G37*
G36*
X173000Y202500D02*
X165000D01*
Y210500D01*
X173000D01*
Y202500D01*
D02*
G37*
G36*
X160500D02*
X152500D01*
Y210500D01*
X160500D01*
Y202500D01*
D02*
G37*
G36*
X210500Y215000D02*
X202500D01*
Y223000D01*
X210500D01*
Y215000D01*
D02*
G37*
G36*
X198000D02*
X190000D01*
Y223000D01*
X198000D01*
Y215000D01*
D02*
G37*
G36*
X123000Y202500D02*
X115000D01*
Y210500D01*
X123000D01*
Y202500D01*
D02*
G37*
G36*
X110500D02*
X102500D01*
Y210500D01*
X110500D01*
Y202500D01*
D02*
G37*
G36*
X148000D02*
X140000D01*
Y210500D01*
X148000D01*
Y202500D01*
D02*
G37*
G36*
X135500D02*
X127500D01*
Y210500D01*
X135500D01*
Y202500D01*
D02*
G37*
G36*
X223000Y215000D02*
X215000D01*
Y223000D01*
X223000D01*
Y215000D01*
D02*
G37*
G36*
X298000D02*
X290000D01*
Y223000D01*
X298000D01*
Y215000D01*
D02*
G37*
G36*
X285500D02*
X277500D01*
Y223000D01*
X285500D01*
Y215000D01*
D02*
G37*
G36*
X323000D02*
X315000D01*
Y223000D01*
X323000D01*
Y215000D01*
D02*
G37*
G36*
X310500D02*
X302500D01*
Y223000D01*
X310500D01*
Y215000D01*
D02*
G37*
G36*
X248000D02*
X240000D01*
Y223000D01*
X248000D01*
Y215000D01*
D02*
G37*
G36*
X235500D02*
X227500D01*
Y223000D01*
X235500D01*
Y215000D01*
D02*
G37*
G36*
X273000D02*
X265000D01*
Y223000D01*
X273000D01*
Y215000D01*
D02*
G37*
G36*
X260500D02*
X252500D01*
Y223000D01*
X260500D01*
Y215000D01*
D02*
G37*
G36*
X110500Y65000D02*
X102500D01*
Y73000D01*
X110500D01*
Y65000D01*
D02*
G37*
G36*
X98000D02*
X90000D01*
Y73000D01*
X98000D01*
Y65000D01*
D02*
G37*
G36*
X135500D02*
X127500D01*
Y73000D01*
X135500D01*
Y65000D01*
D02*
G37*
G36*
X123000D02*
X115000D01*
Y73000D01*
X123000D01*
Y65000D01*
D02*
G37*
G36*
X60500D02*
X52500D01*
Y73000D01*
X60500D01*
Y65000D01*
D02*
G37*
G36*
X48000D02*
X40000D01*
Y73000D01*
X48000D01*
Y65000D01*
D02*
G37*
G36*
X85500D02*
X77500D01*
Y73000D01*
X85500D01*
Y65000D01*
D02*
G37*
G36*
X73000D02*
X65000D01*
Y73000D01*
X73000D01*
Y65000D01*
D02*
G37*
G36*
X148000D02*
X140000D01*
Y73000D01*
X148000D01*
Y65000D01*
D02*
G37*
G36*
X235500Y77500D02*
X227500D01*
Y85500D01*
X235500D01*
Y77500D01*
D02*
G37*
G36*
X223000D02*
X215000D01*
Y85500D01*
X223000D01*
Y77500D01*
D02*
G37*
G36*
X260500D02*
X252500D01*
Y85500D01*
X260500D01*
Y77500D01*
D02*
G37*
G36*
X248000D02*
X240000D01*
Y85500D01*
X248000D01*
Y77500D01*
D02*
G37*
G36*
X173000Y65000D02*
X165000D01*
Y73000D01*
X173000D01*
Y65000D01*
D02*
G37*
G36*
X160500D02*
X152500D01*
Y73000D01*
X160500D01*
Y65000D01*
D02*
G37*
G36*
X210500Y77500D02*
X202500D01*
Y85500D01*
X210500D01*
Y77500D01*
D02*
G37*
G36*
X198000D02*
X190000D01*
Y85500D01*
X198000D01*
Y77500D01*
D02*
G37*
G36*
X310500Y65000D02*
X302500D01*
Y73000D01*
X310500D01*
Y65000D01*
D02*
G37*
G36*
X298000D02*
X290000D01*
Y73000D01*
X298000D01*
Y65000D01*
D02*
G37*
G36*
X348000D02*
X340000D01*
Y73000D01*
X348000D01*
Y65000D01*
D02*
G37*
G36*
X323000D02*
X315000D01*
Y73000D01*
X323000D01*
Y65000D01*
D02*
G37*
G36*
X260500D02*
X252500D01*
Y73000D01*
X260500D01*
Y65000D01*
D02*
G37*
G36*
X248000D02*
X240000D01*
Y73000D01*
X248000D01*
Y65000D01*
D02*
G37*
G36*
X285500D02*
X277500D01*
Y73000D01*
X285500D01*
Y65000D01*
D02*
G37*
G36*
X273000D02*
X265000D01*
Y73000D01*
X273000D01*
Y65000D01*
D02*
G37*
G36*
X360500D02*
X352500D01*
Y73000D01*
X360500D01*
Y65000D01*
D02*
G37*
G36*
X435500D02*
X427500D01*
Y73000D01*
X435500D01*
Y65000D01*
D02*
G37*
G36*
X423000D02*
X415000D01*
Y73000D01*
X423000D01*
Y65000D01*
D02*
G37*
G36*
X460500D02*
X452500D01*
Y73000D01*
X460500D01*
Y65000D01*
D02*
G37*
G36*
X448000D02*
X440000D01*
Y73000D01*
X448000D01*
Y65000D01*
D02*
G37*
G36*
X385500D02*
X377500D01*
Y73000D01*
X385500D01*
Y65000D01*
D02*
G37*
G36*
X373000D02*
X365000D01*
Y73000D01*
X373000D01*
Y65000D01*
D02*
G37*
G36*
X410500D02*
X402500D01*
Y73000D01*
X410500D01*
Y65000D01*
D02*
G37*
G36*
X398000D02*
X390000D01*
Y73000D01*
X398000D01*
Y65000D01*
D02*
G37*
G36*
X135500Y77500D02*
X127500D01*
Y85500D01*
X135500D01*
Y77500D01*
D02*
G37*
G36*
X123000D02*
X115000D01*
Y85500D01*
X123000D01*
Y77500D01*
D02*
G37*
G36*
X160500D02*
X152500D01*
Y85500D01*
X160500D01*
Y77500D01*
D02*
G37*
G36*
X148000D02*
X140000D01*
Y85500D01*
X148000D01*
Y77500D01*
D02*
G37*
G36*
X85500D02*
X77500D01*
Y85500D01*
X85500D01*
Y77500D01*
D02*
G37*
G36*
X73000D02*
X65000D01*
Y85500D01*
X73000D01*
Y77500D01*
D02*
G37*
G36*
X110500D02*
X102500D01*
Y85500D01*
X110500D01*
Y77500D01*
D02*
G37*
G36*
X98000D02*
X90000D01*
Y85500D01*
X98000D01*
Y77500D01*
D02*
G37*
G36*
X173000D02*
X165000D01*
Y85500D01*
X173000D01*
Y77500D01*
D02*
G37*
G36*
X260500Y90000D02*
X252500D01*
Y98000D01*
X260500D01*
Y90000D01*
D02*
G37*
G36*
X248000D02*
X240000D01*
Y98000D01*
X248000D01*
Y90000D01*
D02*
G37*
G36*
X285500D02*
X277500D01*
Y98000D01*
X285500D01*
Y90000D01*
D02*
G37*
G36*
X273000D02*
X265000D01*
Y98000D01*
X273000D01*
Y90000D01*
D02*
G37*
G36*
X210500D02*
X202500D01*
Y98000D01*
X210500D01*
Y90000D01*
D02*
G37*
G36*
X198000D02*
X190000D01*
Y98000D01*
X198000D01*
Y90000D01*
D02*
G37*
G36*
X235500D02*
X227500D01*
Y98000D01*
X235500D01*
Y90000D01*
D02*
G37*
G36*
X223000D02*
X215000D01*
Y98000D01*
X223000D01*
Y90000D01*
D02*
G37*
G36*
X348000Y77500D02*
X340000D01*
Y85500D01*
X348000D01*
Y77500D01*
D02*
G37*
G36*
X323000D02*
X315000D01*
Y85500D01*
X323000D01*
Y77500D01*
D02*
G37*
G36*
X373000D02*
X365000D01*
Y85500D01*
X373000D01*
Y77500D01*
D02*
G37*
G36*
X360500D02*
X352500D01*
Y85500D01*
X360500D01*
Y77500D01*
D02*
G37*
G36*
X285500D02*
X277500D01*
Y85500D01*
X285500D01*
Y77500D01*
D02*
G37*
G36*
X273000D02*
X265000D01*
Y85500D01*
X273000D01*
Y77500D01*
D02*
G37*
G36*
X310500D02*
X302500D01*
Y85500D01*
X310500D01*
Y77500D01*
D02*
G37*
G36*
X298000D02*
X290000D01*
Y85500D01*
X298000D01*
Y77500D01*
D02*
G37*
G36*
X385500D02*
X377500D01*
Y85500D01*
X385500D01*
Y77500D01*
D02*
G37*
G36*
X460500D02*
X452500D01*
Y85500D01*
X460500D01*
Y77500D01*
D02*
G37*
G36*
X448000D02*
X440000D01*
Y85500D01*
X448000D01*
Y77500D01*
D02*
G37*
G36*
X60500Y77500D02*
X52500D01*
Y85500D01*
X60500D01*
Y77500D01*
D02*
G37*
G36*
X48000D02*
X40000D01*
Y85500D01*
X48000D01*
Y77500D01*
D02*
G37*
G36*
X410500Y77500D02*
X402500D01*
Y85500D01*
X410500D01*
Y77500D01*
D02*
G37*
G36*
X398000D02*
X390000D01*
Y85500D01*
X398000D01*
Y77500D01*
D02*
G37*
G36*
X435500D02*
X427500D01*
Y85500D01*
X435500D01*
Y77500D01*
D02*
G37*
G36*
X423000D02*
X415000D01*
Y85500D01*
X423000D01*
Y77500D01*
D02*
G37*
G36*
X60500Y40000D02*
X52500D01*
Y48000D01*
X60500D01*
Y40000D01*
D02*
G37*
G36*
X48000D02*
X40000D01*
Y48000D01*
X48000D01*
Y40000D01*
D02*
G37*
G36*
X85500D02*
X77500D01*
Y48000D01*
X85500D01*
Y40000D01*
D02*
G37*
G36*
X73000D02*
X65000D01*
Y48000D01*
X73000D01*
Y40000D01*
D02*
G37*
G36*
X435500Y40000D02*
X427500D01*
Y48000D01*
X435500D01*
Y40000D01*
D02*
G37*
G36*
X423000D02*
X415000D01*
Y48000D01*
X423000D01*
Y40000D01*
D02*
G37*
G36*
X460500D02*
X452500D01*
Y48000D01*
X460500D01*
Y40000D01*
D02*
G37*
G36*
X448000D02*
X440000D01*
Y48000D01*
X448000D01*
Y40000D01*
D02*
G37*
G36*
X98000Y40000D02*
X90000D01*
Y48000D01*
X98000D01*
Y40000D01*
D02*
G37*
G36*
X173000D02*
X165000D01*
Y48000D01*
X173000D01*
Y40000D01*
D02*
G37*
G36*
X160500D02*
X152500D01*
Y48000D01*
X160500D01*
Y40000D01*
D02*
G37*
G36*
X210500Y52500D02*
X202500D01*
Y60500D01*
X210500D01*
Y52500D01*
D02*
G37*
G36*
X198000D02*
X190000D01*
Y60500D01*
X198000D01*
Y52500D01*
D02*
G37*
G36*
X123000Y40000D02*
X115000D01*
Y48000D01*
X123000D01*
Y40000D01*
D02*
G37*
G36*
X110500D02*
X102500D01*
Y48000D01*
X110500D01*
Y40000D01*
D02*
G37*
G36*
X148000D02*
X140000D01*
Y48000D01*
X148000D01*
Y40000D01*
D02*
G37*
G36*
X135500D02*
X127500D01*
Y48000D01*
X135500D01*
Y40000D01*
D02*
G37*
G36*
X260500Y40000D02*
X252500D01*
Y48000D01*
X260500D01*
Y40000D01*
D02*
G37*
G36*
X248000D02*
X240000D01*
Y48000D01*
X248000D01*
Y40000D01*
D02*
G37*
G36*
X285500D02*
X277500D01*
Y48000D01*
X285500D01*
Y40000D01*
D02*
G37*
G36*
X273000D02*
X265000D01*
Y48000D01*
X273000D01*
Y40000D01*
D02*
G37*
G36*
X210500D02*
X202500D01*
Y48000D01*
X210500D01*
Y40000D01*
D02*
G37*
G36*
X198000D02*
X190000D01*
Y48000D01*
X198000D01*
Y40000D01*
D02*
G37*
G36*
X235500D02*
X227500D01*
Y48000D01*
X235500D01*
Y40000D01*
D02*
G37*
G36*
X223000D02*
X215000D01*
Y48000D01*
X223000D01*
Y40000D01*
D02*
G37*
G36*
X298000D02*
X290000D01*
Y48000D01*
X298000D01*
Y40000D01*
D02*
G37*
G36*
X385500D02*
X377500D01*
Y48000D01*
X385500D01*
Y40000D01*
D02*
G37*
G36*
X373000D02*
X365000D01*
Y48000D01*
X373000D01*
Y40000D01*
D02*
G37*
G36*
X410500D02*
X402500D01*
Y48000D01*
X410500D01*
Y40000D01*
D02*
G37*
G36*
X398000D02*
X390000D01*
Y48000D01*
X398000D01*
Y40000D01*
D02*
G37*
G36*
X323000D02*
X315000D01*
Y48000D01*
X323000D01*
Y40000D01*
D02*
G37*
G36*
X310500D02*
X302500D01*
Y48000D01*
X310500D01*
Y40000D01*
D02*
G37*
G36*
X360500D02*
X352500D01*
Y48000D01*
X360500D01*
Y40000D01*
D02*
G37*
G36*
X348000D02*
X340000D01*
Y48000D01*
X348000D01*
Y40000D01*
D02*
G37*
G36*
X85500Y52500D02*
X77500D01*
Y60500D01*
X85500D01*
Y52500D01*
D02*
G37*
G36*
X73000D02*
X65000D01*
Y60500D01*
X73000D01*
Y52500D01*
D02*
G37*
G36*
X110500D02*
X102500D01*
Y60500D01*
X110500D01*
Y52500D01*
D02*
G37*
G36*
X98000D02*
X90000D01*
Y60500D01*
X98000D01*
Y52500D01*
D02*
G37*
G36*
X460500Y52500D02*
X452500D01*
Y60500D01*
X460500D01*
Y52500D01*
D02*
G37*
G36*
X448000D02*
X440000D01*
Y60500D01*
X448000D01*
Y52500D01*
D02*
G37*
G36*
X60500Y52500D02*
X52500D01*
Y60500D01*
X60500D01*
Y52500D01*
D02*
G37*
G36*
X48000D02*
X40000D01*
Y60500D01*
X48000D01*
Y52500D01*
D02*
G37*
G36*
X123000D02*
X115000D01*
Y60500D01*
X123000D01*
Y52500D01*
D02*
G37*
G36*
X210500Y65000D02*
X202500D01*
Y73000D01*
X210500D01*
Y65000D01*
D02*
G37*
G36*
X198000D02*
X190000D01*
Y73000D01*
X198000D01*
Y65000D01*
D02*
G37*
G36*
X235500D02*
X227500D01*
Y73000D01*
X235500D01*
Y65000D01*
D02*
G37*
G36*
X223000D02*
X215000D01*
Y73000D01*
X223000D01*
Y65000D01*
D02*
G37*
G36*
X148000Y52500D02*
X140000D01*
Y60500D01*
X148000D01*
Y52500D01*
D02*
G37*
G36*
X135500D02*
X127500D01*
Y60500D01*
X135500D01*
Y52500D01*
D02*
G37*
G36*
X173000D02*
X165000D01*
Y60500D01*
X173000D01*
Y52500D01*
D02*
G37*
G36*
X160500D02*
X152500D01*
Y60500D01*
X160500D01*
Y52500D01*
D02*
G37*
G36*
X285500Y52500D02*
X277500D01*
Y60500D01*
X285500D01*
Y52500D01*
D02*
G37*
G36*
X273000D02*
X265000D01*
Y60500D01*
X273000D01*
Y52500D01*
D02*
G37*
G36*
X310500D02*
X302500D01*
Y60500D01*
X310500D01*
Y52500D01*
D02*
G37*
G36*
X298000D02*
X290000D01*
Y60500D01*
X298000D01*
Y52500D01*
D02*
G37*
G36*
X235500D02*
X227500D01*
Y60500D01*
X235500D01*
Y52500D01*
D02*
G37*
G36*
X223000D02*
X215000D01*
Y60500D01*
X223000D01*
Y52500D01*
D02*
G37*
G36*
X260500D02*
X252500D01*
Y60500D01*
X260500D01*
Y52500D01*
D02*
G37*
G36*
X248000D02*
X240000D01*
Y60500D01*
X248000D01*
Y52500D01*
D02*
G37*
G36*
X323000D02*
X315000D01*
Y60500D01*
X323000D01*
Y52500D01*
D02*
G37*
G36*
X410500D02*
X402500D01*
Y60500D01*
X410500D01*
Y52500D01*
D02*
G37*
G36*
X398000D02*
X390000D01*
Y60500D01*
X398000D01*
Y52500D01*
D02*
G37*
G36*
X435500D02*
X427500D01*
Y60500D01*
X435500D01*
Y52500D01*
D02*
G37*
G36*
X423000D02*
X415000D01*
Y60500D01*
X423000D01*
Y52500D01*
D02*
G37*
G36*
X360500D02*
X352500D01*
Y60500D01*
X360500D01*
Y52500D01*
D02*
G37*
G36*
X348000D02*
X340000D01*
Y60500D01*
X348000D01*
Y52500D01*
D02*
G37*
G36*
X385500D02*
X377500D01*
Y60500D01*
X385500D01*
Y52500D01*
D02*
G37*
G36*
X373000D02*
X365000D01*
Y60500D01*
X373000D01*
Y52500D01*
D02*
G37*
G36*
X223000Y127500D02*
X215000D01*
Y135500D01*
X223000D01*
Y127500D01*
D02*
G37*
G36*
X210500D02*
X202500D01*
Y135500D01*
X210500D01*
Y127500D01*
D02*
G37*
G36*
X248000D02*
X240000D01*
Y135500D01*
X248000D01*
Y127500D01*
D02*
G37*
G36*
X235500D02*
X227500D01*
Y135500D01*
X235500D01*
Y127500D01*
D02*
G37*
G36*
X160500Y115000D02*
X152500D01*
Y123000D01*
X160500D01*
Y115000D01*
D02*
G37*
G36*
X148000D02*
X140000D01*
Y123000D01*
X148000D01*
Y115000D01*
D02*
G37*
G36*
X198000Y127500D02*
X190000D01*
Y135500D01*
X198000D01*
Y127500D01*
D02*
G37*
G36*
X173000Y115000D02*
X165000D01*
Y123000D01*
X173000D01*
Y115000D01*
D02*
G37*
G36*
X260500Y127500D02*
X252500D01*
Y135500D01*
X260500D01*
Y127500D01*
D02*
G37*
G36*
X348000D02*
X340000D01*
Y135500D01*
X348000D01*
Y127500D01*
D02*
G37*
G36*
X323000D02*
X315000D01*
Y135500D01*
X323000D01*
Y127500D01*
D02*
G37*
G36*
X373000D02*
X365000D01*
Y135500D01*
X373000D01*
Y127500D01*
D02*
G37*
G36*
X360500D02*
X352500D01*
Y135500D01*
X360500D01*
Y127500D01*
D02*
G37*
G36*
X285500D02*
X277500D01*
Y135500D01*
X285500D01*
Y127500D01*
D02*
G37*
G36*
X273000D02*
X265000D01*
Y135500D01*
X273000D01*
Y127500D01*
D02*
G37*
G36*
X310500D02*
X302500D01*
Y135500D01*
X310500D01*
Y127500D01*
D02*
G37*
G36*
X298000D02*
X290000D01*
Y135500D01*
X298000D01*
Y127500D01*
D02*
G37*
G36*
X423000Y115000D02*
X415000D01*
Y123000D01*
X423000D01*
Y115000D01*
D02*
G37*
G36*
X410500D02*
X402500D01*
Y123000D01*
X410500D01*
Y115000D01*
D02*
G37*
G36*
X448000D02*
X440000D01*
Y123000D01*
X448000D01*
Y115000D01*
D02*
G37*
G36*
X435500D02*
X427500D01*
Y123000D01*
X435500D01*
Y115000D01*
D02*
G37*
G36*
X373000D02*
X365000D01*
Y123000D01*
X373000D01*
Y115000D01*
D02*
G37*
G36*
X360500D02*
X352500D01*
Y123000D01*
X360500D01*
Y115000D01*
D02*
G37*
G36*
X398000D02*
X390000D01*
Y123000D01*
X398000D01*
Y115000D01*
D02*
G37*
G36*
X385500D02*
X377500D01*
Y123000D01*
X385500D01*
Y115000D01*
D02*
G37*
G36*
X460500D02*
X452500D01*
Y123000D01*
X460500D01*
Y115000D01*
D02*
G37*
G36*
X110500Y115000D02*
X102500D01*
Y123000D01*
X110500D01*
Y115000D01*
D02*
G37*
G36*
X98000D02*
X90000D01*
Y123000D01*
X98000D01*
Y115000D01*
D02*
G37*
G36*
X135500D02*
X127500D01*
Y123000D01*
X135500D01*
Y115000D01*
D02*
G37*
G36*
X123000D02*
X115000D01*
Y123000D01*
X123000D01*
Y115000D01*
D02*
G37*
G36*
X60500D02*
X52500D01*
Y123000D01*
X60500D01*
Y115000D01*
D02*
G37*
G36*
X48000D02*
X40000D01*
Y123000D01*
X48000D01*
Y115000D01*
D02*
G37*
G36*
X85500D02*
X77500D01*
Y123000D01*
X85500D01*
Y115000D01*
D02*
G37*
G36*
X73000D02*
X65000D01*
Y123000D01*
X73000D01*
Y115000D01*
D02*
G37*
G36*
X248000Y140000D02*
X240000D01*
Y148000D01*
X248000D01*
Y140000D01*
D02*
G37*
G36*
X235500D02*
X227500D01*
Y148000D01*
X235500D01*
Y140000D01*
D02*
G37*
G36*
X273000D02*
X265000D01*
Y148000D01*
X273000D01*
Y140000D01*
D02*
G37*
G36*
X260500D02*
X252500D01*
Y148000D01*
X260500D01*
Y140000D01*
D02*
G37*
G36*
X198000D02*
X190000D01*
Y148000D01*
X198000D01*
Y140000D01*
D02*
G37*
G36*
X173000Y127500D02*
X165000D01*
Y135500D01*
X173000D01*
Y127500D01*
D02*
G37*
G36*
X223000Y140000D02*
X215000D01*
Y148000D01*
X223000D01*
Y140000D01*
D02*
G37*
G36*
X210500D02*
X202500D01*
Y148000D01*
X210500D01*
Y140000D01*
D02*
G37*
G36*
X285500D02*
X277500D01*
Y148000D01*
X285500D01*
Y140000D01*
D02*
G37*
G36*
X373000D02*
X365000D01*
Y148000D01*
X373000D01*
Y140000D01*
D02*
G37*
G36*
X360500D02*
X352500D01*
Y148000D01*
X360500D01*
Y140000D01*
D02*
G37*
G36*
X398000D02*
X390000D01*
Y148000D01*
X398000D01*
Y140000D01*
D02*
G37*
G36*
X385500D02*
X377500D01*
Y148000D01*
X385500D01*
Y140000D01*
D02*
G37*
G36*
X310500D02*
X302500D01*
Y148000D01*
X310500D01*
Y140000D01*
D02*
G37*
G36*
X298000D02*
X290000D01*
Y148000D01*
X298000D01*
Y140000D01*
D02*
G37*
G36*
X348000D02*
X340000D01*
Y148000D01*
X348000D01*
Y140000D01*
D02*
G37*
G36*
X323000D02*
X315000D01*
Y148000D01*
X323000D01*
Y140000D01*
D02*
G37*
G36*
X448000Y127500D02*
X440000D01*
Y135500D01*
X448000D01*
Y127500D01*
D02*
G37*
G36*
X435500D02*
X427500D01*
Y135500D01*
X435500D01*
Y127500D01*
D02*
G37*
G36*
X48000Y127500D02*
X40000D01*
Y135500D01*
X48000D01*
Y127500D01*
D02*
G37*
G36*
X460500Y127500D02*
X452500D01*
Y135500D01*
X460500D01*
Y127500D01*
D02*
G37*
G36*
X398000D02*
X390000D01*
Y135500D01*
X398000D01*
Y127500D01*
D02*
G37*
G36*
X385500D02*
X377500D01*
Y135500D01*
X385500D01*
Y127500D01*
D02*
G37*
G36*
X423000D02*
X415000D01*
Y135500D01*
X423000D01*
Y127500D01*
D02*
G37*
G36*
X410500D02*
X402500D01*
Y135500D01*
X410500D01*
Y127500D01*
D02*
G37*
G36*
X60500Y127500D02*
X52500D01*
Y135500D01*
X60500D01*
Y127500D01*
D02*
G37*
G36*
X135500D02*
X127500D01*
Y135500D01*
X135500D01*
Y127500D01*
D02*
G37*
G36*
X123000D02*
X115000D01*
Y135500D01*
X123000D01*
Y127500D01*
D02*
G37*
G36*
X160500D02*
X152500D01*
Y135500D01*
X160500D01*
Y127500D01*
D02*
G37*
G36*
X148000D02*
X140000D01*
Y135500D01*
X148000D01*
Y127500D01*
D02*
G37*
G36*
X85500D02*
X77500D01*
Y135500D01*
X85500D01*
Y127500D01*
D02*
G37*
G36*
X73000D02*
X65000D01*
Y135500D01*
X73000D01*
Y127500D01*
D02*
G37*
G36*
X110500D02*
X102500D01*
Y135500D01*
X110500D01*
Y127500D01*
D02*
G37*
G36*
X98000D02*
X90000D01*
Y135500D01*
X98000D01*
Y127500D01*
D02*
G37*
G36*
X160500Y90000D02*
X152500D01*
Y98000D01*
X160500D01*
Y90000D01*
D02*
G37*
G36*
X148000D02*
X140000D01*
Y98000D01*
X148000D01*
Y90000D01*
D02*
G37*
G36*
X198000Y102500D02*
X190000D01*
Y110500D01*
X198000D01*
Y102500D01*
D02*
G37*
G36*
X173000Y90000D02*
X165000D01*
Y98000D01*
X173000D01*
Y90000D01*
D02*
G37*
G36*
X110500D02*
X102500D01*
Y98000D01*
X110500D01*
Y90000D01*
D02*
G37*
G36*
X98000D02*
X90000D01*
Y98000D01*
X98000D01*
Y90000D01*
D02*
G37*
G36*
X135500D02*
X127500D01*
Y98000D01*
X135500D01*
Y90000D01*
D02*
G37*
G36*
X123000D02*
X115000D01*
Y98000D01*
X123000D01*
Y90000D01*
D02*
G37*
G36*
X210500Y102500D02*
X202500D01*
Y110500D01*
X210500D01*
Y102500D01*
D02*
G37*
G36*
X285500D02*
X277500D01*
Y110500D01*
X285500D01*
Y102500D01*
D02*
G37*
G36*
X273000D02*
X265000D01*
Y110500D01*
X273000D01*
Y102500D01*
D02*
G37*
G36*
X310500D02*
X302500D01*
Y110500D01*
X310500D01*
Y102500D01*
D02*
G37*
G36*
X298000D02*
X290000D01*
Y110500D01*
X298000D01*
Y102500D01*
D02*
G37*
G36*
X235500D02*
X227500D01*
Y110500D01*
X235500D01*
Y102500D01*
D02*
G37*
G36*
X223000D02*
X215000D01*
Y110500D01*
X223000D01*
Y102500D01*
D02*
G37*
G36*
X260500D02*
X252500D01*
Y110500D01*
X260500D01*
Y102500D01*
D02*
G37*
G36*
X248000D02*
X240000D01*
Y110500D01*
X248000D01*
Y102500D01*
D02*
G37*
G36*
X373000Y90000D02*
X365000D01*
Y98000D01*
X373000D01*
Y90000D01*
D02*
G37*
G36*
X360500D02*
X352500D01*
Y98000D01*
X360500D01*
Y90000D01*
D02*
G37*
G36*
X398000D02*
X390000D01*
Y98000D01*
X398000D01*
Y90000D01*
D02*
G37*
G36*
X385500D02*
X377500D01*
Y98000D01*
X385500D01*
Y90000D01*
D02*
G37*
G36*
X310500D02*
X302500D01*
Y98000D01*
X310500D01*
Y90000D01*
D02*
G37*
G36*
X298000D02*
X290000D01*
Y98000D01*
X298000D01*
Y90000D01*
D02*
G37*
G36*
X348000D02*
X340000D01*
Y98000D01*
X348000D01*
Y90000D01*
D02*
G37*
G36*
X323000D02*
X315000D01*
Y98000D01*
X323000D01*
Y90000D01*
D02*
G37*
G36*
X410500D02*
X402500D01*
Y98000D01*
X410500D01*
Y90000D01*
D02*
G37*
G36*
X60500Y90000D02*
X52500D01*
Y98000D01*
X60500D01*
Y90000D01*
D02*
G37*
G36*
X48000D02*
X40000D01*
Y98000D01*
X48000D01*
Y90000D01*
D02*
G37*
G36*
X85500D02*
X77500D01*
Y98000D01*
X85500D01*
Y90000D01*
D02*
G37*
G36*
X73000D02*
X65000D01*
Y98000D01*
X73000D01*
Y90000D01*
D02*
G37*
G36*
X435500Y90000D02*
X427500D01*
Y98000D01*
X435500D01*
Y90000D01*
D02*
G37*
G36*
X423000D02*
X415000D01*
Y98000D01*
X423000D01*
Y90000D01*
D02*
G37*
G36*
X460500D02*
X452500D01*
Y98000D01*
X460500D01*
Y90000D01*
D02*
G37*
G36*
X448000D02*
X440000D01*
Y98000D01*
X448000D01*
Y90000D01*
D02*
G37*
G36*
X198000Y115000D02*
X190000D01*
Y123000D01*
X198000D01*
Y115000D01*
D02*
G37*
G36*
X173000Y102500D02*
X165000D01*
Y110500D01*
X173000D01*
Y102500D01*
D02*
G37*
G36*
X223000Y115000D02*
X215000D01*
Y123000D01*
X223000D01*
Y115000D01*
D02*
G37*
G36*
X210500D02*
X202500D01*
Y123000D01*
X210500D01*
Y115000D01*
D02*
G37*
G36*
X135500Y102500D02*
X127500D01*
Y110500D01*
X135500D01*
Y102500D01*
D02*
G37*
G36*
X123000D02*
X115000D01*
Y110500D01*
X123000D01*
Y102500D01*
D02*
G37*
G36*
X160500D02*
X152500D01*
Y110500D01*
X160500D01*
Y102500D01*
D02*
G37*
G36*
X148000D02*
X140000D01*
Y110500D01*
X148000D01*
Y102500D01*
D02*
G37*
G36*
X235500Y115000D02*
X227500D01*
Y123000D01*
X235500D01*
Y115000D01*
D02*
G37*
G36*
X310500D02*
X302500D01*
Y123000D01*
X310500D01*
Y115000D01*
D02*
G37*
G36*
X298000D02*
X290000D01*
Y123000D01*
X298000D01*
Y115000D01*
D02*
G37*
G36*
X348000D02*
X340000D01*
Y123000D01*
X348000D01*
Y115000D01*
D02*
G37*
G36*
X323000D02*
X315000D01*
Y123000D01*
X323000D01*
Y115000D01*
D02*
G37*
G36*
X260500D02*
X252500D01*
Y123000D01*
X260500D01*
Y115000D01*
D02*
G37*
G36*
X248000D02*
X240000D01*
Y123000D01*
X248000D01*
Y115000D01*
D02*
G37*
G36*
X285500D02*
X277500D01*
Y123000D01*
X285500D01*
Y115000D01*
D02*
G37*
G36*
X273000D02*
X265000D01*
Y123000D01*
X273000D01*
Y115000D01*
D02*
G37*
G36*
X398000Y102500D02*
X390000D01*
Y110500D01*
X398000D01*
Y102500D01*
D02*
G37*
G36*
X385500D02*
X377500D01*
Y110500D01*
X385500D01*
Y102500D01*
D02*
G37*
G36*
X423000D02*
X415000D01*
Y110500D01*
X423000D01*
Y102500D01*
D02*
G37*
G36*
X410500D02*
X402500D01*
Y110500D01*
X410500D01*
Y102500D01*
D02*
G37*
G36*
X348000D02*
X340000D01*
Y110500D01*
X348000D01*
Y102500D01*
D02*
G37*
G36*
X323000D02*
X315000D01*
Y110500D01*
X323000D01*
Y102500D01*
D02*
G37*
G36*
X373000D02*
X365000D01*
Y110500D01*
X373000D01*
Y102500D01*
D02*
G37*
G36*
X360500D02*
X352500D01*
Y110500D01*
X360500D01*
Y102500D01*
D02*
G37*
G36*
X435500D02*
X427500D01*
Y110500D01*
X435500D01*
Y102500D01*
D02*
G37*
G36*
X85500Y102500D02*
X77500D01*
Y110500D01*
X85500D01*
Y102500D01*
D02*
G37*
G36*
X73000D02*
X65000D01*
Y110500D01*
X73000D01*
Y102500D01*
D02*
G37*
G36*
X110500D02*
X102500D01*
Y110500D01*
X110500D01*
Y102500D01*
D02*
G37*
G36*
X98000D02*
X90000D01*
Y110500D01*
X98000D01*
Y102500D01*
D02*
G37*
G36*
X460500Y102500D02*
X452500D01*
Y110500D01*
X460500D01*
Y102500D01*
D02*
G37*
G36*
X448000D02*
X440000D01*
Y110500D01*
X448000D01*
Y102500D01*
D02*
G37*
G36*
X60500Y102500D02*
X52500D01*
Y110500D01*
X60500D01*
Y102500D01*
D02*
G37*
G36*
X48000D02*
X40000D01*
Y110500D01*
X48000D01*
Y102500D01*
D02*
G37*
G36*
X323000Y390000D02*
X315000D01*
Y398000D01*
X323000D01*
Y390000D01*
D02*
G37*
G36*
X310500D02*
X302500D01*
Y398000D01*
X310500D01*
Y390000D01*
D02*
G37*
G36*
X360500D02*
X352500D01*
Y398000D01*
X360500D01*
Y390000D01*
D02*
G37*
G36*
X348000D02*
X340000D01*
Y398000D01*
X348000D01*
Y390000D01*
D02*
G37*
G36*
X273000D02*
X265000D01*
Y398000D01*
X273000D01*
Y390000D01*
D02*
G37*
G36*
X260500D02*
X252500D01*
Y398000D01*
X260500D01*
Y390000D01*
D02*
G37*
G36*
X298000D02*
X290000D01*
Y398000D01*
X298000D01*
Y390000D01*
D02*
G37*
G36*
X285500D02*
X277500D01*
Y398000D01*
X285500D01*
Y390000D01*
D02*
G37*
G36*
X373000D02*
X365000D01*
Y398000D01*
X373000D01*
Y390000D01*
D02*
G37*
G36*
X448000D02*
X440000D01*
Y398000D01*
X448000D01*
Y390000D01*
D02*
G37*
G36*
X435500D02*
X427500D01*
Y398000D01*
X435500D01*
Y390000D01*
D02*
G37*
G36*
X48000Y390000D02*
X40000D01*
Y398000D01*
X48000D01*
Y390000D01*
D02*
G37*
G36*
X460500Y390000D02*
X452500D01*
Y398000D01*
X460500D01*
Y390000D01*
D02*
G37*
G36*
X398000D02*
X390000D01*
Y398000D01*
X398000D01*
Y390000D01*
D02*
G37*
G36*
X385500D02*
X377500D01*
Y398000D01*
X385500D01*
Y390000D01*
D02*
G37*
G36*
X423000D02*
X415000D01*
Y398000D01*
X423000D01*
Y390000D01*
D02*
G37*
G36*
X410500D02*
X402500D01*
Y398000D01*
X410500D01*
Y390000D01*
D02*
G37*
G36*
X98000Y377500D02*
X90000D01*
Y385500D01*
X98000D01*
Y377500D01*
D02*
G37*
G36*
X85500D02*
X77500D01*
Y385500D01*
X85500D01*
Y377500D01*
D02*
G37*
G36*
X123000D02*
X115000D01*
Y385500D01*
X123000D01*
Y377500D01*
D02*
G37*
G36*
X110500D02*
X102500D01*
Y385500D01*
X110500D01*
Y377500D01*
D02*
G37*
G36*
X48000D02*
X40000D01*
Y385500D01*
X48000D01*
Y377500D01*
D02*
G37*
G36*
X460500Y377500D02*
X452500D01*
Y385500D01*
X460500D01*
Y377500D01*
D02*
G37*
G36*
X73000Y377500D02*
X65000D01*
Y385500D01*
X73000D01*
Y377500D01*
D02*
G37*
G36*
X60500D02*
X52500D01*
Y385500D01*
X60500D01*
Y377500D01*
D02*
G37*
G36*
X135500D02*
X127500D01*
Y385500D01*
X135500D01*
Y377500D01*
D02*
G37*
G36*
X223000Y390000D02*
X215000D01*
Y398000D01*
X223000D01*
Y390000D01*
D02*
G37*
G36*
X210500D02*
X202500D01*
Y398000D01*
X210500D01*
Y390000D01*
D02*
G37*
G36*
X248000D02*
X240000D01*
Y398000D01*
X248000D01*
Y390000D01*
D02*
G37*
G36*
X235500D02*
X227500D01*
Y398000D01*
X235500D01*
Y390000D01*
D02*
G37*
G36*
X160500Y377500D02*
X152500D01*
Y385500D01*
X160500D01*
Y377500D01*
D02*
G37*
G36*
X148000D02*
X140000D01*
Y385500D01*
X148000D01*
Y377500D01*
D02*
G37*
G36*
X198000Y390000D02*
X190000D01*
Y398000D01*
X198000D01*
Y390000D01*
D02*
G37*
G36*
X173000Y377500D02*
X165000D01*
Y385500D01*
X173000D01*
Y377500D01*
D02*
G37*
G36*
X360500Y402500D02*
X352500D01*
Y410500D01*
X360500D01*
Y402500D01*
D02*
G37*
G36*
X348000D02*
X340000D01*
Y410500D01*
X348000D01*
Y402500D01*
D02*
G37*
G36*
X385500D02*
X377500D01*
Y410500D01*
X385500D01*
Y402500D01*
D02*
G37*
G36*
X373000D02*
X365000D01*
Y410500D01*
X373000D01*
Y402500D01*
D02*
G37*
G36*
X298000D02*
X290000D01*
Y410500D01*
X298000D01*
Y402500D01*
D02*
G37*
G36*
X285500D02*
X277500D01*
Y410500D01*
X285500D01*
Y402500D01*
D02*
G37*
G36*
X323000D02*
X315000D01*
Y410500D01*
X323000D01*
Y402500D01*
D02*
G37*
G36*
X310500D02*
X302500D01*
Y410500D01*
X310500D01*
Y402500D01*
D02*
G37*
G36*
X398000D02*
X390000D01*
Y410500D01*
X398000D01*
Y402500D01*
D02*
G37*
G36*
X48000Y402500D02*
X40000D01*
Y410500D01*
X48000D01*
Y402500D01*
D02*
G37*
G36*
X460500Y402500D02*
X452500D01*
Y410500D01*
X460500D01*
Y402500D01*
D02*
G37*
G36*
X73000Y402500D02*
X65000D01*
Y410500D01*
X73000D01*
Y402500D01*
D02*
G37*
G36*
X60500D02*
X52500D01*
Y410500D01*
X60500D01*
Y402500D01*
D02*
G37*
G36*
X423000Y402500D02*
X415000D01*
Y410500D01*
X423000D01*
Y402500D01*
D02*
G37*
G36*
X410500D02*
X402500D01*
Y410500D01*
X410500D01*
Y402500D01*
D02*
G37*
G36*
X448000D02*
X440000D01*
Y410500D01*
X448000D01*
Y402500D01*
D02*
G37*
G36*
X435500D02*
X427500D01*
Y410500D01*
X435500D01*
Y402500D01*
D02*
G37*
G36*
X123000Y390000D02*
X115000D01*
Y398000D01*
X123000D01*
Y390000D01*
D02*
G37*
G36*
X110500D02*
X102500D01*
Y398000D01*
X110500D01*
Y390000D01*
D02*
G37*
G36*
X148000D02*
X140000D01*
Y398000D01*
X148000D01*
Y390000D01*
D02*
G37*
G36*
X135500D02*
X127500D01*
Y398000D01*
X135500D01*
Y390000D01*
D02*
G37*
G36*
X73000D02*
X65000D01*
Y398000D01*
X73000D01*
Y390000D01*
D02*
G37*
G36*
X60500D02*
X52500D01*
Y398000D01*
X60500D01*
Y390000D01*
D02*
G37*
G36*
X98000D02*
X90000D01*
Y398000D01*
X98000D01*
Y390000D01*
D02*
G37*
G36*
X85500D02*
X77500D01*
Y398000D01*
X85500D01*
Y390000D01*
D02*
G37*
G36*
X160500D02*
X152500D01*
Y398000D01*
X160500D01*
Y390000D01*
D02*
G37*
G36*
X248000Y402500D02*
X240000D01*
Y410500D01*
X248000D01*
Y402500D01*
D02*
G37*
G36*
X235500D02*
X227500D01*
Y410500D01*
X235500D01*
Y402500D01*
D02*
G37*
G36*
X273000D02*
X265000D01*
Y410500D01*
X273000D01*
Y402500D01*
D02*
G37*
G36*
X260500D02*
X252500D01*
Y410500D01*
X260500D01*
Y402500D01*
D02*
G37*
G36*
X198000D02*
X190000D01*
Y410500D01*
X198000D01*
Y402500D01*
D02*
G37*
G36*
X173000Y390000D02*
X165000D01*
Y398000D01*
X173000D01*
Y390000D01*
D02*
G37*
G36*
X223000Y402500D02*
X215000D01*
Y410500D01*
X223000D01*
Y402500D01*
D02*
G37*
G36*
X210500D02*
X202500D01*
Y410500D01*
X210500D01*
Y402500D01*
D02*
G37*
G36*
X273000Y365000D02*
X265000D01*
Y373000D01*
X273000D01*
Y365000D01*
D02*
G37*
G36*
X260500D02*
X252500D01*
Y373000D01*
X260500D01*
Y365000D01*
D02*
G37*
G36*
X298000D02*
X290000D01*
Y373000D01*
X298000D01*
Y365000D01*
D02*
G37*
G36*
X285500D02*
X277500D01*
Y373000D01*
X285500D01*
Y365000D01*
D02*
G37*
G36*
X223000D02*
X215000D01*
Y373000D01*
X223000D01*
Y365000D01*
D02*
G37*
G36*
X210500D02*
X202500D01*
Y373000D01*
X210500D01*
Y365000D01*
D02*
G37*
G36*
X248000D02*
X240000D01*
Y373000D01*
X248000D01*
Y365000D01*
D02*
G37*
G36*
X235500D02*
X227500D01*
Y373000D01*
X235500D01*
Y365000D01*
D02*
G37*
G36*
X310500D02*
X302500D01*
Y373000D01*
X310500D01*
Y365000D01*
D02*
G37*
G36*
X398000D02*
X390000D01*
Y373000D01*
X398000D01*
Y365000D01*
D02*
G37*
G36*
X385500D02*
X377500D01*
Y373000D01*
X385500D01*
Y365000D01*
D02*
G37*
G36*
X423000D02*
X415000D01*
Y373000D01*
X423000D01*
Y365000D01*
D02*
G37*
G36*
X410500D02*
X402500D01*
Y373000D01*
X410500D01*
Y365000D01*
D02*
G37*
G36*
X348000D02*
X340000D01*
Y373000D01*
X348000D01*
Y365000D01*
D02*
G37*
G36*
X323000D02*
X315000D01*
Y373000D01*
X323000D01*
Y365000D01*
D02*
G37*
G36*
X373000D02*
X365000D01*
Y373000D01*
X373000D01*
Y365000D01*
D02*
G37*
G36*
X360500D02*
X352500D01*
Y373000D01*
X360500D01*
Y365000D01*
D02*
G37*
G36*
X48000Y352500D02*
X40000D01*
Y360500D01*
X48000D01*
Y352500D01*
D02*
G37*
G36*
X460500Y352500D02*
X452500D01*
Y360500D01*
X460500D01*
Y352500D01*
D02*
G37*
G36*
X73000Y352500D02*
X65000D01*
Y360500D01*
X73000D01*
Y352500D01*
D02*
G37*
G36*
X60500D02*
X52500D01*
Y360500D01*
X60500D01*
Y352500D01*
D02*
G37*
G36*
X423000Y352500D02*
X415000D01*
Y360500D01*
X423000D01*
Y352500D01*
D02*
G37*
G36*
X410500D02*
X402500D01*
Y360500D01*
X410500D01*
Y352500D01*
D02*
G37*
G36*
X448000D02*
X440000D01*
Y360500D01*
X448000D01*
Y352500D01*
D02*
G37*
G36*
X435500D02*
X427500D01*
Y360500D01*
X435500D01*
Y352500D01*
D02*
G37*
G36*
X85500Y352500D02*
X77500D01*
Y360500D01*
X85500D01*
Y352500D01*
D02*
G37*
G36*
X160500D02*
X152500D01*
Y360500D01*
X160500D01*
Y352500D01*
D02*
G37*
G36*
X148000D02*
X140000D01*
Y360500D01*
X148000D01*
Y352500D01*
D02*
G37*
G36*
X198000Y365000D02*
X190000D01*
Y373000D01*
X198000D01*
Y365000D01*
D02*
G37*
G36*
X173000Y352500D02*
X165000D01*
Y360500D01*
X173000D01*
Y352500D01*
D02*
G37*
G36*
X110500D02*
X102500D01*
Y360500D01*
X110500D01*
Y352500D01*
D02*
G37*
G36*
X98000D02*
X90000D01*
Y360500D01*
X98000D01*
Y352500D01*
D02*
G37*
G36*
X135500D02*
X127500D01*
Y360500D01*
X135500D01*
Y352500D01*
D02*
G37*
G36*
X123000D02*
X115000D01*
Y360500D01*
X123000D01*
Y352500D01*
D02*
G37*
G36*
X298000Y377500D02*
X290000D01*
Y385500D01*
X298000D01*
Y377500D01*
D02*
G37*
G36*
X285500D02*
X277500D01*
Y385500D01*
X285500D01*
Y377500D01*
D02*
G37*
G36*
X323000D02*
X315000D01*
Y385500D01*
X323000D01*
Y377500D01*
D02*
G37*
G36*
X310500D02*
X302500D01*
Y385500D01*
X310500D01*
Y377500D01*
D02*
G37*
G36*
X248000D02*
X240000D01*
Y385500D01*
X248000D01*
Y377500D01*
D02*
G37*
G36*
X235500D02*
X227500D01*
Y385500D01*
X235500D01*
Y377500D01*
D02*
G37*
G36*
X273000D02*
X265000D01*
Y385500D01*
X273000D01*
Y377500D01*
D02*
G37*
G36*
X260500D02*
X252500D01*
Y385500D01*
X260500D01*
Y377500D01*
D02*
G37*
G36*
X348000D02*
X340000D01*
Y385500D01*
X348000D01*
Y377500D01*
D02*
G37*
G36*
X423000D02*
X415000D01*
Y385500D01*
X423000D01*
Y377500D01*
D02*
G37*
G36*
X410500D02*
X402500D01*
Y385500D01*
X410500D01*
Y377500D01*
D02*
G37*
G36*
X448000D02*
X440000D01*
Y385500D01*
X448000D01*
Y377500D01*
D02*
G37*
G36*
X435500D02*
X427500D01*
Y385500D01*
X435500D01*
Y377500D01*
D02*
G37*
G36*
X373000D02*
X365000D01*
Y385500D01*
X373000D01*
Y377500D01*
D02*
G37*
G36*
X360500D02*
X352500D01*
Y385500D01*
X360500D01*
Y377500D01*
D02*
G37*
G36*
X398000D02*
X390000D01*
Y385500D01*
X398000D01*
Y377500D01*
D02*
G37*
G36*
X385500D02*
X377500D01*
Y385500D01*
X385500D01*
Y377500D01*
D02*
G37*
G36*
X73000Y365000D02*
X65000D01*
Y373000D01*
X73000D01*
Y365000D01*
D02*
G37*
G36*
X60500D02*
X52500D01*
Y373000D01*
X60500D01*
Y365000D01*
D02*
G37*
G36*
X98000D02*
X90000D01*
Y373000D01*
X98000D01*
Y365000D01*
D02*
G37*
G36*
X85500D02*
X77500D01*
Y373000D01*
X85500D01*
Y365000D01*
D02*
G37*
G36*
X448000Y365000D02*
X440000D01*
Y373000D01*
X448000D01*
Y365000D01*
D02*
G37*
G36*
X435500D02*
X427500D01*
Y373000D01*
X435500D01*
Y365000D01*
D02*
G37*
G36*
X48000Y365000D02*
X40000D01*
Y373000D01*
X48000D01*
Y365000D01*
D02*
G37*
G36*
X460500Y365000D02*
X452500D01*
Y373000D01*
X460500D01*
Y365000D01*
D02*
G37*
G36*
X110500Y365000D02*
X102500D01*
Y373000D01*
X110500D01*
Y365000D01*
D02*
G37*
G36*
X198000Y377500D02*
X190000D01*
Y385500D01*
X198000D01*
Y377500D01*
D02*
G37*
G36*
X173000Y365000D02*
X165000D01*
Y373000D01*
X173000D01*
Y365000D01*
D02*
G37*
G36*
X223000Y377500D02*
X215000D01*
Y385500D01*
X223000D01*
Y377500D01*
D02*
G37*
G36*
X210500D02*
X202500D01*
Y385500D01*
X210500D01*
Y377500D01*
D02*
G37*
G36*
X135500Y365000D02*
X127500D01*
Y373000D01*
X135500D01*
Y365000D01*
D02*
G37*
G36*
X123000D02*
X115000D01*
Y373000D01*
X123000D01*
Y365000D01*
D02*
G37*
G36*
X160500D02*
X152500D01*
Y373000D01*
X160500D01*
Y365000D01*
D02*
G37*
G36*
X148000D02*
X140000D01*
Y373000D01*
X148000D01*
Y365000D01*
D02*
G37*
G36*
X435500Y440000D02*
X427500D01*
Y448000D01*
X435500D01*
Y440000D01*
D02*
G37*
G36*
X423000D02*
X415000D01*
Y448000D01*
X423000D01*
Y440000D01*
D02*
G37*
G36*
X460500D02*
X452500D01*
Y448000D01*
X460500D01*
Y440000D01*
D02*
G37*
G36*
X448000D02*
X440000D01*
Y448000D01*
X448000D01*
Y440000D01*
D02*
G37*
G36*
X385500D02*
X377500D01*
Y448000D01*
X385500D01*
Y440000D01*
D02*
G37*
G36*
X373000D02*
X365000D01*
Y448000D01*
X373000D01*
Y440000D01*
D02*
G37*
G36*
X410500D02*
X402500D01*
Y448000D01*
X410500D01*
Y440000D01*
D02*
G37*
G36*
X398000D02*
X390000D01*
Y448000D01*
X398000D01*
Y440000D01*
D02*
G37*
G36*
X48000Y440000D02*
X40000D01*
Y448000D01*
X48000D01*
Y440000D01*
D02*
G37*
G36*
X123000D02*
X115000D01*
Y448000D01*
X123000D01*
Y440000D01*
D02*
G37*
G36*
X110500D02*
X102500D01*
Y448000D01*
X110500D01*
Y440000D01*
D02*
G37*
G36*
X148000D02*
X140000D01*
Y448000D01*
X148000D01*
Y440000D01*
D02*
G37*
G36*
X135500D02*
X127500D01*
Y448000D01*
X135500D01*
Y440000D01*
D02*
G37*
G36*
X73000D02*
X65000D01*
Y448000D01*
X73000D01*
Y440000D01*
D02*
G37*
G36*
X60500D02*
X52500D01*
Y448000D01*
X60500D01*
Y440000D01*
D02*
G37*
G36*
X98000D02*
X90000D01*
Y448000D01*
X98000D01*
Y440000D01*
D02*
G37*
G36*
X85500D02*
X77500D01*
Y448000D01*
X85500D01*
Y440000D01*
D02*
G37*
G36*
X210500Y440000D02*
X202500D01*
Y448000D01*
X210500D01*
Y440000D01*
D02*
G37*
G36*
X198000D02*
X190000D01*
Y448000D01*
X198000D01*
Y440000D01*
D02*
G37*
G36*
X235500D02*
X227500D01*
Y448000D01*
X235500D01*
Y440000D01*
D02*
G37*
G36*
X223000D02*
X215000D01*
Y448000D01*
X223000D01*
Y440000D01*
D02*
G37*
G36*
X148000Y427500D02*
X140000D01*
Y435500D01*
X148000D01*
Y427500D01*
D02*
G37*
G36*
X135500D02*
X127500D01*
Y435500D01*
X135500D01*
Y427500D01*
D02*
G37*
G36*
X173000D02*
X165000D01*
Y435500D01*
X173000D01*
Y427500D01*
D02*
G37*
G36*
X160500D02*
X152500D01*
Y435500D01*
X160500D01*
Y427500D01*
D02*
G37*
G36*
X248000Y440000D02*
X240000D01*
Y448000D01*
X248000D01*
Y440000D01*
D02*
G37*
G36*
X323000D02*
X315000D01*
Y448000D01*
X323000D01*
Y440000D01*
D02*
G37*
G36*
X310500D02*
X302500D01*
Y448000D01*
X310500D01*
Y440000D01*
D02*
G37*
G36*
X360500D02*
X352500D01*
Y448000D01*
X360500D01*
Y440000D01*
D02*
G37*
G36*
X348000D02*
X340000D01*
Y448000D01*
X348000D01*
Y440000D01*
D02*
G37*
G36*
X273000D02*
X265000D01*
Y448000D01*
X273000D01*
Y440000D01*
D02*
G37*
G36*
X260500D02*
X252500D01*
Y448000D01*
X260500D01*
Y440000D01*
D02*
G37*
G36*
X298000D02*
X290000D01*
Y448000D01*
X298000D01*
Y440000D01*
D02*
G37*
G36*
X285500D02*
X277500D01*
Y448000D01*
X285500D01*
Y440000D01*
D02*
G37*
G36*
X460500Y452500D02*
X452500D01*
Y460500D01*
X460500D01*
Y452500D01*
D02*
G37*
G36*
X448000D02*
X440000D01*
Y460500D01*
X448000D01*
Y452500D01*
D02*
G37*
G36*
X60500Y452500D02*
X52500D01*
Y460500D01*
X60500D01*
Y452500D01*
D02*
G37*
G36*
X48000D02*
X40000D01*
Y460500D01*
X48000D01*
Y452500D01*
D02*
G37*
G36*
X410500Y452500D02*
X402500D01*
Y460500D01*
X410500D01*
Y452500D01*
D02*
G37*
G36*
X398000D02*
X390000D01*
Y460500D01*
X398000D01*
Y452500D01*
D02*
G37*
G36*
X435500D02*
X427500D01*
Y460500D01*
X435500D01*
Y452500D01*
D02*
G37*
G36*
X423000D02*
X415000D01*
Y460500D01*
X423000D01*
Y452500D01*
D02*
G37*
G36*
X73000Y452500D02*
X65000D01*
Y460500D01*
X73000D01*
Y452500D01*
D02*
G37*
G36*
X148000D02*
X140000D01*
Y460500D01*
X148000D01*
Y452500D01*
D02*
G37*
G36*
X135500D02*
X127500D01*
Y460500D01*
X135500D01*
Y452500D01*
D02*
G37*
G36*
X173000D02*
X165000D01*
Y460500D01*
X173000D01*
Y452500D01*
D02*
G37*
G36*
X160500D02*
X152500D01*
Y460500D01*
X160500D01*
Y452500D01*
D02*
G37*
G36*
X98000D02*
X90000D01*
Y460500D01*
X98000D01*
Y452500D01*
D02*
G37*
G36*
X85500D02*
X77500D01*
Y460500D01*
X85500D01*
Y452500D01*
D02*
G37*
G36*
X123000D02*
X115000D01*
Y460500D01*
X123000D01*
Y452500D01*
D02*
G37*
G36*
X110500D02*
X102500D01*
Y460500D01*
X110500D01*
Y452500D01*
D02*
G37*
G36*
X235500Y452500D02*
X227500D01*
Y460500D01*
X235500D01*
Y452500D01*
D02*
G37*
G36*
X223000D02*
X215000D01*
Y460500D01*
X223000D01*
Y452500D01*
D02*
G37*
G36*
X260500D02*
X252500D01*
Y460500D01*
X260500D01*
Y452500D01*
D02*
G37*
G36*
X248000D02*
X240000D01*
Y460500D01*
X248000D01*
Y452500D01*
D02*
G37*
G36*
X173000Y440000D02*
X165000D01*
Y448000D01*
X173000D01*
Y440000D01*
D02*
G37*
G36*
X160500D02*
X152500D01*
Y448000D01*
X160500D01*
Y440000D01*
D02*
G37*
G36*
X210500Y452500D02*
X202500D01*
Y460500D01*
X210500D01*
Y452500D01*
D02*
G37*
G36*
X198000D02*
X190000D01*
Y460500D01*
X198000D01*
Y452500D01*
D02*
G37*
G36*
X273000D02*
X265000D01*
Y460500D01*
X273000D01*
Y452500D01*
D02*
G37*
G36*
X360500D02*
X352500D01*
Y460500D01*
X360500D01*
Y452500D01*
D02*
G37*
G36*
X348000D02*
X340000D01*
Y460500D01*
X348000D01*
Y452500D01*
D02*
G37*
G36*
X385500D02*
X377500D01*
Y460500D01*
X385500D01*
Y452500D01*
D02*
G37*
G36*
X373000D02*
X365000D01*
Y460500D01*
X373000D01*
Y452500D01*
D02*
G37*
G36*
X298000D02*
X290000D01*
Y460500D01*
X298000D01*
Y452500D01*
D02*
G37*
G36*
X285500D02*
X277500D01*
Y460500D01*
X285500D01*
Y452500D01*
D02*
G37*
G36*
X323000D02*
X315000D01*
Y460500D01*
X323000D01*
Y452500D01*
D02*
G37*
G36*
X310500D02*
X302500D01*
Y460500D01*
X310500D01*
Y452500D01*
D02*
G37*
G36*
X385500Y415000D02*
X377500D01*
Y423000D01*
X385500D01*
Y415000D01*
D02*
G37*
G36*
X373000D02*
X365000D01*
Y423000D01*
X373000D01*
Y415000D01*
D02*
G37*
G36*
X410500D02*
X402500D01*
Y423000D01*
X410500D01*
Y415000D01*
D02*
G37*
G36*
X398000D02*
X390000D01*
Y423000D01*
X398000D01*
Y415000D01*
D02*
G37*
G36*
X323000D02*
X315000D01*
Y423000D01*
X323000D01*
Y415000D01*
D02*
G37*
G36*
X310500D02*
X302500D01*
Y423000D01*
X310500D01*
Y415000D01*
D02*
G37*
G36*
X360500D02*
X352500D01*
Y423000D01*
X360500D01*
Y415000D01*
D02*
G37*
G36*
X348000D02*
X340000D01*
Y423000D01*
X348000D01*
Y415000D01*
D02*
G37*
G36*
X423000D02*
X415000D01*
Y423000D01*
X423000D01*
Y415000D01*
D02*
G37*
G36*
X73000Y415000D02*
X65000D01*
Y423000D01*
X73000D01*
Y415000D01*
D02*
G37*
G36*
X60500D02*
X52500D01*
Y423000D01*
X60500D01*
Y415000D01*
D02*
G37*
G36*
X98000D02*
X90000D01*
Y423000D01*
X98000D01*
Y415000D01*
D02*
G37*
G36*
X85500D02*
X77500D01*
Y423000D01*
X85500D01*
Y415000D01*
D02*
G37*
G36*
X448000Y415000D02*
X440000D01*
Y423000D01*
X448000D01*
Y415000D01*
D02*
G37*
G36*
X435500D02*
X427500D01*
Y423000D01*
X435500D01*
Y415000D01*
D02*
G37*
G36*
X48000Y415000D02*
X40000D01*
Y423000D01*
X48000D01*
Y415000D01*
D02*
G37*
G36*
X460500Y415000D02*
X452500D01*
Y423000D01*
X460500D01*
Y415000D01*
D02*
G37*
G36*
X148000Y402500D02*
X140000D01*
Y410500D01*
X148000D01*
Y402500D01*
D02*
G37*
G36*
X135500D02*
X127500D01*
Y410500D01*
X135500D01*
Y402500D01*
D02*
G37*
G36*
X173000D02*
X165000D01*
Y410500D01*
X173000D01*
Y402500D01*
D02*
G37*
G36*
X160500D02*
X152500D01*
Y410500D01*
X160500D01*
Y402500D01*
D02*
G37*
G36*
X98000D02*
X90000D01*
Y410500D01*
X98000D01*
Y402500D01*
D02*
G37*
G36*
X85500D02*
X77500D01*
Y410500D01*
X85500D01*
Y402500D01*
D02*
G37*
G36*
X123000D02*
X115000D01*
Y410500D01*
X123000D01*
Y402500D01*
D02*
G37*
G36*
X110500D02*
X102500D01*
Y410500D01*
X110500D01*
Y402500D01*
D02*
G37*
G36*
X198000Y415000D02*
X190000D01*
Y423000D01*
X198000D01*
Y415000D01*
D02*
G37*
G36*
X273000D02*
X265000D01*
Y423000D01*
X273000D01*
Y415000D01*
D02*
G37*
G36*
X260500D02*
X252500D01*
Y423000D01*
X260500D01*
Y415000D01*
D02*
G37*
G36*
X298000D02*
X290000D01*
Y423000D01*
X298000D01*
Y415000D01*
D02*
G37*
G36*
X285500D02*
X277500D01*
Y423000D01*
X285500D01*
Y415000D01*
D02*
G37*
G36*
X223000D02*
X215000D01*
Y423000D01*
X223000D01*
Y415000D01*
D02*
G37*
G36*
X210500D02*
X202500D01*
Y423000D01*
X210500D01*
Y415000D01*
D02*
G37*
G36*
X248000D02*
X240000D01*
Y423000D01*
X248000D01*
Y415000D01*
D02*
G37*
G36*
X235500D02*
X227500D01*
Y423000D01*
X235500D01*
Y415000D01*
D02*
G37*
G36*
X410500Y427500D02*
X402500D01*
Y435500D01*
X410500D01*
Y427500D01*
D02*
G37*
G36*
X398000D02*
X390000D01*
Y435500D01*
X398000D01*
Y427500D01*
D02*
G37*
G36*
X435500D02*
X427500D01*
Y435500D01*
X435500D01*
Y427500D01*
D02*
G37*
G36*
X423000D02*
X415000D01*
Y435500D01*
X423000D01*
Y427500D01*
D02*
G37*
G36*
X360500D02*
X352500D01*
Y435500D01*
X360500D01*
Y427500D01*
D02*
G37*
G36*
X348000D02*
X340000D01*
Y435500D01*
X348000D01*
Y427500D01*
D02*
G37*
G36*
X385500D02*
X377500D01*
Y435500D01*
X385500D01*
Y427500D01*
D02*
G37*
G36*
X373000D02*
X365000D01*
Y435500D01*
X373000D01*
Y427500D01*
D02*
G37*
G36*
X448000D02*
X440000D01*
Y435500D01*
X448000D01*
Y427500D01*
D02*
G37*
G36*
X98000Y427500D02*
X90000D01*
Y435500D01*
X98000D01*
Y427500D01*
D02*
G37*
G36*
X85500D02*
X77500D01*
Y435500D01*
X85500D01*
Y427500D01*
D02*
G37*
G36*
X123000D02*
X115000D01*
Y435500D01*
X123000D01*
Y427500D01*
D02*
G37*
G36*
X110500D02*
X102500D01*
Y435500D01*
X110500D01*
Y427500D01*
D02*
G37*
G36*
X48000D02*
X40000D01*
Y435500D01*
X48000D01*
Y427500D01*
D02*
G37*
G36*
X460500Y427500D02*
X452500D01*
Y435500D01*
X460500D01*
Y427500D01*
D02*
G37*
G36*
X73000Y427500D02*
X65000D01*
Y435500D01*
X73000D01*
Y427500D01*
D02*
G37*
G36*
X60500D02*
X52500D01*
Y435500D01*
X60500D01*
Y427500D01*
D02*
G37*
G36*
X173000Y415000D02*
X165000D01*
Y423000D01*
X173000D01*
Y415000D01*
D02*
G37*
G36*
X160500D02*
X152500D01*
Y423000D01*
X160500D01*
Y415000D01*
D02*
G37*
G36*
X210500Y427500D02*
X202500D01*
Y435500D01*
X210500D01*
Y427500D01*
D02*
G37*
G36*
X198000D02*
X190000D01*
Y435500D01*
X198000D01*
Y427500D01*
D02*
G37*
G36*
X123000Y415000D02*
X115000D01*
Y423000D01*
X123000D01*
Y415000D01*
D02*
G37*
G36*
X110500D02*
X102500D01*
Y423000D01*
X110500D01*
Y415000D01*
D02*
G37*
G36*
X148000D02*
X140000D01*
Y423000D01*
X148000D01*
Y415000D01*
D02*
G37*
G36*
X135500D02*
X127500D01*
Y423000D01*
X135500D01*
Y415000D01*
D02*
G37*
G36*
X223000Y427500D02*
X215000D01*
Y435500D01*
X223000D01*
Y427500D01*
D02*
G37*
G36*
X298000D02*
X290000D01*
Y435500D01*
X298000D01*
Y427500D01*
D02*
G37*
G36*
X285500D02*
X277500D01*
Y435500D01*
X285500D01*
Y427500D01*
D02*
G37*
G36*
X323000D02*
X315000D01*
Y435500D01*
X323000D01*
Y427500D01*
D02*
G37*
G36*
X310500D02*
X302500D01*
Y435500D01*
X310500D01*
Y427500D01*
D02*
G37*
G36*
X248000D02*
X240000D01*
Y435500D01*
X248000D01*
Y427500D01*
D02*
G37*
G36*
X235500D02*
X227500D01*
Y435500D01*
X235500D01*
Y427500D01*
D02*
G37*
G36*
X273000D02*
X265000D01*
Y435500D01*
X273000D01*
Y427500D01*
D02*
G37*
G36*
X260500D02*
X252500D01*
Y435500D01*
X260500D01*
Y427500D01*
D02*
G37*
G36*
X110500Y277500D02*
X102500D01*
Y285500D01*
X110500D01*
Y277500D01*
D02*
G37*
G36*
X98000D02*
X90000D01*
Y285500D01*
X98000D01*
Y277500D01*
D02*
G37*
G36*
X135500D02*
X127500D01*
Y285500D01*
X135500D01*
Y277500D01*
D02*
G37*
G36*
X123000D02*
X115000D01*
Y285500D01*
X123000D01*
Y277500D01*
D02*
G37*
G36*
X60500D02*
X52500D01*
Y285500D01*
X60500D01*
Y277500D01*
D02*
G37*
G36*
X48000D02*
X40000D01*
Y285500D01*
X48000D01*
Y277500D01*
D02*
G37*
G36*
X85500D02*
X77500D01*
Y285500D01*
X85500D01*
Y277500D01*
D02*
G37*
G36*
X73000D02*
X65000D01*
Y285500D01*
X73000D01*
Y277500D01*
D02*
G37*
G36*
X148000D02*
X140000D01*
Y285500D01*
X148000D01*
Y277500D01*
D02*
G37*
G36*
X235500Y290000D02*
X227500D01*
Y298000D01*
X235500D01*
Y290000D01*
D02*
G37*
G36*
X223000D02*
X215000D01*
Y298000D01*
X223000D01*
Y290000D01*
D02*
G37*
G36*
X260500D02*
X252500D01*
Y298000D01*
X260500D01*
Y290000D01*
D02*
G37*
G36*
X248000D02*
X240000D01*
Y298000D01*
X248000D01*
Y290000D01*
D02*
G37*
G36*
X173000Y277500D02*
X165000D01*
Y285500D01*
X173000D01*
Y277500D01*
D02*
G37*
G36*
X160500D02*
X152500D01*
Y285500D01*
X160500D01*
Y277500D01*
D02*
G37*
G36*
X210500Y290000D02*
X202500D01*
Y298000D01*
X210500D01*
Y290000D01*
D02*
G37*
G36*
X198000D02*
X190000D01*
Y298000D01*
X198000D01*
Y290000D01*
D02*
G37*
G36*
X310500Y277500D02*
X302500D01*
Y285500D01*
X310500D01*
Y277500D01*
D02*
G37*
G36*
X298000D02*
X290000D01*
Y285500D01*
X298000D01*
Y277500D01*
D02*
G37*
G36*
X348000D02*
X340000D01*
Y285500D01*
X348000D01*
Y277500D01*
D02*
G37*
G36*
X323000D02*
X315000D01*
Y285500D01*
X323000D01*
Y277500D01*
D02*
G37*
G36*
X260500D02*
X252500D01*
Y285500D01*
X260500D01*
Y277500D01*
D02*
G37*
G36*
X248000D02*
X240000D01*
Y285500D01*
X248000D01*
Y277500D01*
D02*
G37*
G36*
X285500D02*
X277500D01*
Y285500D01*
X285500D01*
Y277500D01*
D02*
G37*
G36*
X273000D02*
X265000D01*
Y285500D01*
X273000D01*
Y277500D01*
D02*
G37*
G36*
X360500D02*
X352500D01*
Y285500D01*
X360500D01*
Y277500D01*
D02*
G37*
G36*
X435500D02*
X427500D01*
Y285500D01*
X435500D01*
Y277500D01*
D02*
G37*
G36*
X423000D02*
X415000D01*
Y285500D01*
X423000D01*
Y277500D01*
D02*
G37*
G36*
X460500D02*
X452500D01*
Y285500D01*
X460500D01*
Y277500D01*
D02*
G37*
G36*
X448000D02*
X440000D01*
Y285500D01*
X448000D01*
Y277500D01*
D02*
G37*
G36*
X385500D02*
X377500D01*
Y285500D01*
X385500D01*
Y277500D01*
D02*
G37*
G36*
X373000D02*
X365000D01*
Y285500D01*
X373000D01*
Y277500D01*
D02*
G37*
G36*
X410500D02*
X402500D01*
Y285500D01*
X410500D01*
Y277500D01*
D02*
G37*
G36*
X398000D02*
X390000D01*
Y285500D01*
X398000D01*
Y277500D01*
D02*
G37*
G36*
X135500Y290000D02*
X127500D01*
Y298000D01*
X135500D01*
Y290000D01*
D02*
G37*
G36*
X123000D02*
X115000D01*
Y298000D01*
X123000D01*
Y290000D01*
D02*
G37*
G36*
X160500D02*
X152500D01*
Y298000D01*
X160500D01*
Y290000D01*
D02*
G37*
G36*
X148000D02*
X140000D01*
Y298000D01*
X148000D01*
Y290000D01*
D02*
G37*
G36*
X85500D02*
X77500D01*
Y298000D01*
X85500D01*
Y290000D01*
D02*
G37*
G36*
X73000D02*
X65000D01*
Y298000D01*
X73000D01*
Y290000D01*
D02*
G37*
G36*
X110500D02*
X102500D01*
Y298000D01*
X110500D01*
Y290000D01*
D02*
G37*
G36*
X98000D02*
X90000D01*
Y298000D01*
X98000D01*
Y290000D01*
D02*
G37*
G36*
X173000D02*
X165000D01*
Y298000D01*
X173000D01*
Y290000D01*
D02*
G37*
G36*
X260500Y302500D02*
X252500D01*
Y310500D01*
X260500D01*
Y302500D01*
D02*
G37*
G36*
X248000D02*
X240000D01*
Y310500D01*
X248000D01*
Y302500D01*
D02*
G37*
G36*
X285500D02*
X277500D01*
Y310500D01*
X285500D01*
Y302500D01*
D02*
G37*
G36*
X273000D02*
X265000D01*
Y310500D01*
X273000D01*
Y302500D01*
D02*
G37*
G36*
X210500D02*
X202500D01*
Y310500D01*
X210500D01*
Y302500D01*
D02*
G37*
G36*
X198000D02*
X190000D01*
Y310500D01*
X198000D01*
Y302500D01*
D02*
G37*
G36*
X235500D02*
X227500D01*
Y310500D01*
X235500D01*
Y302500D01*
D02*
G37*
G36*
X223000D02*
X215000D01*
Y310500D01*
X223000D01*
Y302500D01*
D02*
G37*
G36*
X348000Y290000D02*
X340000D01*
Y298000D01*
X348000D01*
Y290000D01*
D02*
G37*
G36*
X323000D02*
X315000D01*
Y298000D01*
X323000D01*
Y290000D01*
D02*
G37*
G36*
X373000D02*
X365000D01*
Y298000D01*
X373000D01*
Y290000D01*
D02*
G37*
G36*
X360500D02*
X352500D01*
Y298000D01*
X360500D01*
Y290000D01*
D02*
G37*
G36*
X285500D02*
X277500D01*
Y298000D01*
X285500D01*
Y290000D01*
D02*
G37*
G36*
X273000D02*
X265000D01*
Y298000D01*
X273000D01*
Y290000D01*
D02*
G37*
G36*
X310500D02*
X302500D01*
Y298000D01*
X310500D01*
Y290000D01*
D02*
G37*
G36*
X298000D02*
X290000D01*
Y298000D01*
X298000D01*
Y290000D01*
D02*
G37*
G36*
X385500D02*
X377500D01*
Y298000D01*
X385500D01*
Y290000D01*
D02*
G37*
G36*
X460500D02*
X452500D01*
Y298000D01*
X460500D01*
Y290000D01*
D02*
G37*
G36*
X448000D02*
X440000D01*
Y298000D01*
X448000D01*
Y290000D01*
D02*
G37*
G36*
X60500Y290000D02*
X52500D01*
Y298000D01*
X60500D01*
Y290000D01*
D02*
G37*
G36*
X48000D02*
X40000D01*
Y298000D01*
X48000D01*
Y290000D01*
D02*
G37*
G36*
X410500Y290000D02*
X402500D01*
Y298000D01*
X410500D01*
Y290000D01*
D02*
G37*
G36*
X398000D02*
X390000D01*
Y298000D01*
X398000D01*
Y290000D01*
D02*
G37*
G36*
X435500D02*
X427500D01*
Y298000D01*
X435500D01*
Y290000D01*
D02*
G37*
G36*
X423000D02*
X415000D01*
Y298000D01*
X423000D01*
Y290000D01*
D02*
G37*
G36*
X60500Y252500D02*
X52500D01*
Y260500D01*
X60500D01*
Y252500D01*
D02*
G37*
G36*
X48000D02*
X40000D01*
Y260500D01*
X48000D01*
Y252500D01*
D02*
G37*
G36*
X85500D02*
X77500D01*
Y260500D01*
X85500D01*
Y252500D01*
D02*
G37*
G36*
X73000D02*
X65000D01*
Y260500D01*
X73000D01*
Y252500D01*
D02*
G37*
G36*
X435500Y252500D02*
X427500D01*
Y260500D01*
X435500D01*
Y252500D01*
D02*
G37*
G36*
X423000D02*
X415000D01*
Y260500D01*
X423000D01*
Y252500D01*
D02*
G37*
G36*
X460500D02*
X452500D01*
Y260500D01*
X460500D01*
Y252500D01*
D02*
G37*
G36*
X448000D02*
X440000D01*
Y260500D01*
X448000D01*
Y252500D01*
D02*
G37*
G36*
X98000Y252500D02*
X90000D01*
Y260500D01*
X98000D01*
Y252500D01*
D02*
G37*
G36*
X173000D02*
X165000D01*
Y260500D01*
X173000D01*
Y252500D01*
D02*
G37*
G36*
X160500D02*
X152500D01*
Y260500D01*
X160500D01*
Y252500D01*
D02*
G37*
G36*
X210500Y265000D02*
X202500D01*
Y273000D01*
X210500D01*
Y265000D01*
D02*
G37*
G36*
X198000D02*
X190000D01*
Y273000D01*
X198000D01*
Y265000D01*
D02*
G37*
G36*
X123000Y252500D02*
X115000D01*
Y260500D01*
X123000D01*
Y252500D01*
D02*
G37*
G36*
X110500D02*
X102500D01*
Y260500D01*
X110500D01*
Y252500D01*
D02*
G37*
G36*
X148000D02*
X140000D01*
Y260500D01*
X148000D01*
Y252500D01*
D02*
G37*
G36*
X135500D02*
X127500D01*
Y260500D01*
X135500D01*
Y252500D01*
D02*
G37*
G36*
X260500Y252500D02*
X252500D01*
Y260500D01*
X260500D01*
Y252500D01*
D02*
G37*
G36*
X248000D02*
X240000D01*
Y260500D01*
X248000D01*
Y252500D01*
D02*
G37*
G36*
X285500D02*
X277500D01*
Y260500D01*
X285500D01*
Y252500D01*
D02*
G37*
G36*
X273000D02*
X265000D01*
Y260500D01*
X273000D01*
Y252500D01*
D02*
G37*
G36*
X210500D02*
X202500D01*
Y260500D01*
X210500D01*
Y252500D01*
D02*
G37*
G36*
X198000D02*
X190000D01*
Y260500D01*
X198000D01*
Y252500D01*
D02*
G37*
G36*
X235500D02*
X227500D01*
Y260500D01*
X235500D01*
Y252500D01*
D02*
G37*
G36*
X223000D02*
X215000D01*
Y260500D01*
X223000D01*
Y252500D01*
D02*
G37*
G36*
X298000D02*
X290000D01*
Y260500D01*
X298000D01*
Y252500D01*
D02*
G37*
G36*
X385500D02*
X377500D01*
Y260500D01*
X385500D01*
Y252500D01*
D02*
G37*
G36*
X373000D02*
X365000D01*
Y260500D01*
X373000D01*
Y252500D01*
D02*
G37*
G36*
X410500D02*
X402500D01*
Y260500D01*
X410500D01*
Y252500D01*
D02*
G37*
G36*
X398000D02*
X390000D01*
Y260500D01*
X398000D01*
Y252500D01*
D02*
G37*
G36*
X323000D02*
X315000D01*
Y260500D01*
X323000D01*
Y252500D01*
D02*
G37*
G36*
X310500D02*
X302500D01*
Y260500D01*
X310500D01*
Y252500D01*
D02*
G37*
G36*
X360500D02*
X352500D01*
Y260500D01*
X360500D01*
Y252500D01*
D02*
G37*
G36*
X348000D02*
X340000D01*
Y260500D01*
X348000D01*
Y252500D01*
D02*
G37*
G36*
X85500Y265000D02*
X77500D01*
Y273000D01*
X85500D01*
Y265000D01*
D02*
G37*
G36*
X73000D02*
X65000D01*
Y273000D01*
X73000D01*
Y265000D01*
D02*
G37*
G36*
X110500D02*
X102500D01*
Y273000D01*
X110500D01*
Y265000D01*
D02*
G37*
G36*
X98000D02*
X90000D01*
Y273000D01*
X98000D01*
Y265000D01*
D02*
G37*
G36*
X460500Y265000D02*
X452500D01*
Y273000D01*
X460500D01*
Y265000D01*
D02*
G37*
G36*
X448000D02*
X440000D01*
Y273000D01*
X448000D01*
Y265000D01*
D02*
G37*
G36*
X60500Y265000D02*
X52500D01*
Y273000D01*
X60500D01*
Y265000D01*
D02*
G37*
G36*
X48000D02*
X40000D01*
Y273000D01*
X48000D01*
Y265000D01*
D02*
G37*
G36*
X123000D02*
X115000D01*
Y273000D01*
X123000D01*
Y265000D01*
D02*
G37*
G36*
X210500Y277500D02*
X202500D01*
Y285500D01*
X210500D01*
Y277500D01*
D02*
G37*
G36*
X198000D02*
X190000D01*
Y285500D01*
X198000D01*
Y277500D01*
D02*
G37*
G36*
X235500D02*
X227500D01*
Y285500D01*
X235500D01*
Y277500D01*
D02*
G37*
G36*
X223000D02*
X215000D01*
Y285500D01*
X223000D01*
Y277500D01*
D02*
G37*
G36*
X148000Y265000D02*
X140000D01*
Y273000D01*
X148000D01*
Y265000D01*
D02*
G37*
G36*
X135500D02*
X127500D01*
Y273000D01*
X135500D01*
Y265000D01*
D02*
G37*
G36*
X173000D02*
X165000D01*
Y273000D01*
X173000D01*
Y265000D01*
D02*
G37*
G36*
X160500D02*
X152500D01*
Y273000D01*
X160500D01*
Y265000D01*
D02*
G37*
G36*
X285500Y265000D02*
X277500D01*
Y273000D01*
X285500D01*
Y265000D01*
D02*
G37*
G36*
X273000D02*
X265000D01*
Y273000D01*
X273000D01*
Y265000D01*
D02*
G37*
G36*
X310500D02*
X302500D01*
Y273000D01*
X310500D01*
Y265000D01*
D02*
G37*
G36*
X298000D02*
X290000D01*
Y273000D01*
X298000D01*
Y265000D01*
D02*
G37*
G36*
X235500D02*
X227500D01*
Y273000D01*
X235500D01*
Y265000D01*
D02*
G37*
G36*
X223000D02*
X215000D01*
Y273000D01*
X223000D01*
Y265000D01*
D02*
G37*
G36*
X260500D02*
X252500D01*
Y273000D01*
X260500D01*
Y265000D01*
D02*
G37*
G36*
X248000D02*
X240000D01*
Y273000D01*
X248000D01*
Y265000D01*
D02*
G37*
G36*
X323000D02*
X315000D01*
Y273000D01*
X323000D01*
Y265000D01*
D02*
G37*
G36*
X410500D02*
X402500D01*
Y273000D01*
X410500D01*
Y265000D01*
D02*
G37*
G36*
X398000D02*
X390000D01*
Y273000D01*
X398000D01*
Y265000D01*
D02*
G37*
G36*
X435500D02*
X427500D01*
Y273000D01*
X435500D01*
Y265000D01*
D02*
G37*
G36*
X423000D02*
X415000D01*
Y273000D01*
X423000D01*
Y265000D01*
D02*
G37*
G36*
X360500D02*
X352500D01*
Y273000D01*
X360500D01*
Y265000D01*
D02*
G37*
G36*
X348000D02*
X340000D01*
Y273000D01*
X348000D01*
Y265000D01*
D02*
G37*
G36*
X385500D02*
X377500D01*
Y273000D01*
X385500D01*
Y265000D01*
D02*
G37*
G36*
X373000D02*
X365000D01*
Y273000D01*
X373000D01*
Y265000D01*
D02*
G37*
G36*
X223000Y340000D02*
X215000D01*
Y348000D01*
X223000D01*
Y340000D01*
D02*
G37*
G36*
X210500D02*
X202500D01*
Y348000D01*
X210500D01*
Y340000D01*
D02*
G37*
G36*
X248000D02*
X240000D01*
Y348000D01*
X248000D01*
Y340000D01*
D02*
G37*
G36*
X235500D02*
X227500D01*
Y348000D01*
X235500D01*
Y340000D01*
D02*
G37*
G36*
X160500Y327500D02*
X152500D01*
Y335500D01*
X160500D01*
Y327500D01*
D02*
G37*
G36*
X148000D02*
X140000D01*
Y335500D01*
X148000D01*
Y327500D01*
D02*
G37*
G36*
X198000Y340000D02*
X190000D01*
Y348000D01*
X198000D01*
Y340000D01*
D02*
G37*
G36*
X173000Y327500D02*
X165000D01*
Y335500D01*
X173000D01*
Y327500D01*
D02*
G37*
G36*
X260500Y340000D02*
X252500D01*
Y348000D01*
X260500D01*
Y340000D01*
D02*
G37*
G36*
X348000D02*
X340000D01*
Y348000D01*
X348000D01*
Y340000D01*
D02*
G37*
G36*
X323000D02*
X315000D01*
Y348000D01*
X323000D01*
Y340000D01*
D02*
G37*
G36*
X373000D02*
X365000D01*
Y348000D01*
X373000D01*
Y340000D01*
D02*
G37*
G36*
X360500D02*
X352500D01*
Y348000D01*
X360500D01*
Y340000D01*
D02*
G37*
G36*
X285500D02*
X277500D01*
Y348000D01*
X285500D01*
Y340000D01*
D02*
G37*
G36*
X273000D02*
X265000D01*
Y348000D01*
X273000D01*
Y340000D01*
D02*
G37*
G36*
X310500D02*
X302500D01*
Y348000D01*
X310500D01*
Y340000D01*
D02*
G37*
G36*
X298000D02*
X290000D01*
Y348000D01*
X298000D01*
Y340000D01*
D02*
G37*
G36*
X423000Y327500D02*
X415000D01*
Y335500D01*
X423000D01*
Y327500D01*
D02*
G37*
G36*
X410500D02*
X402500D01*
Y335500D01*
X410500D01*
Y327500D01*
D02*
G37*
G36*
X448000D02*
X440000D01*
Y335500D01*
X448000D01*
Y327500D01*
D02*
G37*
G36*
X435500D02*
X427500D01*
Y335500D01*
X435500D01*
Y327500D01*
D02*
G37*
G36*
X373000D02*
X365000D01*
Y335500D01*
X373000D01*
Y327500D01*
D02*
G37*
G36*
X360500D02*
X352500D01*
Y335500D01*
X360500D01*
Y327500D01*
D02*
G37*
G36*
X398000D02*
X390000D01*
Y335500D01*
X398000D01*
Y327500D01*
D02*
G37*
G36*
X385500D02*
X377500D01*
Y335500D01*
X385500D01*
Y327500D01*
D02*
G37*
G36*
X460500D02*
X452500D01*
Y335500D01*
X460500D01*
Y327500D01*
D02*
G37*
G36*
X110500Y327500D02*
X102500D01*
Y335500D01*
X110500D01*
Y327500D01*
D02*
G37*
G36*
X98000D02*
X90000D01*
Y335500D01*
X98000D01*
Y327500D01*
D02*
G37*
G36*
X135500D02*
X127500D01*
Y335500D01*
X135500D01*
Y327500D01*
D02*
G37*
G36*
X123000D02*
X115000D01*
Y335500D01*
X123000D01*
Y327500D01*
D02*
G37*
G36*
X60500D02*
X52500D01*
Y335500D01*
X60500D01*
Y327500D01*
D02*
G37*
G36*
X48000D02*
X40000D01*
Y335500D01*
X48000D01*
Y327500D01*
D02*
G37*
G36*
X85500D02*
X77500D01*
Y335500D01*
X85500D01*
Y327500D01*
D02*
G37*
G36*
X73000D02*
X65000D01*
Y335500D01*
X73000D01*
Y327500D01*
D02*
G37*
G36*
X248000Y352500D02*
X240000D01*
Y360500D01*
X248000D01*
Y352500D01*
D02*
G37*
G36*
X235500D02*
X227500D01*
Y360500D01*
X235500D01*
Y352500D01*
D02*
G37*
G36*
X273000D02*
X265000D01*
Y360500D01*
X273000D01*
Y352500D01*
D02*
G37*
G36*
X260500D02*
X252500D01*
Y360500D01*
X260500D01*
Y352500D01*
D02*
G37*
G36*
X198000D02*
X190000D01*
Y360500D01*
X198000D01*
Y352500D01*
D02*
G37*
G36*
X173000Y340000D02*
X165000D01*
Y348000D01*
X173000D01*
Y340000D01*
D02*
G37*
G36*
X223000Y352500D02*
X215000D01*
Y360500D01*
X223000D01*
Y352500D01*
D02*
G37*
G36*
X210500D02*
X202500D01*
Y360500D01*
X210500D01*
Y352500D01*
D02*
G37*
G36*
X285500D02*
X277500D01*
Y360500D01*
X285500D01*
Y352500D01*
D02*
G37*
G36*
X373000D02*
X365000D01*
Y360500D01*
X373000D01*
Y352500D01*
D02*
G37*
G36*
X360500D02*
X352500D01*
Y360500D01*
X360500D01*
Y352500D01*
D02*
G37*
G36*
X398000D02*
X390000D01*
Y360500D01*
X398000D01*
Y352500D01*
D02*
G37*
G36*
X385500D02*
X377500D01*
Y360500D01*
X385500D01*
Y352500D01*
D02*
G37*
G36*
X310500D02*
X302500D01*
Y360500D01*
X310500D01*
Y352500D01*
D02*
G37*
G36*
X298000D02*
X290000D01*
Y360500D01*
X298000D01*
Y352500D01*
D02*
G37*
G36*
X348000D02*
X340000D01*
Y360500D01*
X348000D01*
Y352500D01*
D02*
G37*
G36*
X323000D02*
X315000D01*
Y360500D01*
X323000D01*
Y352500D01*
D02*
G37*
G36*
X448000Y340000D02*
X440000D01*
Y348000D01*
X448000D01*
Y340000D01*
D02*
G37*
G36*
X435500D02*
X427500D01*
Y348000D01*
X435500D01*
Y340000D01*
D02*
G37*
G36*
X48000Y340000D02*
X40000D01*
Y348000D01*
X48000D01*
Y340000D01*
D02*
G37*
G36*
X460500Y340000D02*
X452500D01*
Y348000D01*
X460500D01*
Y340000D01*
D02*
G37*
G36*
X398000D02*
X390000D01*
Y348000D01*
X398000D01*
Y340000D01*
D02*
G37*
G36*
X385500D02*
X377500D01*
Y348000D01*
X385500D01*
Y340000D01*
D02*
G37*
G36*
X423000D02*
X415000D01*
Y348000D01*
X423000D01*
Y340000D01*
D02*
G37*
G36*
X410500D02*
X402500D01*
Y348000D01*
X410500D01*
Y340000D01*
D02*
G37*
G36*
X60500Y340000D02*
X52500D01*
Y348000D01*
X60500D01*
Y340000D01*
D02*
G37*
G36*
X135500D02*
X127500D01*
Y348000D01*
X135500D01*
Y340000D01*
D02*
G37*
G36*
X123000D02*
X115000D01*
Y348000D01*
X123000D01*
Y340000D01*
D02*
G37*
G36*
X160500D02*
X152500D01*
Y348000D01*
X160500D01*
Y340000D01*
D02*
G37*
G36*
X148000D02*
X140000D01*
Y348000D01*
X148000D01*
Y340000D01*
D02*
G37*
G36*
X85500D02*
X77500D01*
Y348000D01*
X85500D01*
Y340000D01*
D02*
G37*
G36*
X73000D02*
X65000D01*
Y348000D01*
X73000D01*
Y340000D01*
D02*
G37*
G36*
X110500D02*
X102500D01*
Y348000D01*
X110500D01*
Y340000D01*
D02*
G37*
G36*
X98000D02*
X90000D01*
Y348000D01*
X98000D01*
Y340000D01*
D02*
G37*
G36*
X160500Y302500D02*
X152500D01*
Y310500D01*
X160500D01*
Y302500D01*
D02*
G37*
G36*
X148000D02*
X140000D01*
Y310500D01*
X148000D01*
Y302500D01*
D02*
G37*
G36*
X198000Y315000D02*
X190000D01*
Y323000D01*
X198000D01*
Y315000D01*
D02*
G37*
G36*
X173000Y302500D02*
X165000D01*
Y310500D01*
X173000D01*
Y302500D01*
D02*
G37*
G36*
X110500D02*
X102500D01*
Y310500D01*
X110500D01*
Y302500D01*
D02*
G37*
G36*
X98000D02*
X90000D01*
Y310500D01*
X98000D01*
Y302500D01*
D02*
G37*
G36*
X135500D02*
X127500D01*
Y310500D01*
X135500D01*
Y302500D01*
D02*
G37*
G36*
X123000D02*
X115000D01*
Y310500D01*
X123000D01*
Y302500D01*
D02*
G37*
G36*
X210500Y315000D02*
X202500D01*
Y323000D01*
X210500D01*
Y315000D01*
D02*
G37*
G36*
X285500D02*
X277500D01*
Y323000D01*
X285500D01*
Y315000D01*
D02*
G37*
G36*
X273000D02*
X265000D01*
Y323000D01*
X273000D01*
Y315000D01*
D02*
G37*
G36*
X310500D02*
X302500D01*
Y323000D01*
X310500D01*
Y315000D01*
D02*
G37*
G36*
X298000D02*
X290000D01*
Y323000D01*
X298000D01*
Y315000D01*
D02*
G37*
G36*
X235500D02*
X227500D01*
Y323000D01*
X235500D01*
Y315000D01*
D02*
G37*
G36*
X223000D02*
X215000D01*
Y323000D01*
X223000D01*
Y315000D01*
D02*
G37*
G36*
X260500D02*
X252500D01*
Y323000D01*
X260500D01*
Y315000D01*
D02*
G37*
G36*
X248000D02*
X240000D01*
Y323000D01*
X248000D01*
Y315000D01*
D02*
G37*
G36*
X373000Y302500D02*
X365000D01*
Y310500D01*
X373000D01*
Y302500D01*
D02*
G37*
G36*
X360500D02*
X352500D01*
Y310500D01*
X360500D01*
Y302500D01*
D02*
G37*
G36*
X398000D02*
X390000D01*
Y310500D01*
X398000D01*
Y302500D01*
D02*
G37*
G36*
X385500D02*
X377500D01*
Y310500D01*
X385500D01*
Y302500D01*
D02*
G37*
G36*
X310500D02*
X302500D01*
Y310500D01*
X310500D01*
Y302500D01*
D02*
G37*
G36*
X298000D02*
X290000D01*
Y310500D01*
X298000D01*
Y302500D01*
D02*
G37*
G36*
X348000D02*
X340000D01*
Y310500D01*
X348000D01*
Y302500D01*
D02*
G37*
G36*
X323000D02*
X315000D01*
Y310500D01*
X323000D01*
Y302500D01*
D02*
G37*
G36*
X410500D02*
X402500D01*
Y310500D01*
X410500D01*
Y302500D01*
D02*
G37*
G36*
X60500Y302500D02*
X52500D01*
Y310500D01*
X60500D01*
Y302500D01*
D02*
G37*
G36*
X48000D02*
X40000D01*
Y310500D01*
X48000D01*
Y302500D01*
D02*
G37*
G36*
X85500D02*
X77500D01*
Y310500D01*
X85500D01*
Y302500D01*
D02*
G37*
G36*
X73000D02*
X65000D01*
Y310500D01*
X73000D01*
Y302500D01*
D02*
G37*
G36*
X435500Y302500D02*
X427500D01*
Y310500D01*
X435500D01*
Y302500D01*
D02*
G37*
G36*
X423000D02*
X415000D01*
Y310500D01*
X423000D01*
Y302500D01*
D02*
G37*
G36*
X460500D02*
X452500D01*
Y310500D01*
X460500D01*
Y302500D01*
D02*
G37*
G36*
X448000D02*
X440000D01*
Y310500D01*
X448000D01*
Y302500D01*
D02*
G37*
G36*
X198000Y327500D02*
X190000D01*
Y335500D01*
X198000D01*
Y327500D01*
D02*
G37*
G36*
X173000Y315000D02*
X165000D01*
Y323000D01*
X173000D01*
Y315000D01*
D02*
G37*
G36*
X223000Y327500D02*
X215000D01*
Y335500D01*
X223000D01*
Y327500D01*
D02*
G37*
G36*
X210500D02*
X202500D01*
Y335500D01*
X210500D01*
Y327500D01*
D02*
G37*
G36*
X135500Y315000D02*
X127500D01*
Y323000D01*
X135500D01*
Y315000D01*
D02*
G37*
G36*
X123000D02*
X115000D01*
Y323000D01*
X123000D01*
Y315000D01*
D02*
G37*
G36*
X160500D02*
X152500D01*
Y323000D01*
X160500D01*
Y315000D01*
D02*
G37*
G36*
X148000D02*
X140000D01*
Y323000D01*
X148000D01*
Y315000D01*
D02*
G37*
G36*
X235500Y327500D02*
X227500D01*
Y335500D01*
X235500D01*
Y327500D01*
D02*
G37*
G36*
X310500D02*
X302500D01*
Y335500D01*
X310500D01*
Y327500D01*
D02*
G37*
G36*
X298000D02*
X290000D01*
Y335500D01*
X298000D01*
Y327500D01*
D02*
G37*
G36*
X348000D02*
X340000D01*
Y335500D01*
X348000D01*
Y327500D01*
D02*
G37*
G36*
X323000D02*
X315000D01*
Y335500D01*
X323000D01*
Y327500D01*
D02*
G37*
G36*
X260500D02*
X252500D01*
Y335500D01*
X260500D01*
Y327500D01*
D02*
G37*
G36*
X248000D02*
X240000D01*
Y335500D01*
X248000D01*
Y327500D01*
D02*
G37*
G36*
X285500D02*
X277500D01*
Y335500D01*
X285500D01*
Y327500D01*
D02*
G37*
G36*
X273000D02*
X265000D01*
Y335500D01*
X273000D01*
Y327500D01*
D02*
G37*
G36*
X398000Y315000D02*
X390000D01*
Y323000D01*
X398000D01*
Y315000D01*
D02*
G37*
G36*
X385500D02*
X377500D01*
Y323000D01*
X385500D01*
Y315000D01*
D02*
G37*
G36*
X423000D02*
X415000D01*
Y323000D01*
X423000D01*
Y315000D01*
D02*
G37*
G36*
X410500D02*
X402500D01*
Y323000D01*
X410500D01*
Y315000D01*
D02*
G37*
G36*
X348000D02*
X340000D01*
Y323000D01*
X348000D01*
Y315000D01*
D02*
G37*
G36*
X323000D02*
X315000D01*
Y323000D01*
X323000D01*
Y315000D01*
D02*
G37*
G36*
X373000D02*
X365000D01*
Y323000D01*
X373000D01*
Y315000D01*
D02*
G37*
G36*
X360500D02*
X352500D01*
Y323000D01*
X360500D01*
Y315000D01*
D02*
G37*
G36*
X435500D02*
X427500D01*
Y323000D01*
X435500D01*
Y315000D01*
D02*
G37*
G36*
X85500Y315000D02*
X77500D01*
Y323000D01*
X85500D01*
Y315000D01*
D02*
G37*
G36*
X73000D02*
X65000D01*
Y323000D01*
X73000D01*
Y315000D01*
D02*
G37*
G36*
X110500D02*
X102500D01*
Y323000D01*
X110500D01*
Y315000D01*
D02*
G37*
G36*
X98000D02*
X90000D01*
Y323000D01*
X98000D01*
Y315000D01*
D02*
G37*
G36*
X460500Y315000D02*
X452500D01*
Y323000D01*
X460500D01*
Y315000D01*
D02*
G37*
G36*
X448000D02*
X440000D01*
Y323000D01*
X448000D01*
Y315000D01*
D02*
G37*
G36*
X60500Y315000D02*
X52500D01*
Y323000D01*
X60500D01*
Y315000D01*
D02*
G37*
G36*
X48000D02*
X40000D01*
Y323000D01*
X48000D01*
Y315000D01*
D02*
G37*
D19*
X227000Y479000D02*
D03*
X207000D02*
D03*
X187000D02*
D03*
X167000D02*
D03*
X147000D02*
D03*
X127000D02*
D03*
X107000D02*
D03*
X87000D02*
D03*
X67000D02*
D03*
X47000D02*
D03*
D20*
X249800Y478750D02*
D03*
X275200D02*
D03*
X300600D02*
D03*
X326000D02*
D03*
X351400D02*
D03*
X376800D02*
D03*
X402200D02*
D03*
X427600D02*
D03*
X453000D02*
D03*
X453750Y21500D02*
D03*
X428350D02*
D03*
X402950D02*
D03*
X377550D02*
D03*
X352150D02*
D03*
X326750D02*
D03*
X301350D02*
D03*
X275950D02*
D03*
X250550D02*
D03*
D21*
X225000Y20000D02*
D03*
X210000D02*
D03*
X195000D02*
D03*
X180000D02*
D03*
X165000D02*
D03*
X150000D02*
D03*
X135000D02*
D03*
X120000D02*
D03*
X105000D02*
D03*
X90000D02*
D03*
X75000D02*
D03*
X60000D02*
D03*
X45000D02*
D03*
D22*
X478600Y478600D02*
D03*
Y453200D02*
D03*
Y427800D02*
D03*
Y402400D02*
D03*
Y377000D02*
D03*
Y351600D02*
D03*
Y326200D02*
D03*
Y300800D02*
D03*
Y275400D02*
D03*
Y250000D02*
D03*
Y224600D02*
D03*
Y199200D02*
D03*
Y173800D02*
D03*
Y148400D02*
D03*
Y123000D02*
D03*
Y97600D02*
D03*
Y72200D02*
D03*
Y46800D02*
D03*
Y21400D02*
D03*
X21400Y478600D02*
D03*
Y453200D02*
D03*
Y427800D02*
D03*
Y402400D02*
D03*
Y377000D02*
D03*
Y351600D02*
D03*
Y326200D02*
D03*
Y300800D02*
D03*
Y275400D02*
D03*
Y250000D02*
D03*
Y224600D02*
D03*
Y199200D02*
D03*
Y173800D02*
D03*
Y148400D02*
D03*
Y123000D02*
D03*
Y97600D02*
D03*
Y72200D02*
D03*
Y46800D02*
D03*
Y21400D02*
D03*
D23*
X332000Y454250D02*
D03*
Y439176D02*
D03*
Y424102D02*
D03*
Y378880D02*
D03*
Y393954D02*
D03*
Y409028D02*
D03*
Y318583D02*
D03*
Y303509D02*
D03*
Y288435D02*
D03*
Y333657D02*
D03*
Y348732D02*
D03*
Y363806D02*
D03*
Y273361D02*
D03*
Y258287D02*
D03*
Y243213D02*
D03*
Y197991D02*
D03*
Y213065D02*
D03*
Y228139D02*
D03*
Y182917D02*
D03*
Y167843D02*
D03*
Y152769D02*
D03*
Y107547D02*
D03*
Y122621D02*
D03*
Y137695D02*
D03*
Y92472D02*
D03*
Y77398D02*
D03*
Y62324D02*
D03*
Y47250D02*
D03*
X181750Y47250D02*
D03*
Y62324D02*
D03*
Y77398D02*
D03*
Y92472D02*
D03*
Y137694D02*
D03*
Y122620D02*
D03*
Y107546D02*
D03*
Y152768D02*
D03*
Y167843D02*
D03*
Y182917D02*
D03*
Y228139D02*
D03*
Y213065D02*
D03*
Y197991D02*
D03*
Y243213D02*
D03*
Y258287D02*
D03*
Y273361D02*
D03*
Y363805D02*
D03*
Y348731D02*
D03*
Y333657D02*
D03*
Y288435D02*
D03*
Y303509D02*
D03*
Y318583D02*
D03*
Y409027D02*
D03*
Y393953D02*
D03*
Y378879D02*
D03*
Y424101D02*
D03*
Y439176D02*
D03*
Y454250D02*
D03*
M02*
