M48
;Layer_Color=9474304
;FILE_FORMAT=4:4
METRIC,LZ
;TYPE=PLATED
T1F00S00C0.5000
T2F00S00C0.9000
%
T01
X0018175Y0004725
Y00062324
Y00077398
Y00092472
Y00107546
Y0012262
Y00137694
Y00152768
Y00167843
X00332Y00167843
Y00152769
Y00137695
Y00122621
Y00107547
Y00092472
Y00077398
Y00062324
Y0004725
Y00182917
Y00197991
Y00213065
Y00228139
Y00243213
Y00258287
Y00273361
Y00288435
Y00303509
Y00318583
Y00333657
Y00348732
Y00363806
Y0037888
Y00393954
Y00409028
Y00424102
Y00439176
Y0045425
X0018175Y0045425
Y00439176
Y00424101
Y00409027
Y00393953
Y00378879
Y00363805
Y00348731
Y00333657
Y00318583
Y00303509
Y00288435
Y00273361
Y00258287
Y00243213
Y00228139
Y00213065
Y00197991
Y00182917
T02
X0015Y0002
X00165
X0018
X00195
X0021
X00225
X0025055Y000215
X0027595
X0030135
X0032675
X0035215
X0037755
X0040295
X0042835
X0045375
X004786Y000214
Y000468
Y000722
Y000976
Y00123
Y001484
X000214
Y00123
Y000976
Y000722
Y000468
Y000214
X00045Y0002
X0006
X00075
X0009
X00105
X0012
X00135
X000214Y001738
Y001992
Y002246
Y0025
Y002754
Y003008
Y003262
Y003516
Y00377
Y004024
Y004278
Y004532
Y004786
X00047Y00479
X00067
X00087
X00107
X00127
X00147
X00167
X00187
X00207
X00227
X002498Y0047875
X002752
X003006
X00326
X003514
X003768
X004022
X004276
X00453
X004786Y004786
Y004532
Y004278
Y004024
Y00377
Y003516
Y003262
Y003008
Y002754
Y0025
Y002246
Y001992
Y001738
M30
