G04 Layer_Color=16711935*
%FSLAX44Y44*%
%MOMM*%
G71*
G01*
G75*
%ADD19P,1.8435X8X22.5*%
%ADD20P,2.3847X8X22.5*%
G04:AMPARAMS|DCode=21|XSize=1.5032mm|YSize=2.2032mm|CornerRadius=0mm|HoleSize=0mm|Usage=FLASHONLY|Rotation=0.000|XOffset=0mm|YOffset=0mm|HoleType=Round|Shape=Octagon|*
%AMOCTAGOND21*
4,1,8,-0.3758,1.1016,0.3758,1.1016,0.7516,0.7258,0.7516,-0.7258,0.3758,-1.1016,-0.3758,-1.1016,-0.7516,-0.7258,-0.7516,0.7258,-0.3758,1.1016,0.0*
%
%ADD21OCTAGOND21*%

%ADD22P,2.3847X8X112.5*%
%ADD23C,1.2032*%
%ADD24R,2.2032X0.7032*%
%ADD25R,2.4032X0.8032*%
%ADD26R,1.4032X0.5032*%
%ADD27R,1.7032X0.6032*%
G36*
X210500Y177500D02*
X202500D01*
Y185500D01*
X210500D01*
Y177500D01*
D02*
G37*
G36*
X223000D02*
X215000D01*
Y185500D01*
X223000D01*
Y177500D01*
D02*
G37*
G36*
X198000D02*
X190000D01*
Y185500D01*
X198000D01*
Y177500D01*
D02*
G37*
G36*
X350500Y165000D02*
X342500D01*
Y173000D01*
X350500D01*
Y165000D01*
D02*
G37*
G36*
X363000D02*
X355000D01*
Y173000D01*
X363000D01*
Y165000D01*
D02*
G37*
G36*
X235500Y177500D02*
X227500D01*
Y185500D01*
X235500D01*
Y177500D01*
D02*
G37*
G36*
X285500D02*
X277500D01*
Y185500D01*
X285500D01*
Y177500D01*
D02*
G37*
G36*
X298000D02*
X290000D01*
Y185500D01*
X298000D01*
Y177500D01*
D02*
G37*
G36*
X273000D02*
X265000D01*
Y185500D01*
X273000D01*
Y177500D01*
D02*
G37*
G36*
X248000D02*
X240000D01*
Y185500D01*
X248000D01*
Y177500D01*
D02*
G37*
G36*
X260500D02*
X252500D01*
Y185500D01*
X260500D01*
Y177500D01*
D02*
G37*
G36*
X323000Y165000D02*
X315000D01*
Y173000D01*
X323000D01*
Y165000D01*
D02*
G37*
G36*
X73000Y165000D02*
X65000D01*
Y173000D01*
X73000D01*
Y165000D01*
D02*
G37*
G36*
X310500Y165000D02*
X302500D01*
Y173000D01*
X310500D01*
Y165000D01*
D02*
G37*
G36*
X285500D02*
X277500D01*
Y173000D01*
X285500D01*
Y165000D01*
D02*
G37*
G36*
X298000D02*
X290000D01*
Y173000D01*
X298000D01*
Y165000D01*
D02*
G37*
G36*
X85500Y165000D02*
X77500D01*
Y173000D01*
X85500D01*
Y165000D01*
D02*
G37*
G36*
X135500D02*
X127500D01*
Y173000D01*
X135500D01*
Y165000D01*
D02*
G37*
G36*
X148000D02*
X140000D01*
Y173000D01*
X148000D01*
Y165000D01*
D02*
G37*
G36*
X123000D02*
X115000D01*
Y173000D01*
X123000D01*
Y165000D01*
D02*
G37*
G36*
X98000D02*
X90000D01*
Y173000D01*
X98000D01*
Y165000D01*
D02*
G37*
G36*
X110500D02*
X102500D01*
Y173000D01*
X110500D01*
Y165000D01*
D02*
G37*
G36*
X235500Y190000D02*
X227500D01*
Y198000D01*
X235500D01*
Y190000D01*
D02*
G37*
G36*
X248000D02*
X240000D01*
Y198000D01*
X248000D01*
Y190000D01*
D02*
G37*
G36*
X223000D02*
X215000D01*
Y198000D01*
X223000D01*
Y190000D01*
D02*
G37*
G36*
X198000D02*
X190000D01*
Y198000D01*
X198000D01*
Y190000D01*
D02*
G37*
G36*
X210500D02*
X202500D01*
Y198000D01*
X210500D01*
Y190000D01*
D02*
G37*
G36*
X260500D02*
X252500D01*
Y198000D01*
X260500D01*
Y190000D01*
D02*
G37*
G36*
X310500D02*
X302500D01*
Y198000D01*
X310500D01*
Y190000D01*
D02*
G37*
G36*
X323000D02*
X315000D01*
Y198000D01*
X323000D01*
Y190000D01*
D02*
G37*
G36*
X298000D02*
X290000D01*
Y198000D01*
X298000D01*
Y190000D01*
D02*
G37*
G36*
X273000D02*
X265000D01*
Y198000D01*
X273000D01*
Y190000D01*
D02*
G37*
G36*
X285500D02*
X277500D01*
Y198000D01*
X285500D01*
Y190000D01*
D02*
G37*
G36*
X85500Y177500D02*
X77500D01*
Y185500D01*
X85500D01*
Y177500D01*
D02*
G37*
G36*
X98000D02*
X90000D01*
Y185500D01*
X98000D01*
Y177500D01*
D02*
G37*
G36*
X73000D02*
X65000D01*
Y185500D01*
X73000D01*
Y177500D01*
D02*
G37*
G36*
X310500Y177500D02*
X302500D01*
Y185500D01*
X310500D01*
Y177500D01*
D02*
G37*
G36*
X323000D02*
X315000D01*
Y185500D01*
X323000D01*
Y177500D01*
D02*
G37*
G36*
X110500Y177500D02*
X102500D01*
Y185500D01*
X110500D01*
Y177500D01*
D02*
G37*
G36*
X350500D02*
X342500D01*
Y185500D01*
X350500D01*
Y177500D01*
D02*
G37*
G36*
X363000D02*
X355000D01*
Y185500D01*
X363000D01*
Y177500D01*
D02*
G37*
G36*
X148000D02*
X140000D01*
Y185500D01*
X148000D01*
Y177500D01*
D02*
G37*
G36*
X123000D02*
X115000D01*
Y185500D01*
X123000D01*
Y177500D01*
D02*
G37*
G36*
X135500D02*
X127500D01*
Y185500D01*
X135500D01*
Y177500D01*
D02*
G37*
G36*
X148000Y140000D02*
X140000D01*
Y148000D01*
X148000D01*
Y140000D01*
D02*
G37*
G36*
X350500D02*
X342500D01*
Y148000D01*
X350500D01*
Y140000D01*
D02*
G37*
G36*
X135500D02*
X127500D01*
Y148000D01*
X135500D01*
Y140000D01*
D02*
G37*
G36*
X110500D02*
X102500D01*
Y148000D01*
X110500D01*
Y140000D01*
D02*
G37*
G36*
X123000D02*
X115000D01*
Y148000D01*
X123000D01*
Y140000D01*
D02*
G37*
G36*
X363000D02*
X355000D01*
Y148000D01*
X363000D01*
Y140000D01*
D02*
G37*
G36*
X235500Y152500D02*
X227500D01*
Y160500D01*
X235500D01*
Y152500D01*
D02*
G37*
G36*
X248000D02*
X240000D01*
Y160500D01*
X248000D01*
Y152500D01*
D02*
G37*
G36*
X223000D02*
X215000D01*
Y160500D01*
X223000D01*
Y152500D01*
D02*
G37*
G36*
X198000D02*
X190000D01*
Y160500D01*
X198000D01*
Y152500D01*
D02*
G37*
G36*
X210500D02*
X202500D01*
Y160500D01*
X210500D01*
Y152500D01*
D02*
G37*
G36*
X273000Y140000D02*
X265000D01*
Y148000D01*
X273000D01*
Y140000D01*
D02*
G37*
G36*
X285500D02*
X277500D01*
Y148000D01*
X285500D01*
Y140000D01*
D02*
G37*
G36*
X260500D02*
X252500D01*
Y148000D01*
X260500D01*
Y140000D01*
D02*
G37*
G36*
X235500D02*
X227500D01*
Y148000D01*
X235500D01*
Y140000D01*
D02*
G37*
G36*
X248000D02*
X240000D01*
Y148000D01*
X248000D01*
Y140000D01*
D02*
G37*
G36*
X298000D02*
X290000D01*
Y148000D01*
X298000D01*
Y140000D01*
D02*
G37*
G36*
X85500Y140000D02*
X77500D01*
Y148000D01*
X85500D01*
Y140000D01*
D02*
G37*
G36*
X98000D02*
X90000D01*
Y148000D01*
X98000D01*
Y140000D01*
D02*
G37*
G36*
X73000D02*
X65000D01*
Y148000D01*
X73000D01*
Y140000D01*
D02*
G37*
G36*
X310500Y140000D02*
X302500D01*
Y148000D01*
X310500D01*
Y140000D01*
D02*
G37*
G36*
X323000D02*
X315000D01*
Y148000D01*
X323000D01*
Y140000D01*
D02*
G37*
G36*
X363000Y152500D02*
X355000D01*
Y160500D01*
X363000D01*
Y152500D01*
D02*
G37*
G36*
X198000Y165000D02*
X190000D01*
Y173000D01*
X198000D01*
Y165000D01*
D02*
G37*
G36*
X350500Y152500D02*
X342500D01*
Y160500D01*
X350500D01*
Y152500D01*
D02*
G37*
G36*
X135500D02*
X127500D01*
Y160500D01*
X135500D01*
Y152500D01*
D02*
G37*
G36*
X148000D02*
X140000D01*
Y160500D01*
X148000D01*
Y152500D01*
D02*
G37*
G36*
X210500Y165000D02*
X202500D01*
Y173000D01*
X210500D01*
Y165000D01*
D02*
G37*
G36*
X260500D02*
X252500D01*
Y173000D01*
X260500D01*
Y165000D01*
D02*
G37*
G36*
X273000D02*
X265000D01*
Y173000D01*
X273000D01*
Y165000D01*
D02*
G37*
G36*
X248000D02*
X240000D01*
Y173000D01*
X248000D01*
Y165000D01*
D02*
G37*
G36*
X223000D02*
X215000D01*
Y173000D01*
X223000D01*
Y165000D01*
D02*
G37*
G36*
X235500D02*
X227500D01*
Y173000D01*
X235500D01*
Y165000D01*
D02*
G37*
G36*
X298000Y152500D02*
X290000D01*
Y160500D01*
X298000D01*
Y152500D01*
D02*
G37*
G36*
X310500D02*
X302500D01*
Y160500D01*
X310500D01*
Y152500D01*
D02*
G37*
G36*
X285500D02*
X277500D01*
Y160500D01*
X285500D01*
Y152500D01*
D02*
G37*
G36*
X260500D02*
X252500D01*
Y160500D01*
X260500D01*
Y152500D01*
D02*
G37*
G36*
X273000D02*
X265000D01*
Y160500D01*
X273000D01*
Y152500D01*
D02*
G37*
G36*
X323000D02*
X315000D01*
Y160500D01*
X323000D01*
Y152500D01*
D02*
G37*
G36*
X110500Y152500D02*
X102500D01*
Y160500D01*
X110500D01*
Y152500D01*
D02*
G37*
G36*
X123000D02*
X115000D01*
Y160500D01*
X123000D01*
Y152500D01*
D02*
G37*
G36*
X98000D02*
X90000D01*
Y160500D01*
X98000D01*
Y152500D01*
D02*
G37*
G36*
X73000D02*
X65000D01*
Y160500D01*
X73000D01*
Y152500D01*
D02*
G37*
G36*
X85500D02*
X77500D01*
Y160500D01*
X85500D01*
Y152500D01*
D02*
G37*
G36*
X310500Y227500D02*
X302500D01*
Y235500D01*
X310500D01*
Y227500D01*
D02*
G37*
G36*
X323000D02*
X315000D01*
Y235500D01*
X323000D01*
Y227500D01*
D02*
G37*
G36*
X298000D02*
X290000D01*
Y235500D01*
X298000D01*
Y227500D01*
D02*
G37*
G36*
X273000D02*
X265000D01*
Y235500D01*
X273000D01*
Y227500D01*
D02*
G37*
G36*
X285500D02*
X277500D01*
Y235500D01*
X285500D01*
Y227500D01*
D02*
G37*
G36*
X73000Y227500D02*
X65000D01*
Y235500D01*
X73000D01*
Y227500D01*
D02*
G37*
G36*
X123000D02*
X115000D01*
Y235500D01*
X123000D01*
Y227500D01*
D02*
G37*
G36*
X135500D02*
X127500D01*
Y235500D01*
X135500D01*
Y227500D01*
D02*
G37*
G36*
X110500D02*
X102500D01*
Y235500D01*
X110500D01*
Y227500D01*
D02*
G37*
G36*
X85500D02*
X77500D01*
Y235500D01*
X85500D01*
Y227500D01*
D02*
G37*
G36*
X98000D02*
X90000D01*
Y235500D01*
X98000D01*
Y227500D01*
D02*
G37*
G36*
X350500Y215000D02*
X342500D01*
Y223000D01*
X350500D01*
Y215000D01*
D02*
G37*
G36*
X363000D02*
X355000D01*
Y223000D01*
X363000D01*
Y215000D01*
D02*
G37*
G36*
X148000D02*
X140000D01*
Y223000D01*
X148000D01*
Y215000D01*
D02*
G37*
G36*
X123000D02*
X115000D01*
Y223000D01*
X123000D01*
Y215000D01*
D02*
G37*
G36*
X135500D02*
X127500D01*
Y223000D01*
X135500D01*
Y215000D01*
D02*
G37*
G36*
X198000Y227500D02*
X190000D01*
Y235500D01*
X198000D01*
Y227500D01*
D02*
G37*
G36*
X248000D02*
X240000D01*
Y235500D01*
X248000D01*
Y227500D01*
D02*
G37*
G36*
X260500D02*
X252500D01*
Y235500D01*
X260500D01*
Y227500D01*
D02*
G37*
G36*
X235500D02*
X227500D01*
Y235500D01*
X235500D01*
Y227500D01*
D02*
G37*
G36*
X210500D02*
X202500D01*
Y235500D01*
X210500D01*
Y227500D01*
D02*
G37*
G36*
X223000D02*
X215000D01*
Y235500D01*
X223000D01*
Y227500D01*
D02*
G37*
G36*
X73000Y240000D02*
X65000D01*
Y248000D01*
X73000D01*
Y240000D01*
D02*
G37*
G36*
X85500D02*
X77500D01*
Y248000D01*
X85500D01*
Y240000D01*
D02*
G37*
G36*
X323000Y240000D02*
X315000D01*
Y248000D01*
X323000D01*
Y240000D01*
D02*
G37*
G36*
X298000D02*
X290000D01*
Y248000D01*
X298000D01*
Y240000D01*
D02*
G37*
G36*
X310500D02*
X302500D01*
Y248000D01*
X310500D01*
Y240000D01*
D02*
G37*
G36*
X98000Y240000D02*
X90000D01*
Y248000D01*
X98000D01*
Y240000D01*
D02*
G37*
G36*
X148000D02*
X140000D01*
Y248000D01*
X148000D01*
Y240000D01*
D02*
G37*
G36*
X350500D02*
X342500D01*
Y248000D01*
X350500D01*
Y240000D01*
D02*
G37*
G36*
X135500D02*
X127500D01*
Y248000D01*
X135500D01*
Y240000D01*
D02*
G37*
G36*
X110500D02*
X102500D01*
Y248000D01*
X110500D01*
Y240000D01*
D02*
G37*
G36*
X123000D02*
X115000D01*
Y248000D01*
X123000D01*
Y240000D01*
D02*
G37*
G36*
X198000Y240000D02*
X190000D01*
Y248000D01*
X198000D01*
Y240000D01*
D02*
G37*
G36*
X210500D02*
X202500D01*
Y248000D01*
X210500D01*
Y240000D01*
D02*
G37*
G36*
X363000Y227500D02*
X355000D01*
Y235500D01*
X363000D01*
Y227500D01*
D02*
G37*
G36*
X148000D02*
X140000D01*
Y235500D01*
X148000D01*
Y227500D01*
D02*
G37*
G36*
X350500D02*
X342500D01*
Y235500D01*
X350500D01*
Y227500D01*
D02*
G37*
G36*
X223000Y240000D02*
X215000D01*
Y248000D01*
X223000D01*
Y240000D01*
D02*
G37*
G36*
X273000D02*
X265000D01*
Y248000D01*
X273000D01*
Y240000D01*
D02*
G37*
G36*
X285500D02*
X277500D01*
Y248000D01*
X285500D01*
Y240000D01*
D02*
G37*
G36*
X260500D02*
X252500D01*
Y248000D01*
X260500D01*
Y240000D01*
D02*
G37*
G36*
X235500D02*
X227500D01*
Y248000D01*
X235500D01*
Y240000D01*
D02*
G37*
G36*
X248000D02*
X240000D01*
Y248000D01*
X248000D01*
Y240000D01*
D02*
G37*
G36*
X260500Y202500D02*
X252500D01*
Y210500D01*
X260500D01*
Y202500D01*
D02*
G37*
G36*
X273000D02*
X265000D01*
Y210500D01*
X273000D01*
Y202500D01*
D02*
G37*
G36*
X248000D02*
X240000D01*
Y210500D01*
X248000D01*
Y202500D01*
D02*
G37*
G36*
X223000D02*
X215000D01*
Y210500D01*
X223000D01*
Y202500D01*
D02*
G37*
G36*
X235500D02*
X227500D01*
Y210500D01*
X235500D01*
Y202500D01*
D02*
G37*
G36*
X285500D02*
X277500D01*
Y210500D01*
X285500D01*
Y202500D01*
D02*
G37*
G36*
X73000Y202500D02*
X65000D01*
Y210500D01*
X73000D01*
Y202500D01*
D02*
G37*
G36*
X85500D02*
X77500D01*
Y210500D01*
X85500D01*
Y202500D01*
D02*
G37*
G36*
X323000Y202500D02*
X315000D01*
Y210500D01*
X323000D01*
Y202500D01*
D02*
G37*
G36*
X298000D02*
X290000D01*
Y210500D01*
X298000D01*
Y202500D01*
D02*
G37*
G36*
X310500D02*
X302500D01*
Y210500D01*
X310500D01*
Y202500D01*
D02*
G37*
G36*
X110500Y190000D02*
X102500D01*
Y198000D01*
X110500D01*
Y190000D01*
D02*
G37*
G36*
X123000D02*
X115000D01*
Y198000D01*
X123000D01*
Y190000D01*
D02*
G37*
G36*
X98000D02*
X90000D01*
Y198000D01*
X98000D01*
Y190000D01*
D02*
G37*
G36*
X73000D02*
X65000D01*
Y198000D01*
X73000D01*
Y190000D01*
D02*
G37*
G36*
X85500D02*
X77500D01*
Y198000D01*
X85500D01*
Y190000D01*
D02*
G37*
G36*
X135500D02*
X127500D01*
Y198000D01*
X135500D01*
Y190000D01*
D02*
G37*
G36*
X198000Y202500D02*
X190000D01*
Y210500D01*
X198000D01*
Y202500D01*
D02*
G37*
G36*
X210500D02*
X202500D01*
Y210500D01*
X210500D01*
Y202500D01*
D02*
G37*
G36*
X363000Y190000D02*
X355000D01*
Y198000D01*
X363000D01*
Y190000D01*
D02*
G37*
G36*
X148000D02*
X140000D01*
Y198000D01*
X148000D01*
Y190000D01*
D02*
G37*
G36*
X350500D02*
X342500D01*
Y198000D01*
X350500D01*
Y190000D01*
D02*
G37*
G36*
X285500Y215000D02*
X277500D01*
Y223000D01*
X285500D01*
Y215000D01*
D02*
G37*
G36*
X298000D02*
X290000D01*
Y223000D01*
X298000D01*
Y215000D01*
D02*
G37*
G36*
X273000D02*
X265000D01*
Y223000D01*
X273000D01*
Y215000D01*
D02*
G37*
G36*
X248000D02*
X240000D01*
Y223000D01*
X248000D01*
Y215000D01*
D02*
G37*
G36*
X260500D02*
X252500D01*
Y223000D01*
X260500D01*
Y215000D01*
D02*
G37*
G36*
X310500D02*
X302500D01*
Y223000D01*
X310500D01*
Y215000D01*
D02*
G37*
G36*
X98000Y215000D02*
X90000D01*
Y223000D01*
X98000D01*
Y215000D01*
D02*
G37*
G36*
X110500D02*
X102500D01*
Y223000D01*
X110500D01*
Y215000D01*
D02*
G37*
G36*
X85500D02*
X77500D01*
Y223000D01*
X85500D01*
Y215000D01*
D02*
G37*
G36*
X323000Y215000D02*
X315000D01*
Y223000D01*
X323000D01*
Y215000D01*
D02*
G37*
G36*
X73000Y215000D02*
X65000D01*
Y223000D01*
X73000D01*
Y215000D01*
D02*
G37*
G36*
X135500Y202500D02*
X127500D01*
Y210500D01*
X135500D01*
Y202500D01*
D02*
G37*
G36*
X148000D02*
X140000D01*
Y210500D01*
X148000D01*
Y202500D01*
D02*
G37*
G36*
X123000D02*
X115000D01*
Y210500D01*
X123000D01*
Y202500D01*
D02*
G37*
G36*
X98000D02*
X90000D01*
Y210500D01*
X98000D01*
Y202500D01*
D02*
G37*
G36*
X110500D02*
X102500D01*
Y210500D01*
X110500D01*
Y202500D01*
D02*
G37*
G36*
X350500D02*
X342500D01*
Y210500D01*
X350500D01*
Y202500D01*
D02*
G37*
G36*
X223000Y215000D02*
X215000D01*
Y223000D01*
X223000D01*
Y215000D01*
D02*
G37*
G36*
X235500D02*
X227500D01*
Y223000D01*
X235500D01*
Y215000D01*
D02*
G37*
G36*
X210500D02*
X202500D01*
Y223000D01*
X210500D01*
Y215000D01*
D02*
G37*
G36*
X363000Y202500D02*
X355000D01*
Y210500D01*
X363000D01*
Y202500D01*
D02*
G37*
G36*
X198000Y215000D02*
X190000D01*
Y223000D01*
X198000D01*
Y215000D01*
D02*
G37*
G36*
X260500Y65000D02*
X252500D01*
Y73000D01*
X260500D01*
Y65000D01*
D02*
G37*
G36*
X273000D02*
X265000D01*
Y73000D01*
X273000D01*
Y65000D01*
D02*
G37*
G36*
X248000D02*
X240000D01*
Y73000D01*
X248000D01*
Y65000D01*
D02*
G37*
G36*
X223000D02*
X215000D01*
Y73000D01*
X223000D01*
Y65000D01*
D02*
G37*
G36*
X235500D02*
X227500D01*
Y73000D01*
X235500D01*
Y65000D01*
D02*
G37*
G36*
X285500D02*
X277500D01*
Y73000D01*
X285500D01*
Y65000D01*
D02*
G37*
G36*
X73000Y65000D02*
X65000D01*
Y73000D01*
X73000D01*
Y65000D01*
D02*
G37*
G36*
X85500D02*
X77500D01*
Y73000D01*
X85500D01*
Y65000D01*
D02*
G37*
G36*
X323000Y65000D02*
X315000D01*
Y73000D01*
X323000D01*
Y65000D01*
D02*
G37*
G36*
X298000D02*
X290000D01*
Y73000D01*
X298000D01*
Y65000D01*
D02*
G37*
G36*
X310500D02*
X302500D01*
Y73000D01*
X310500D01*
Y65000D01*
D02*
G37*
G36*
X110500Y52500D02*
X102500D01*
Y60500D01*
X110500D01*
Y52500D01*
D02*
G37*
G36*
X123000D02*
X115000D01*
Y60500D01*
X123000D01*
Y52500D01*
D02*
G37*
G36*
X98000D02*
X90000D01*
Y60500D01*
X98000D01*
Y52500D01*
D02*
G37*
G36*
X73000D02*
X65000D01*
Y60500D01*
X73000D01*
Y52500D01*
D02*
G37*
G36*
X85500D02*
X77500D01*
Y60500D01*
X85500D01*
Y52500D01*
D02*
G37*
G36*
X135500D02*
X127500D01*
Y60500D01*
X135500D01*
Y52500D01*
D02*
G37*
G36*
X198000Y65000D02*
X190000D01*
Y73000D01*
X198000D01*
Y65000D01*
D02*
G37*
G36*
X210500D02*
X202500D01*
Y73000D01*
X210500D01*
Y65000D01*
D02*
G37*
G36*
X363000Y52500D02*
X355000D01*
Y60500D01*
X363000D01*
Y52500D01*
D02*
G37*
G36*
X148000D02*
X140000D01*
Y60500D01*
X148000D01*
Y52500D01*
D02*
G37*
G36*
X350500D02*
X342500D01*
Y60500D01*
X350500D01*
Y52500D01*
D02*
G37*
G36*
X285500Y77500D02*
X277500D01*
Y85500D01*
X285500D01*
Y77500D01*
D02*
G37*
G36*
X298000D02*
X290000D01*
Y85500D01*
X298000D01*
Y77500D01*
D02*
G37*
G36*
X273000D02*
X265000D01*
Y85500D01*
X273000D01*
Y77500D01*
D02*
G37*
G36*
X248000D02*
X240000D01*
Y85500D01*
X248000D01*
Y77500D01*
D02*
G37*
G36*
X260500D02*
X252500D01*
Y85500D01*
X260500D01*
Y77500D01*
D02*
G37*
G36*
X310500D02*
X302500D01*
Y85500D01*
X310500D01*
Y77500D01*
D02*
G37*
G36*
X98000Y77500D02*
X90000D01*
Y85500D01*
X98000D01*
Y77500D01*
D02*
G37*
G36*
X110500D02*
X102500D01*
Y85500D01*
X110500D01*
Y77500D01*
D02*
G37*
G36*
X85500D02*
X77500D01*
Y85500D01*
X85500D01*
Y77500D01*
D02*
G37*
G36*
X323000Y77500D02*
X315000D01*
Y85500D01*
X323000D01*
Y77500D01*
D02*
G37*
G36*
X73000Y77500D02*
X65000D01*
Y85500D01*
X73000D01*
Y77500D01*
D02*
G37*
G36*
X135500Y65000D02*
X127500D01*
Y73000D01*
X135500D01*
Y65000D01*
D02*
G37*
G36*
X148000D02*
X140000D01*
Y73000D01*
X148000D01*
Y65000D01*
D02*
G37*
G36*
X123000D02*
X115000D01*
Y73000D01*
X123000D01*
Y65000D01*
D02*
G37*
G36*
X98000D02*
X90000D01*
Y73000D01*
X98000D01*
Y65000D01*
D02*
G37*
G36*
X110500D02*
X102500D01*
Y73000D01*
X110500D01*
Y65000D01*
D02*
G37*
G36*
X350500D02*
X342500D01*
Y73000D01*
X350500D01*
Y65000D01*
D02*
G37*
G36*
X223000Y77500D02*
X215000D01*
Y85500D01*
X223000D01*
Y77500D01*
D02*
G37*
G36*
X235500D02*
X227500D01*
Y85500D01*
X235500D01*
Y77500D01*
D02*
G37*
G36*
X210500D02*
X202500D01*
Y85500D01*
X210500D01*
Y77500D01*
D02*
G37*
G36*
X363000Y65000D02*
X355000D01*
Y73000D01*
X363000D01*
Y65000D01*
D02*
G37*
G36*
X198000Y77500D02*
X190000D01*
Y85500D01*
X198000D01*
Y77500D01*
D02*
G37*
G36*
X375500Y40000D02*
X367500D01*
Y48000D01*
X375500D01*
Y40000D01*
D02*
G37*
G36*
X388000D02*
X380000D01*
Y48000D01*
X388000D01*
Y40000D01*
D02*
G37*
G36*
X323000D02*
X315000D01*
Y48000D01*
X323000D01*
Y40000D01*
D02*
G37*
G36*
X298000D02*
X290000D01*
Y48000D01*
X298000D01*
Y40000D01*
D02*
G37*
G36*
X310500D02*
X302500D01*
Y48000D01*
X310500D01*
Y40000D01*
D02*
G37*
G36*
X400500D02*
X392500D01*
Y48000D01*
X400500D01*
Y40000D01*
D02*
G37*
G36*
X85500Y40000D02*
X77500D01*
Y48000D01*
X85500D01*
Y40000D01*
D02*
G37*
G36*
X98000D02*
X90000D01*
Y48000D01*
X98000D01*
Y40000D01*
D02*
G37*
G36*
X73000D02*
X65000D01*
Y48000D01*
X73000D01*
Y40000D01*
D02*
G37*
G36*
X413000Y40000D02*
X405000D01*
Y48000D01*
X413000D01*
Y40000D01*
D02*
G37*
G36*
X425500D02*
X417500D01*
Y48000D01*
X425500D01*
Y40000D01*
D02*
G37*
G36*
X198000D02*
X190000D01*
Y48000D01*
X198000D01*
Y40000D01*
D02*
G37*
G36*
X210500D02*
X202500D01*
Y48000D01*
X210500D01*
Y40000D01*
D02*
G37*
G36*
X172500D02*
X152500D01*
Y247500D01*
X172500D01*
Y40000D01*
D02*
G37*
G36*
X462500Y40000D02*
X437500D01*
Y460500D01*
X462500D01*
Y40000D01*
D02*
G37*
G36*
X60000Y40000D02*
X40000D01*
Y247500D01*
X60000D01*
Y40000D01*
D02*
G37*
G36*
X223000D02*
X215000D01*
Y48000D01*
X223000D01*
Y40000D01*
D02*
G37*
G36*
X273000D02*
X265000D01*
Y48000D01*
X273000D01*
Y40000D01*
D02*
G37*
G36*
X285500D02*
X277500D01*
Y48000D01*
X285500D01*
Y40000D01*
D02*
G37*
G36*
X260500D02*
X252500D01*
Y48000D01*
X260500D01*
Y40000D01*
D02*
G37*
G36*
X235500D02*
X227500D01*
Y48000D01*
X235500D01*
Y40000D01*
D02*
G37*
G36*
X248000D02*
X240000D01*
Y48000D01*
X248000D01*
Y40000D01*
D02*
G37*
G36*
X298000Y52500D02*
X290000D01*
Y60500D01*
X298000D01*
Y52500D01*
D02*
G37*
G36*
X310500D02*
X302500D01*
Y60500D01*
X310500D01*
Y52500D01*
D02*
G37*
G36*
X285500D02*
X277500D01*
Y60500D01*
X285500D01*
Y52500D01*
D02*
G37*
G36*
X260500D02*
X252500D01*
Y60500D01*
X260500D01*
Y52500D01*
D02*
G37*
G36*
X273000D02*
X265000D01*
Y60500D01*
X273000D01*
Y52500D01*
D02*
G37*
G36*
X323000D02*
X315000D01*
Y60500D01*
X323000D01*
Y52500D01*
D02*
G37*
G36*
X413000D02*
X405000D01*
Y60500D01*
X413000D01*
Y52500D01*
D02*
G37*
G36*
X425500D02*
X417500D01*
Y60500D01*
X425500D01*
Y52500D01*
D02*
G37*
G36*
X400500D02*
X392500D01*
Y60500D01*
X400500D01*
Y52500D01*
D02*
G37*
G36*
X375500D02*
X367500D01*
Y60500D01*
X375500D01*
Y52500D01*
D02*
G37*
G36*
X388000D02*
X380000D01*
Y60500D01*
X388000D01*
Y52500D01*
D02*
G37*
G36*
X148000Y40000D02*
X140000D01*
Y48000D01*
X148000D01*
Y40000D01*
D02*
G37*
G36*
X350500D02*
X342500D01*
Y48000D01*
X350500D01*
Y40000D01*
D02*
G37*
G36*
X135500D02*
X127500D01*
Y48000D01*
X135500D01*
Y40000D01*
D02*
G37*
G36*
X110500D02*
X102500D01*
Y48000D01*
X110500D01*
Y40000D01*
D02*
G37*
G36*
X123000D02*
X115000D01*
Y48000D01*
X123000D01*
Y40000D01*
D02*
G37*
G36*
X363000D02*
X355000D01*
Y48000D01*
X363000D01*
Y40000D01*
D02*
G37*
G36*
X235500Y52500D02*
X227500D01*
Y60500D01*
X235500D01*
Y52500D01*
D02*
G37*
G36*
X248000D02*
X240000D01*
Y60500D01*
X248000D01*
Y52500D01*
D02*
G37*
G36*
X223000D02*
X215000D01*
Y60500D01*
X223000D01*
Y52500D01*
D02*
G37*
G36*
X198000D02*
X190000D01*
Y60500D01*
X198000D01*
Y52500D01*
D02*
G37*
G36*
X210500D02*
X202500D01*
Y60500D01*
X210500D01*
Y52500D01*
D02*
G37*
G36*
X98000Y115000D02*
X90000D01*
Y123000D01*
X98000D01*
Y115000D01*
D02*
G37*
G36*
X110500D02*
X102500D01*
Y123000D01*
X110500D01*
Y115000D01*
D02*
G37*
G36*
X85500D02*
X77500D01*
Y123000D01*
X85500D01*
Y115000D01*
D02*
G37*
G36*
X323000Y115000D02*
X315000D01*
Y123000D01*
X323000D01*
Y115000D01*
D02*
G37*
G36*
X73000Y115000D02*
X65000D01*
Y123000D01*
X73000D01*
Y115000D01*
D02*
G37*
G36*
X123000D02*
X115000D01*
Y123000D01*
X123000D01*
Y115000D01*
D02*
G37*
G36*
X363000D02*
X355000D01*
Y123000D01*
X363000D01*
Y115000D01*
D02*
G37*
G36*
X198000Y127500D02*
X190000D01*
Y135500D01*
X198000D01*
Y127500D01*
D02*
G37*
G36*
X350500Y115000D02*
X342500D01*
Y123000D01*
X350500D01*
Y115000D01*
D02*
G37*
G36*
X135500D02*
X127500D01*
Y123000D01*
X135500D01*
Y115000D01*
D02*
G37*
G36*
X148000D02*
X140000D01*
Y123000D01*
X148000D01*
Y115000D01*
D02*
G37*
G36*
X223000Y115000D02*
X215000D01*
Y123000D01*
X223000D01*
Y115000D01*
D02*
G37*
G36*
X235500D02*
X227500D01*
Y123000D01*
X235500D01*
Y115000D01*
D02*
G37*
G36*
X210500D02*
X202500D01*
Y123000D01*
X210500D01*
Y115000D01*
D02*
G37*
G36*
X363000Y102500D02*
X355000D01*
Y110500D01*
X363000D01*
Y102500D01*
D02*
G37*
G36*
X198000Y115000D02*
X190000D01*
Y123000D01*
X198000D01*
Y115000D01*
D02*
G37*
G36*
X248000D02*
X240000D01*
Y123000D01*
X248000D01*
Y115000D01*
D02*
G37*
G36*
X298000D02*
X290000D01*
Y123000D01*
X298000D01*
Y115000D01*
D02*
G37*
G36*
X310500D02*
X302500D01*
Y123000D01*
X310500D01*
Y115000D01*
D02*
G37*
G36*
X285500D02*
X277500D01*
Y123000D01*
X285500D01*
Y115000D01*
D02*
G37*
G36*
X260500D02*
X252500D01*
Y123000D01*
X260500D01*
Y115000D01*
D02*
G37*
G36*
X273000D02*
X265000D01*
Y123000D01*
X273000D01*
Y115000D01*
D02*
G37*
G36*
X123000Y127500D02*
X115000D01*
Y135500D01*
X123000D01*
Y127500D01*
D02*
G37*
G36*
X135500D02*
X127500D01*
Y135500D01*
X135500D01*
Y127500D01*
D02*
G37*
G36*
X110500D02*
X102500D01*
Y135500D01*
X110500D01*
Y127500D01*
D02*
G37*
G36*
X85500D02*
X77500D01*
Y135500D01*
X85500D01*
Y127500D01*
D02*
G37*
G36*
X98000D02*
X90000D01*
Y135500D01*
X98000D01*
Y127500D01*
D02*
G37*
G36*
X148000D02*
X140000D01*
Y135500D01*
X148000D01*
Y127500D01*
D02*
G37*
G36*
X210500Y140000D02*
X202500D01*
Y148000D01*
X210500D01*
Y140000D01*
D02*
G37*
G36*
X223000D02*
X215000D01*
Y148000D01*
X223000D01*
Y140000D01*
D02*
G37*
G36*
X198000D02*
X190000D01*
Y148000D01*
X198000D01*
Y140000D01*
D02*
G37*
G36*
X350500Y127500D02*
X342500D01*
Y135500D01*
X350500D01*
Y127500D01*
D02*
G37*
G36*
X363000D02*
X355000D01*
Y135500D01*
X363000D01*
Y127500D01*
D02*
G37*
G36*
X248000Y127500D02*
X240000D01*
Y135500D01*
X248000D01*
Y127500D01*
D02*
G37*
G36*
X260500D02*
X252500D01*
Y135500D01*
X260500D01*
Y127500D01*
D02*
G37*
G36*
X235500D02*
X227500D01*
Y135500D01*
X235500D01*
Y127500D01*
D02*
G37*
G36*
X210500D02*
X202500D01*
Y135500D01*
X210500D01*
Y127500D01*
D02*
G37*
G36*
X223000D02*
X215000D01*
Y135500D01*
X223000D01*
Y127500D01*
D02*
G37*
G36*
X273000D02*
X265000D01*
Y135500D01*
X273000D01*
Y127500D01*
D02*
G37*
G36*
X323000D02*
X315000D01*
Y135500D01*
X323000D01*
Y127500D01*
D02*
G37*
G36*
X73000Y127500D02*
X65000D01*
Y135500D01*
X73000D01*
Y127500D01*
D02*
G37*
G36*
X310500Y127500D02*
X302500D01*
Y135500D01*
X310500D01*
Y127500D01*
D02*
G37*
G36*
X285500D02*
X277500D01*
Y135500D01*
X285500D01*
Y127500D01*
D02*
G37*
G36*
X298000D02*
X290000D01*
Y135500D01*
X298000D01*
Y127500D01*
D02*
G37*
G36*
X310500Y90000D02*
X302500D01*
Y98000D01*
X310500D01*
Y90000D01*
D02*
G37*
G36*
X323000D02*
X315000D01*
Y98000D01*
X323000D01*
Y90000D01*
D02*
G37*
G36*
X298000D02*
X290000D01*
Y98000D01*
X298000D01*
Y90000D01*
D02*
G37*
G36*
X273000D02*
X265000D01*
Y98000D01*
X273000D01*
Y90000D01*
D02*
G37*
G36*
X285500D02*
X277500D01*
Y98000D01*
X285500D01*
Y90000D01*
D02*
G37*
G36*
X73000Y90000D02*
X65000D01*
Y98000D01*
X73000D01*
Y90000D01*
D02*
G37*
G36*
X123000D02*
X115000D01*
Y98000D01*
X123000D01*
Y90000D01*
D02*
G37*
G36*
X135500D02*
X127500D01*
Y98000D01*
X135500D01*
Y90000D01*
D02*
G37*
G36*
X110500D02*
X102500D01*
Y98000D01*
X110500D01*
Y90000D01*
D02*
G37*
G36*
X85500D02*
X77500D01*
Y98000D01*
X85500D01*
Y90000D01*
D02*
G37*
G36*
X98000D02*
X90000D01*
Y98000D01*
X98000D01*
Y90000D01*
D02*
G37*
G36*
X350500Y77500D02*
X342500D01*
Y85500D01*
X350500D01*
Y77500D01*
D02*
G37*
G36*
X363000D02*
X355000D01*
Y85500D01*
X363000D01*
Y77500D01*
D02*
G37*
G36*
X148000D02*
X140000D01*
Y85500D01*
X148000D01*
Y77500D01*
D02*
G37*
G36*
X123000D02*
X115000D01*
Y85500D01*
X123000D01*
Y77500D01*
D02*
G37*
G36*
X135500D02*
X127500D01*
Y85500D01*
X135500D01*
Y77500D01*
D02*
G37*
G36*
X198000Y90000D02*
X190000D01*
Y98000D01*
X198000D01*
Y90000D01*
D02*
G37*
G36*
X248000D02*
X240000D01*
Y98000D01*
X248000D01*
Y90000D01*
D02*
G37*
G36*
X260500D02*
X252500D01*
Y98000D01*
X260500D01*
Y90000D01*
D02*
G37*
G36*
X235500D02*
X227500D01*
Y98000D01*
X235500D01*
Y90000D01*
D02*
G37*
G36*
X210500D02*
X202500D01*
Y98000D01*
X210500D01*
Y90000D01*
D02*
G37*
G36*
X223000D02*
X215000D01*
Y98000D01*
X223000D01*
Y90000D01*
D02*
G37*
G36*
X73000Y102500D02*
X65000D01*
Y110500D01*
X73000D01*
Y102500D01*
D02*
G37*
G36*
X85500D02*
X77500D01*
Y110500D01*
X85500D01*
Y102500D01*
D02*
G37*
G36*
X323000Y102500D02*
X315000D01*
Y110500D01*
X323000D01*
Y102500D01*
D02*
G37*
G36*
X298000D02*
X290000D01*
Y110500D01*
X298000D01*
Y102500D01*
D02*
G37*
G36*
X310500D02*
X302500D01*
Y110500D01*
X310500D01*
Y102500D01*
D02*
G37*
G36*
X98000Y102500D02*
X90000D01*
Y110500D01*
X98000D01*
Y102500D01*
D02*
G37*
G36*
X148000D02*
X140000D01*
Y110500D01*
X148000D01*
Y102500D01*
D02*
G37*
G36*
X350500D02*
X342500D01*
Y110500D01*
X350500D01*
Y102500D01*
D02*
G37*
G36*
X135500D02*
X127500D01*
Y110500D01*
X135500D01*
Y102500D01*
D02*
G37*
G36*
X110500D02*
X102500D01*
Y110500D01*
X110500D01*
Y102500D01*
D02*
G37*
G36*
X123000D02*
X115000D01*
Y110500D01*
X123000D01*
Y102500D01*
D02*
G37*
G36*
X198000Y102500D02*
X190000D01*
Y110500D01*
X198000D01*
Y102500D01*
D02*
G37*
G36*
X210500D02*
X202500D01*
Y110500D01*
X210500D01*
Y102500D01*
D02*
G37*
G36*
X363000Y90000D02*
X355000D01*
Y98000D01*
X363000D01*
Y90000D01*
D02*
G37*
G36*
X148000D02*
X140000D01*
Y98000D01*
X148000D01*
Y90000D01*
D02*
G37*
G36*
X350500D02*
X342500D01*
Y98000D01*
X350500D01*
Y90000D01*
D02*
G37*
G36*
X223000Y102500D02*
X215000D01*
Y110500D01*
X223000D01*
Y102500D01*
D02*
G37*
G36*
X273000D02*
X265000D01*
Y110500D01*
X273000D01*
Y102500D01*
D02*
G37*
G36*
X285500D02*
X277500D01*
Y110500D01*
X285500D01*
Y102500D01*
D02*
G37*
G36*
X260500D02*
X252500D01*
Y110500D01*
X260500D01*
Y102500D01*
D02*
G37*
G36*
X235500D02*
X227500D01*
Y110500D01*
X235500D01*
Y102500D01*
D02*
G37*
G36*
X248000D02*
X240000D01*
Y110500D01*
X248000D01*
Y102500D01*
D02*
G37*
G36*
X363000Y240000D02*
X355000D01*
Y248000D01*
X363000D01*
Y240000D01*
D02*
G37*
G36*
X85500Y390000D02*
X77500D01*
Y398000D01*
X85500D01*
Y390000D01*
D02*
G37*
G36*
X98000D02*
X90000D01*
Y398000D01*
X98000D01*
Y390000D01*
D02*
G37*
G36*
X73000D02*
X65000D01*
Y398000D01*
X73000D01*
Y390000D01*
D02*
G37*
G36*
X310500Y390000D02*
X302500D01*
Y398000D01*
X310500D01*
Y390000D01*
D02*
G37*
G36*
X323000D02*
X315000D01*
Y398000D01*
X323000D01*
Y390000D01*
D02*
G37*
G36*
X110500Y390000D02*
X102500D01*
Y398000D01*
X110500D01*
Y390000D01*
D02*
G37*
G36*
X350500D02*
X342500D01*
Y398000D01*
X350500D01*
Y390000D01*
D02*
G37*
G36*
X363000D02*
X355000D01*
Y398000D01*
X363000D01*
Y390000D01*
D02*
G37*
G36*
X148000D02*
X140000D01*
Y398000D01*
X148000D01*
Y390000D01*
D02*
G37*
G36*
X123000D02*
X115000D01*
Y398000D01*
X123000D01*
Y390000D01*
D02*
G37*
G36*
X135500D02*
X127500D01*
Y398000D01*
X135500D01*
Y390000D01*
D02*
G37*
G36*
X210500Y390000D02*
X202500D01*
Y398000D01*
X210500D01*
Y390000D01*
D02*
G37*
G36*
X223000D02*
X215000D01*
Y398000D01*
X223000D01*
Y390000D01*
D02*
G37*
G36*
X198000D02*
X190000D01*
Y398000D01*
X198000D01*
Y390000D01*
D02*
G37*
G36*
X350500Y377500D02*
X342500D01*
Y385500D01*
X350500D01*
Y377500D01*
D02*
G37*
G36*
X363000D02*
X355000D01*
Y385500D01*
X363000D01*
Y377500D01*
D02*
G37*
G36*
X235500Y390000D02*
X227500D01*
Y398000D01*
X235500D01*
Y390000D01*
D02*
G37*
G36*
X285500D02*
X277500D01*
Y398000D01*
X285500D01*
Y390000D01*
D02*
G37*
G36*
X298000D02*
X290000D01*
Y398000D01*
X298000D01*
Y390000D01*
D02*
G37*
G36*
X273000D02*
X265000D01*
Y398000D01*
X273000D01*
Y390000D01*
D02*
G37*
G36*
X248000D02*
X240000D01*
Y398000D01*
X248000D01*
Y390000D01*
D02*
G37*
G36*
X260500D02*
X252500D01*
Y398000D01*
X260500D01*
Y390000D01*
D02*
G37*
G36*
X110500Y402500D02*
X102500D01*
Y410500D01*
X110500D01*
Y402500D01*
D02*
G37*
G36*
X123000D02*
X115000D01*
Y410500D01*
X123000D01*
Y402500D01*
D02*
G37*
G36*
X98000D02*
X90000D01*
Y410500D01*
X98000D01*
Y402500D01*
D02*
G37*
G36*
X73000D02*
X65000D01*
Y410500D01*
X73000D01*
Y402500D01*
D02*
G37*
G36*
X85500D02*
X77500D01*
Y410500D01*
X85500D01*
Y402500D01*
D02*
G37*
G36*
X135500D02*
X127500D01*
Y410500D01*
X135500D01*
Y402500D01*
D02*
G37*
G36*
X198000Y415000D02*
X190000D01*
Y423000D01*
X198000D01*
Y415000D01*
D02*
G37*
G36*
X210500D02*
X202500D01*
Y423000D01*
X210500D01*
Y415000D01*
D02*
G37*
G36*
X363000Y402500D02*
X355000D01*
Y410500D01*
X363000D01*
Y402500D01*
D02*
G37*
G36*
X148000D02*
X140000D01*
Y410500D01*
X148000D01*
Y402500D01*
D02*
G37*
G36*
X350500D02*
X342500D01*
Y410500D01*
X350500D01*
Y402500D01*
D02*
G37*
G36*
X235500Y402500D02*
X227500D01*
Y410500D01*
X235500D01*
Y402500D01*
D02*
G37*
G36*
X248000D02*
X240000D01*
Y410500D01*
X248000D01*
Y402500D01*
D02*
G37*
G36*
X223000D02*
X215000D01*
Y410500D01*
X223000D01*
Y402500D01*
D02*
G37*
G36*
X198000D02*
X190000D01*
Y410500D01*
X198000D01*
Y402500D01*
D02*
G37*
G36*
X210500D02*
X202500D01*
Y410500D01*
X210500D01*
Y402500D01*
D02*
G37*
G36*
X260500D02*
X252500D01*
Y410500D01*
X260500D01*
Y402500D01*
D02*
G37*
G36*
X310500D02*
X302500D01*
Y410500D01*
X310500D01*
Y402500D01*
D02*
G37*
G36*
X323000D02*
X315000D01*
Y410500D01*
X323000D01*
Y402500D01*
D02*
G37*
G36*
X298000D02*
X290000D01*
Y410500D01*
X298000D01*
Y402500D01*
D02*
G37*
G36*
X273000D02*
X265000D01*
Y410500D01*
X273000D01*
Y402500D01*
D02*
G37*
G36*
X285500D02*
X277500D01*
Y410500D01*
X285500D01*
Y402500D01*
D02*
G37*
G36*
X298000Y365000D02*
X290000D01*
Y373000D01*
X298000D01*
Y365000D01*
D02*
G37*
G36*
X310500D02*
X302500D01*
Y373000D01*
X310500D01*
Y365000D01*
D02*
G37*
G36*
X285500D02*
X277500D01*
Y373000D01*
X285500D01*
Y365000D01*
D02*
G37*
G36*
X260500D02*
X252500D01*
Y373000D01*
X260500D01*
Y365000D01*
D02*
G37*
G36*
X273000D02*
X265000D01*
Y373000D01*
X273000D01*
Y365000D01*
D02*
G37*
G36*
X323000D02*
X315000D01*
Y373000D01*
X323000D01*
Y365000D01*
D02*
G37*
G36*
X110500Y365000D02*
X102500D01*
Y373000D01*
X110500D01*
Y365000D01*
D02*
G37*
G36*
X123000D02*
X115000D01*
Y373000D01*
X123000D01*
Y365000D01*
D02*
G37*
G36*
X98000D02*
X90000D01*
Y373000D01*
X98000D01*
Y365000D01*
D02*
G37*
G36*
X73000D02*
X65000D01*
Y373000D01*
X73000D01*
Y365000D01*
D02*
G37*
G36*
X85500D02*
X77500D01*
Y373000D01*
X85500D01*
Y365000D01*
D02*
G37*
G36*
X148000Y352500D02*
X140000D01*
Y360500D01*
X148000D01*
Y352500D01*
D02*
G37*
G36*
X350500D02*
X342500D01*
Y360500D01*
X350500D01*
Y352500D01*
D02*
G37*
G36*
X135500D02*
X127500D01*
Y360500D01*
X135500D01*
Y352500D01*
D02*
G37*
G36*
X110500D02*
X102500D01*
Y360500D01*
X110500D01*
Y352500D01*
D02*
G37*
G36*
X123000D02*
X115000D01*
Y360500D01*
X123000D01*
Y352500D01*
D02*
G37*
G36*
X363000D02*
X355000D01*
Y360500D01*
X363000D01*
Y352500D01*
D02*
G37*
G36*
X235500Y365000D02*
X227500D01*
Y373000D01*
X235500D01*
Y365000D01*
D02*
G37*
G36*
X248000D02*
X240000D01*
Y373000D01*
X248000D01*
Y365000D01*
D02*
G37*
G36*
X223000D02*
X215000D01*
Y373000D01*
X223000D01*
Y365000D01*
D02*
G37*
G36*
X198000D02*
X190000D01*
Y373000D01*
X198000D01*
Y365000D01*
D02*
G37*
G36*
X210500D02*
X202500D01*
Y373000D01*
X210500D01*
Y365000D01*
D02*
G37*
G36*
X323000Y377500D02*
X315000D01*
Y385500D01*
X323000D01*
Y377500D01*
D02*
G37*
G36*
X73000Y377500D02*
X65000D01*
Y385500D01*
X73000D01*
Y377500D01*
D02*
G37*
G36*
X310500Y377500D02*
X302500D01*
Y385500D01*
X310500D01*
Y377500D01*
D02*
G37*
G36*
X285500D02*
X277500D01*
Y385500D01*
X285500D01*
Y377500D01*
D02*
G37*
G36*
X298000D02*
X290000D01*
Y385500D01*
X298000D01*
Y377500D01*
D02*
G37*
G36*
X85500Y377500D02*
X77500D01*
Y385500D01*
X85500D01*
Y377500D01*
D02*
G37*
G36*
X135500D02*
X127500D01*
Y385500D01*
X135500D01*
Y377500D01*
D02*
G37*
G36*
X148000D02*
X140000D01*
Y385500D01*
X148000D01*
Y377500D01*
D02*
G37*
G36*
X123000D02*
X115000D01*
Y385500D01*
X123000D01*
Y377500D01*
D02*
G37*
G36*
X98000D02*
X90000D01*
Y385500D01*
X98000D01*
Y377500D01*
D02*
G37*
G36*
X110500D02*
X102500D01*
Y385500D01*
X110500D01*
Y377500D01*
D02*
G37*
G36*
X363000Y365000D02*
X355000D01*
Y373000D01*
X363000D01*
Y365000D01*
D02*
G37*
G36*
X198000Y377500D02*
X190000D01*
Y385500D01*
X198000D01*
Y377500D01*
D02*
G37*
G36*
X350500Y365000D02*
X342500D01*
Y373000D01*
X350500D01*
Y365000D01*
D02*
G37*
G36*
X135500D02*
X127500D01*
Y373000D01*
X135500D01*
Y365000D01*
D02*
G37*
G36*
X148000D02*
X140000D01*
Y373000D01*
X148000D01*
Y365000D01*
D02*
G37*
G36*
X210500Y377500D02*
X202500D01*
Y385500D01*
X210500D01*
Y377500D01*
D02*
G37*
G36*
X260500D02*
X252500D01*
Y385500D01*
X260500D01*
Y377500D01*
D02*
G37*
G36*
X273000D02*
X265000D01*
Y385500D01*
X273000D01*
Y377500D01*
D02*
G37*
G36*
X248000D02*
X240000D01*
Y385500D01*
X248000D01*
Y377500D01*
D02*
G37*
G36*
X223000D02*
X215000D01*
Y385500D01*
X223000D01*
Y377500D01*
D02*
G37*
G36*
X235500D02*
X227500D01*
Y385500D01*
X235500D01*
Y377500D01*
D02*
G37*
G36*
X375500Y440000D02*
X367500D01*
Y448000D01*
X375500D01*
Y440000D01*
D02*
G37*
G36*
X388000D02*
X380000D01*
Y448000D01*
X388000D01*
Y440000D01*
D02*
G37*
G36*
X363000D02*
X355000D01*
Y448000D01*
X363000D01*
Y440000D01*
D02*
G37*
G36*
X148000D02*
X140000D01*
Y448000D01*
X148000D01*
Y440000D01*
D02*
G37*
G36*
X350500D02*
X342500D01*
Y448000D01*
X350500D01*
Y440000D01*
D02*
G37*
G36*
X400500D02*
X392500D01*
Y448000D01*
X400500D01*
Y440000D01*
D02*
G37*
G36*
X210500Y452500D02*
X202500D01*
Y460500D01*
X210500D01*
Y452500D01*
D02*
G37*
G36*
X223000D02*
X215000D01*
Y460500D01*
X223000D01*
Y452500D01*
D02*
G37*
G36*
X198000D02*
X190000D01*
Y460500D01*
X198000D01*
Y452500D01*
D02*
G37*
G36*
X413000Y440000D02*
X405000D01*
Y448000D01*
X413000D01*
Y440000D01*
D02*
G37*
G36*
X425500D02*
X417500D01*
Y448000D01*
X425500D01*
Y440000D01*
D02*
G37*
G36*
X310500Y440000D02*
X302500D01*
Y448000D01*
X310500D01*
Y440000D01*
D02*
G37*
G36*
X323000D02*
X315000D01*
Y448000D01*
X323000D01*
Y440000D01*
D02*
G37*
G36*
X298000D02*
X290000D01*
Y448000D01*
X298000D01*
Y440000D01*
D02*
G37*
G36*
X273000D02*
X265000D01*
Y448000D01*
X273000D01*
Y440000D01*
D02*
G37*
G36*
X285500D02*
X277500D01*
Y448000D01*
X285500D01*
Y440000D01*
D02*
G37*
G36*
X73000Y440000D02*
X65000D01*
Y448000D01*
X73000D01*
Y440000D01*
D02*
G37*
G36*
X123000D02*
X115000D01*
Y448000D01*
X123000D01*
Y440000D01*
D02*
G37*
G36*
X135500D02*
X127500D01*
Y448000D01*
X135500D01*
Y440000D01*
D02*
G37*
G36*
X110500D02*
X102500D01*
Y448000D01*
X110500D01*
Y440000D01*
D02*
G37*
G36*
X85500D02*
X77500D01*
Y448000D01*
X85500D01*
Y440000D01*
D02*
G37*
G36*
X98000D02*
X90000D01*
Y448000D01*
X98000D01*
Y440000D01*
D02*
G37*
G36*
X148000Y452500D02*
X140000D01*
Y460500D01*
X148000D01*
Y452500D01*
D02*
G37*
G36*
X350500D02*
X342500D01*
Y460500D01*
X350500D01*
Y452500D01*
D02*
G37*
G36*
X135500D02*
X127500D01*
Y460500D01*
X135500D01*
Y452500D01*
D02*
G37*
G36*
X110500D02*
X102500D01*
Y460500D01*
X110500D01*
Y452500D01*
D02*
G37*
G36*
X123000D02*
X115000D01*
Y460500D01*
X123000D01*
Y452500D01*
D02*
G37*
G36*
X363000D02*
X355000D01*
Y460500D01*
X363000D01*
Y452500D01*
D02*
G37*
G36*
X413000D02*
X405000D01*
Y460500D01*
X413000D01*
Y452500D01*
D02*
G37*
G36*
X425500D02*
X417500D01*
Y460500D01*
X425500D01*
Y452500D01*
D02*
G37*
G36*
X400500D02*
X392500D01*
Y460500D01*
X400500D01*
Y452500D01*
D02*
G37*
G36*
X375500D02*
X367500D01*
Y460500D01*
X375500D01*
Y452500D01*
D02*
G37*
G36*
X388000D02*
X380000D01*
Y460500D01*
X388000D01*
Y452500D01*
D02*
G37*
G36*
X273000Y452500D02*
X265000D01*
Y460500D01*
X273000D01*
Y452500D01*
D02*
G37*
G36*
X285500D02*
X277500D01*
Y460500D01*
X285500D01*
Y452500D01*
D02*
G37*
G36*
X260500D02*
X252500D01*
Y460500D01*
X260500D01*
Y452500D01*
D02*
G37*
G36*
X235500D02*
X227500D01*
Y460500D01*
X235500D01*
Y452500D01*
D02*
G37*
G36*
X248000D02*
X240000D01*
Y460500D01*
X248000D01*
Y452500D01*
D02*
G37*
G36*
X298000D02*
X290000D01*
Y460500D01*
X298000D01*
Y452500D01*
D02*
G37*
G36*
X85500Y452500D02*
X77500D01*
Y460500D01*
X85500D01*
Y452500D01*
D02*
G37*
G36*
X98000D02*
X90000D01*
Y460500D01*
X98000D01*
Y452500D01*
D02*
G37*
G36*
X73000D02*
X65000D01*
Y460500D01*
X73000D01*
Y452500D01*
D02*
G37*
G36*
X310500Y452500D02*
X302500D01*
Y460500D01*
X310500D01*
Y452500D01*
D02*
G37*
G36*
X323000D02*
X315000D01*
Y460500D01*
X323000D01*
Y452500D01*
D02*
G37*
G36*
X135500Y415000D02*
X127500D01*
Y423000D01*
X135500D01*
Y415000D01*
D02*
G37*
G36*
X148000D02*
X140000D01*
Y423000D01*
X148000D01*
Y415000D01*
D02*
G37*
G36*
X123000D02*
X115000D01*
Y423000D01*
X123000D01*
Y415000D01*
D02*
G37*
G36*
X98000D02*
X90000D01*
Y423000D01*
X98000D01*
Y415000D01*
D02*
G37*
G36*
X110500D02*
X102500D01*
Y423000D01*
X110500D01*
Y415000D01*
D02*
G37*
G36*
X350500D02*
X342500D01*
Y423000D01*
X350500D01*
Y415000D01*
D02*
G37*
G36*
X223000Y427500D02*
X215000D01*
Y435500D01*
X223000D01*
Y427500D01*
D02*
G37*
G36*
X235500D02*
X227500D01*
Y435500D01*
X235500D01*
Y427500D01*
D02*
G37*
G36*
X210500D02*
X202500D01*
Y435500D01*
X210500D01*
Y427500D01*
D02*
G37*
G36*
X363000Y415000D02*
X355000D01*
Y423000D01*
X363000D01*
Y415000D01*
D02*
G37*
G36*
X198000Y427500D02*
X190000D01*
Y435500D01*
X198000D01*
Y427500D01*
D02*
G37*
G36*
X260500Y415000D02*
X252500D01*
Y423000D01*
X260500D01*
Y415000D01*
D02*
G37*
G36*
X273000D02*
X265000D01*
Y423000D01*
X273000D01*
Y415000D01*
D02*
G37*
G36*
X248000D02*
X240000D01*
Y423000D01*
X248000D01*
Y415000D01*
D02*
G37*
G36*
X223000D02*
X215000D01*
Y423000D01*
X223000D01*
Y415000D01*
D02*
G37*
G36*
X235500D02*
X227500D01*
Y423000D01*
X235500D01*
Y415000D01*
D02*
G37*
G36*
X285500D02*
X277500D01*
Y423000D01*
X285500D01*
Y415000D01*
D02*
G37*
G36*
X73000Y415000D02*
X65000D01*
Y423000D01*
X73000D01*
Y415000D01*
D02*
G37*
G36*
X85500D02*
X77500D01*
Y423000D01*
X85500D01*
Y415000D01*
D02*
G37*
G36*
X323000Y415000D02*
X315000D01*
Y423000D01*
X323000D01*
Y415000D01*
D02*
G37*
G36*
X298000D02*
X290000D01*
Y423000D01*
X298000D01*
Y415000D01*
D02*
G37*
G36*
X310500D02*
X302500D01*
Y423000D01*
X310500D01*
Y415000D01*
D02*
G37*
G36*
X350500Y427500D02*
X342500D01*
Y435500D01*
X350500D01*
Y427500D01*
D02*
G37*
G36*
X363000D02*
X355000D01*
Y435500D01*
X363000D01*
Y427500D01*
D02*
G37*
G36*
X148000D02*
X140000D01*
Y435500D01*
X148000D01*
Y427500D01*
D02*
G37*
G36*
X123000D02*
X115000D01*
Y435500D01*
X123000D01*
Y427500D01*
D02*
G37*
G36*
X135500D02*
X127500D01*
Y435500D01*
X135500D01*
Y427500D01*
D02*
G37*
G36*
X198000Y440000D02*
X190000D01*
Y448000D01*
X198000D01*
Y440000D01*
D02*
G37*
G36*
X248000D02*
X240000D01*
Y448000D01*
X248000D01*
Y440000D01*
D02*
G37*
G36*
X260500D02*
X252500D01*
Y448000D01*
X260500D01*
Y440000D01*
D02*
G37*
G36*
X235500D02*
X227500D01*
Y448000D01*
X235500D01*
Y440000D01*
D02*
G37*
G36*
X210500D02*
X202500D01*
Y448000D01*
X210500D01*
Y440000D01*
D02*
G37*
G36*
X223000D02*
X215000D01*
Y448000D01*
X223000D01*
Y440000D01*
D02*
G37*
G36*
X285500Y427500D02*
X277500D01*
Y435500D01*
X285500D01*
Y427500D01*
D02*
G37*
G36*
X298000D02*
X290000D01*
Y435500D01*
X298000D01*
Y427500D01*
D02*
G37*
G36*
X273000D02*
X265000D01*
Y435500D01*
X273000D01*
Y427500D01*
D02*
G37*
G36*
X248000D02*
X240000D01*
Y435500D01*
X248000D01*
Y427500D01*
D02*
G37*
G36*
X260500D02*
X252500D01*
Y435500D01*
X260500D01*
Y427500D01*
D02*
G37*
G36*
X310500D02*
X302500D01*
Y435500D01*
X310500D01*
Y427500D01*
D02*
G37*
G36*
X98000Y427500D02*
X90000D01*
Y435500D01*
X98000D01*
Y427500D01*
D02*
G37*
G36*
X110500D02*
X102500D01*
Y435500D01*
X110500D01*
Y427500D01*
D02*
G37*
G36*
X85500D02*
X77500D01*
Y435500D01*
X85500D01*
Y427500D01*
D02*
G37*
G36*
X323000Y427500D02*
X315000D01*
Y435500D01*
X323000D01*
Y427500D01*
D02*
G37*
G36*
X73000Y427500D02*
X65000D01*
Y435500D01*
X73000D01*
Y427500D01*
D02*
G37*
G36*
X135500Y277500D02*
X127500D01*
Y285500D01*
X135500D01*
Y277500D01*
D02*
G37*
G36*
X148000D02*
X140000D01*
Y285500D01*
X148000D01*
Y277500D01*
D02*
G37*
G36*
X123000D02*
X115000D01*
Y285500D01*
X123000D01*
Y277500D01*
D02*
G37*
G36*
X98000D02*
X90000D01*
Y285500D01*
X98000D01*
Y277500D01*
D02*
G37*
G36*
X110500D02*
X102500D01*
Y285500D01*
X110500D01*
Y277500D01*
D02*
G37*
G36*
X350500D02*
X342500D01*
Y285500D01*
X350500D01*
Y277500D01*
D02*
G37*
G36*
X223000Y290000D02*
X215000D01*
Y298000D01*
X223000D01*
Y290000D01*
D02*
G37*
G36*
X235500D02*
X227500D01*
Y298000D01*
X235500D01*
Y290000D01*
D02*
G37*
G36*
X210500D02*
X202500D01*
Y298000D01*
X210500D01*
Y290000D01*
D02*
G37*
G36*
X363000Y277500D02*
X355000D01*
Y285500D01*
X363000D01*
Y277500D01*
D02*
G37*
G36*
X198000Y290000D02*
X190000D01*
Y298000D01*
X198000D01*
Y290000D01*
D02*
G37*
G36*
X260500Y277500D02*
X252500D01*
Y285500D01*
X260500D01*
Y277500D01*
D02*
G37*
G36*
X273000D02*
X265000D01*
Y285500D01*
X273000D01*
Y277500D01*
D02*
G37*
G36*
X248000D02*
X240000D01*
Y285500D01*
X248000D01*
Y277500D01*
D02*
G37*
G36*
X223000D02*
X215000D01*
Y285500D01*
X223000D01*
Y277500D01*
D02*
G37*
G36*
X235500D02*
X227500D01*
Y285500D01*
X235500D01*
Y277500D01*
D02*
G37*
G36*
X285500D02*
X277500D01*
Y285500D01*
X285500D01*
Y277500D01*
D02*
G37*
G36*
X73000Y277500D02*
X65000D01*
Y285500D01*
X73000D01*
Y277500D01*
D02*
G37*
G36*
X85500D02*
X77500D01*
Y285500D01*
X85500D01*
Y277500D01*
D02*
G37*
G36*
X323000Y277500D02*
X315000D01*
Y285500D01*
X323000D01*
Y277500D01*
D02*
G37*
G36*
X298000D02*
X290000D01*
Y285500D01*
X298000D01*
Y277500D01*
D02*
G37*
G36*
X310500D02*
X302500D01*
Y285500D01*
X310500D01*
Y277500D01*
D02*
G37*
G36*
X350500Y290000D02*
X342500D01*
Y298000D01*
X350500D01*
Y290000D01*
D02*
G37*
G36*
X363000D02*
X355000D01*
Y298000D01*
X363000D01*
Y290000D01*
D02*
G37*
G36*
X148000D02*
X140000D01*
Y298000D01*
X148000D01*
Y290000D01*
D02*
G37*
G36*
X123000D02*
X115000D01*
Y298000D01*
X123000D01*
Y290000D01*
D02*
G37*
G36*
X135500D02*
X127500D01*
Y298000D01*
X135500D01*
Y290000D01*
D02*
G37*
G36*
X198000Y302500D02*
X190000D01*
Y310500D01*
X198000D01*
Y302500D01*
D02*
G37*
G36*
X248000D02*
X240000D01*
Y310500D01*
X248000D01*
Y302500D01*
D02*
G37*
G36*
X260500D02*
X252500D01*
Y310500D01*
X260500D01*
Y302500D01*
D02*
G37*
G36*
X235500D02*
X227500D01*
Y310500D01*
X235500D01*
Y302500D01*
D02*
G37*
G36*
X210500D02*
X202500D01*
Y310500D01*
X210500D01*
Y302500D01*
D02*
G37*
G36*
X223000D02*
X215000D01*
Y310500D01*
X223000D01*
Y302500D01*
D02*
G37*
G36*
X285500Y290000D02*
X277500D01*
Y298000D01*
X285500D01*
Y290000D01*
D02*
G37*
G36*
X298000D02*
X290000D01*
Y298000D01*
X298000D01*
Y290000D01*
D02*
G37*
G36*
X273000D02*
X265000D01*
Y298000D01*
X273000D01*
Y290000D01*
D02*
G37*
G36*
X248000D02*
X240000D01*
Y298000D01*
X248000D01*
Y290000D01*
D02*
G37*
G36*
X260500D02*
X252500D01*
Y298000D01*
X260500D01*
Y290000D01*
D02*
G37*
G36*
X310500D02*
X302500D01*
Y298000D01*
X310500D01*
Y290000D01*
D02*
G37*
G36*
X98000Y290000D02*
X90000D01*
Y298000D01*
X98000D01*
Y290000D01*
D02*
G37*
G36*
X110500D02*
X102500D01*
Y298000D01*
X110500D01*
Y290000D01*
D02*
G37*
G36*
X85500D02*
X77500D01*
Y298000D01*
X85500D01*
Y290000D01*
D02*
G37*
G36*
X323000Y290000D02*
X315000D01*
Y298000D01*
X323000D01*
Y290000D01*
D02*
G37*
G36*
X73000Y290000D02*
X65000D01*
Y298000D01*
X73000D01*
Y290000D01*
D02*
G37*
G36*
X98000Y252500D02*
X90000D01*
Y260500D01*
X98000D01*
Y252500D01*
D02*
G37*
G36*
X110500D02*
X102500D01*
Y260500D01*
X110500D01*
Y252500D01*
D02*
G37*
G36*
X85500D02*
X77500D01*
Y260500D01*
X85500D01*
Y252500D01*
D02*
G37*
G36*
X60000D02*
X40000D01*
Y460000D01*
X60000D01*
Y252500D01*
D02*
G37*
G36*
X73000D02*
X65000D01*
Y260500D01*
X73000D01*
Y252500D01*
D02*
G37*
G36*
X123000D02*
X115000D01*
Y260500D01*
X123000D01*
Y252500D01*
D02*
G37*
G36*
X350500D02*
X342500D01*
Y260500D01*
X350500D01*
Y252500D01*
D02*
G37*
G36*
X363000D02*
X355000D01*
Y260500D01*
X363000D01*
Y252500D01*
D02*
G37*
G36*
X172500D02*
X152500D01*
Y460000D01*
X172500D01*
Y252500D01*
D02*
G37*
G36*
X135500D02*
X127500D01*
Y260500D01*
X135500D01*
Y252500D01*
D02*
G37*
G36*
X148000D02*
X140000D01*
Y260500D01*
X148000D01*
Y252500D01*
D02*
G37*
G36*
X235500Y252500D02*
X227500D01*
Y260500D01*
X235500D01*
Y252500D01*
D02*
G37*
G36*
X248000D02*
X240000D01*
Y260500D01*
X248000D01*
Y252500D01*
D02*
G37*
G36*
X223000D02*
X215000D01*
Y260500D01*
X223000D01*
Y252500D01*
D02*
G37*
G36*
X198000D02*
X190000D01*
Y260500D01*
X198000D01*
Y252500D01*
D02*
G37*
G36*
X210500D02*
X202500D01*
Y260500D01*
X210500D01*
Y252500D01*
D02*
G37*
G36*
X260500D02*
X252500D01*
Y260500D01*
X260500D01*
Y252500D01*
D02*
G37*
G36*
X310500D02*
X302500D01*
Y260500D01*
X310500D01*
Y252500D01*
D02*
G37*
G36*
X323000D02*
X315000D01*
Y260500D01*
X323000D01*
Y252500D01*
D02*
G37*
G36*
X298000D02*
X290000D01*
Y260500D01*
X298000D01*
Y252500D01*
D02*
G37*
G36*
X273000D02*
X265000D01*
Y260500D01*
X273000D01*
Y252500D01*
D02*
G37*
G36*
X285500D02*
X277500D01*
Y260500D01*
X285500D01*
Y252500D01*
D02*
G37*
G36*
X110500Y265000D02*
X102500D01*
Y273000D01*
X110500D01*
Y265000D01*
D02*
G37*
G36*
X123000D02*
X115000D01*
Y273000D01*
X123000D01*
Y265000D01*
D02*
G37*
G36*
X98000D02*
X90000D01*
Y273000D01*
X98000D01*
Y265000D01*
D02*
G37*
G36*
X73000D02*
X65000D01*
Y273000D01*
X73000D01*
Y265000D01*
D02*
G37*
G36*
X85500D02*
X77500D01*
Y273000D01*
X85500D01*
Y265000D01*
D02*
G37*
G36*
X135500D02*
X127500D01*
Y273000D01*
X135500D01*
Y265000D01*
D02*
G37*
G36*
X198000Y277500D02*
X190000D01*
Y285500D01*
X198000D01*
Y277500D01*
D02*
G37*
G36*
X210500D02*
X202500D01*
Y285500D01*
X210500D01*
Y277500D01*
D02*
G37*
G36*
X363000Y265000D02*
X355000D01*
Y273000D01*
X363000D01*
Y265000D01*
D02*
G37*
G36*
X148000D02*
X140000D01*
Y273000D01*
X148000D01*
Y265000D01*
D02*
G37*
G36*
X350500D02*
X342500D01*
Y273000D01*
X350500D01*
Y265000D01*
D02*
G37*
G36*
X235500Y265000D02*
X227500D01*
Y273000D01*
X235500D01*
Y265000D01*
D02*
G37*
G36*
X248000D02*
X240000D01*
Y273000D01*
X248000D01*
Y265000D01*
D02*
G37*
G36*
X223000D02*
X215000D01*
Y273000D01*
X223000D01*
Y265000D01*
D02*
G37*
G36*
X198000D02*
X190000D01*
Y273000D01*
X198000D01*
Y265000D01*
D02*
G37*
G36*
X210500D02*
X202500D01*
Y273000D01*
X210500D01*
Y265000D01*
D02*
G37*
G36*
X260500D02*
X252500D01*
Y273000D01*
X260500D01*
Y265000D01*
D02*
G37*
G36*
X310500D02*
X302500D01*
Y273000D01*
X310500D01*
Y265000D01*
D02*
G37*
G36*
X323000D02*
X315000D01*
Y273000D01*
X323000D01*
Y265000D01*
D02*
G37*
G36*
X298000D02*
X290000D01*
Y273000D01*
X298000D01*
Y265000D01*
D02*
G37*
G36*
X273000D02*
X265000D01*
Y273000D01*
X273000D01*
Y265000D01*
D02*
G37*
G36*
X285500D02*
X277500D01*
Y273000D01*
X285500D01*
Y265000D01*
D02*
G37*
G36*
X248000Y340000D02*
X240000D01*
Y348000D01*
X248000D01*
Y340000D01*
D02*
G37*
G36*
X260500D02*
X252500D01*
Y348000D01*
X260500D01*
Y340000D01*
D02*
G37*
G36*
X235500D02*
X227500D01*
Y348000D01*
X235500D01*
Y340000D01*
D02*
G37*
G36*
X210500D02*
X202500D01*
Y348000D01*
X210500D01*
Y340000D01*
D02*
G37*
G36*
X223000D02*
X215000D01*
Y348000D01*
X223000D01*
Y340000D01*
D02*
G37*
G36*
X273000D02*
X265000D01*
Y348000D01*
X273000D01*
Y340000D01*
D02*
G37*
G36*
X323000D02*
X315000D01*
Y348000D01*
X323000D01*
Y340000D01*
D02*
G37*
G36*
X73000Y340000D02*
X65000D01*
Y348000D01*
X73000D01*
Y340000D01*
D02*
G37*
G36*
X310500Y340000D02*
X302500D01*
Y348000D01*
X310500D01*
Y340000D01*
D02*
G37*
G36*
X285500D02*
X277500D01*
Y348000D01*
X285500D01*
Y340000D01*
D02*
G37*
G36*
X298000D02*
X290000D01*
Y348000D01*
X298000D01*
Y340000D01*
D02*
G37*
G36*
X98000Y327500D02*
X90000D01*
Y335500D01*
X98000D01*
Y327500D01*
D02*
G37*
G36*
X110500D02*
X102500D01*
Y335500D01*
X110500D01*
Y327500D01*
D02*
G37*
G36*
X85500D02*
X77500D01*
Y335500D01*
X85500D01*
Y327500D01*
D02*
G37*
G36*
X323000Y327500D02*
X315000D01*
Y335500D01*
X323000D01*
Y327500D01*
D02*
G37*
G36*
X73000Y327500D02*
X65000D01*
Y335500D01*
X73000D01*
Y327500D01*
D02*
G37*
G36*
X123000D02*
X115000D01*
Y335500D01*
X123000D01*
Y327500D01*
D02*
G37*
G36*
X363000D02*
X355000D01*
Y335500D01*
X363000D01*
Y327500D01*
D02*
G37*
G36*
X198000Y340000D02*
X190000D01*
Y348000D01*
X198000D01*
Y340000D01*
D02*
G37*
G36*
X350500Y327500D02*
X342500D01*
Y335500D01*
X350500D01*
Y327500D01*
D02*
G37*
G36*
X135500D02*
X127500D01*
Y335500D01*
X135500D01*
Y327500D01*
D02*
G37*
G36*
X148000D02*
X140000D01*
Y335500D01*
X148000D01*
Y327500D01*
D02*
G37*
G36*
X273000Y352500D02*
X265000D01*
Y360500D01*
X273000D01*
Y352500D01*
D02*
G37*
G36*
X285500D02*
X277500D01*
Y360500D01*
X285500D01*
Y352500D01*
D02*
G37*
G36*
X260500D02*
X252500D01*
Y360500D01*
X260500D01*
Y352500D01*
D02*
G37*
G36*
X235500D02*
X227500D01*
Y360500D01*
X235500D01*
Y352500D01*
D02*
G37*
G36*
X248000D02*
X240000D01*
Y360500D01*
X248000D01*
Y352500D01*
D02*
G37*
G36*
X298000D02*
X290000D01*
Y360500D01*
X298000D01*
Y352500D01*
D02*
G37*
G36*
X85500Y352500D02*
X77500D01*
Y360500D01*
X85500D01*
Y352500D01*
D02*
G37*
G36*
X98000D02*
X90000D01*
Y360500D01*
X98000D01*
Y352500D01*
D02*
G37*
G36*
X73000D02*
X65000D01*
Y360500D01*
X73000D01*
Y352500D01*
D02*
G37*
G36*
X310500Y352500D02*
X302500D01*
Y360500D01*
X310500D01*
Y352500D01*
D02*
G37*
G36*
X323000D02*
X315000D01*
Y360500D01*
X323000D01*
Y352500D01*
D02*
G37*
G36*
X123000Y340000D02*
X115000D01*
Y348000D01*
X123000D01*
Y340000D01*
D02*
G37*
G36*
X135500D02*
X127500D01*
Y348000D01*
X135500D01*
Y340000D01*
D02*
G37*
G36*
X110500D02*
X102500D01*
Y348000D01*
X110500D01*
Y340000D01*
D02*
G37*
G36*
X85500D02*
X77500D01*
Y348000D01*
X85500D01*
Y340000D01*
D02*
G37*
G36*
X98000D02*
X90000D01*
Y348000D01*
X98000D01*
Y340000D01*
D02*
G37*
G36*
X148000D02*
X140000D01*
Y348000D01*
X148000D01*
Y340000D01*
D02*
G37*
G36*
X210500Y352500D02*
X202500D01*
Y360500D01*
X210500D01*
Y352500D01*
D02*
G37*
G36*
X223000D02*
X215000D01*
Y360500D01*
X223000D01*
Y352500D01*
D02*
G37*
G36*
X198000D02*
X190000D01*
Y360500D01*
X198000D01*
Y352500D01*
D02*
G37*
G36*
X350500Y340000D02*
X342500D01*
Y348000D01*
X350500D01*
Y340000D01*
D02*
G37*
G36*
X363000D02*
X355000D01*
Y348000D01*
X363000D01*
Y340000D01*
D02*
G37*
G36*
X198000Y315000D02*
X190000D01*
Y323000D01*
X198000D01*
Y315000D01*
D02*
G37*
G36*
X210500D02*
X202500D01*
Y323000D01*
X210500D01*
Y315000D01*
D02*
G37*
G36*
X363000Y302500D02*
X355000D01*
Y310500D01*
X363000D01*
Y302500D01*
D02*
G37*
G36*
X148000D02*
X140000D01*
Y310500D01*
X148000D01*
Y302500D01*
D02*
G37*
G36*
X350500D02*
X342500D01*
Y310500D01*
X350500D01*
Y302500D01*
D02*
G37*
G36*
X223000Y315000D02*
X215000D01*
Y323000D01*
X223000D01*
Y315000D01*
D02*
G37*
G36*
X273000D02*
X265000D01*
Y323000D01*
X273000D01*
Y315000D01*
D02*
G37*
G36*
X285500D02*
X277500D01*
Y323000D01*
X285500D01*
Y315000D01*
D02*
G37*
G36*
X260500D02*
X252500D01*
Y323000D01*
X260500D01*
Y315000D01*
D02*
G37*
G36*
X235500D02*
X227500D01*
Y323000D01*
X235500D01*
Y315000D01*
D02*
G37*
G36*
X248000D02*
X240000D01*
Y323000D01*
X248000D01*
Y315000D01*
D02*
G37*
G36*
X310500Y302500D02*
X302500D01*
Y310500D01*
X310500D01*
Y302500D01*
D02*
G37*
G36*
X323000D02*
X315000D01*
Y310500D01*
X323000D01*
Y302500D01*
D02*
G37*
G36*
X298000D02*
X290000D01*
Y310500D01*
X298000D01*
Y302500D01*
D02*
G37*
G36*
X273000D02*
X265000D01*
Y310500D01*
X273000D01*
Y302500D01*
D02*
G37*
G36*
X285500D02*
X277500D01*
Y310500D01*
X285500D01*
Y302500D01*
D02*
G37*
G36*
X73000Y302500D02*
X65000D01*
Y310500D01*
X73000D01*
Y302500D01*
D02*
G37*
G36*
X123000D02*
X115000D01*
Y310500D01*
X123000D01*
Y302500D01*
D02*
G37*
G36*
X135500D02*
X127500D01*
Y310500D01*
X135500D01*
Y302500D01*
D02*
G37*
G36*
X110500D02*
X102500D01*
Y310500D01*
X110500D01*
Y302500D01*
D02*
G37*
G36*
X85500D02*
X77500D01*
Y310500D01*
X85500D01*
Y302500D01*
D02*
G37*
G36*
X98000D02*
X90000D01*
Y310500D01*
X98000D01*
Y302500D01*
D02*
G37*
G36*
X223000Y327500D02*
X215000D01*
Y335500D01*
X223000D01*
Y327500D01*
D02*
G37*
G36*
X235500D02*
X227500D01*
Y335500D01*
X235500D01*
Y327500D01*
D02*
G37*
G36*
X210500D02*
X202500D01*
Y335500D01*
X210500D01*
Y327500D01*
D02*
G37*
G36*
X363000Y315000D02*
X355000D01*
Y323000D01*
X363000D01*
Y315000D01*
D02*
G37*
G36*
X198000Y327500D02*
X190000D01*
Y335500D01*
X198000D01*
Y327500D01*
D02*
G37*
G36*
X248000D02*
X240000D01*
Y335500D01*
X248000D01*
Y327500D01*
D02*
G37*
G36*
X298000D02*
X290000D01*
Y335500D01*
X298000D01*
Y327500D01*
D02*
G37*
G36*
X310500D02*
X302500D01*
Y335500D01*
X310500D01*
Y327500D01*
D02*
G37*
G36*
X285500D02*
X277500D01*
Y335500D01*
X285500D01*
Y327500D01*
D02*
G37*
G36*
X260500D02*
X252500D01*
Y335500D01*
X260500D01*
Y327500D01*
D02*
G37*
G36*
X273000D02*
X265000D01*
Y335500D01*
X273000D01*
Y327500D01*
D02*
G37*
G36*
X73000Y315000D02*
X65000D01*
Y323000D01*
X73000D01*
Y315000D01*
D02*
G37*
G36*
X85500D02*
X77500D01*
Y323000D01*
X85500D01*
Y315000D01*
D02*
G37*
G36*
X323000Y315000D02*
X315000D01*
Y323000D01*
X323000D01*
Y315000D01*
D02*
G37*
G36*
X298000D02*
X290000D01*
Y323000D01*
X298000D01*
Y315000D01*
D02*
G37*
G36*
X310500D02*
X302500D01*
Y323000D01*
X310500D01*
Y315000D01*
D02*
G37*
G36*
X98000Y315000D02*
X90000D01*
Y323000D01*
X98000D01*
Y315000D01*
D02*
G37*
G36*
X148000D02*
X140000D01*
Y323000D01*
X148000D01*
Y315000D01*
D02*
G37*
G36*
X350500D02*
X342500D01*
Y323000D01*
X350500D01*
Y315000D01*
D02*
G37*
G36*
X135500D02*
X127500D01*
Y323000D01*
X135500D01*
Y315000D01*
D02*
G37*
G36*
X110500D02*
X102500D01*
Y323000D01*
X110500D01*
Y315000D01*
D02*
G37*
G36*
X123000D02*
X115000D01*
Y323000D01*
X123000D01*
Y315000D01*
D02*
G37*
D19*
X227000Y479000D02*
D03*
X207000D02*
D03*
X187000D02*
D03*
X167000D02*
D03*
X147000D02*
D03*
X127000D02*
D03*
X107000D02*
D03*
X87000D02*
D03*
X67000D02*
D03*
X47000D02*
D03*
D20*
X249800Y478750D02*
D03*
X275200D02*
D03*
X300600D02*
D03*
X326000D02*
D03*
X351400D02*
D03*
X376800D02*
D03*
X402200D02*
D03*
X427600D02*
D03*
X453000D02*
D03*
X453750Y21500D02*
D03*
X428350D02*
D03*
X402950D02*
D03*
X377550D02*
D03*
X352150D02*
D03*
X326750D02*
D03*
X301350D02*
D03*
X275950D02*
D03*
X250550D02*
D03*
D21*
X225000Y20000D02*
D03*
X210000D02*
D03*
X195000D02*
D03*
X180000D02*
D03*
X165000D02*
D03*
X150000D02*
D03*
X135000D02*
D03*
X120000D02*
D03*
X105000D02*
D03*
X90000D02*
D03*
X75000D02*
D03*
X60000D02*
D03*
X45000D02*
D03*
D22*
X478600Y478600D02*
D03*
Y453200D02*
D03*
Y427800D02*
D03*
Y402400D02*
D03*
Y377000D02*
D03*
Y351600D02*
D03*
Y326200D02*
D03*
Y300800D02*
D03*
Y275400D02*
D03*
Y250000D02*
D03*
Y224600D02*
D03*
Y199200D02*
D03*
Y173800D02*
D03*
Y148400D02*
D03*
Y123000D02*
D03*
Y97600D02*
D03*
Y72200D02*
D03*
Y46800D02*
D03*
Y21400D02*
D03*
X21400Y478600D02*
D03*
Y453200D02*
D03*
Y427800D02*
D03*
Y402400D02*
D03*
Y377000D02*
D03*
Y351600D02*
D03*
Y326200D02*
D03*
Y300800D02*
D03*
Y275400D02*
D03*
Y250000D02*
D03*
Y224600D02*
D03*
Y199200D02*
D03*
Y173800D02*
D03*
Y148400D02*
D03*
Y123000D02*
D03*
Y97600D02*
D03*
Y72200D02*
D03*
Y46800D02*
D03*
Y21400D02*
D03*
D23*
X332000Y454250D02*
D03*
Y439176D02*
D03*
Y424102D02*
D03*
Y378880D02*
D03*
Y393954D02*
D03*
Y409028D02*
D03*
Y318583D02*
D03*
Y303509D02*
D03*
Y288435D02*
D03*
Y333657D02*
D03*
Y348732D02*
D03*
Y363806D02*
D03*
Y273361D02*
D03*
Y258287D02*
D03*
Y243213D02*
D03*
Y197991D02*
D03*
Y213065D02*
D03*
Y228139D02*
D03*
Y182917D02*
D03*
Y167843D02*
D03*
Y152769D02*
D03*
Y107547D02*
D03*
Y122621D02*
D03*
Y137695D02*
D03*
Y92472D02*
D03*
Y77398D02*
D03*
Y62324D02*
D03*
Y47250D02*
D03*
X181750Y47250D02*
D03*
Y62324D02*
D03*
Y77398D02*
D03*
Y92472D02*
D03*
Y137694D02*
D03*
Y122620D02*
D03*
Y107546D02*
D03*
Y152768D02*
D03*
Y167843D02*
D03*
Y182917D02*
D03*
Y228139D02*
D03*
Y213065D02*
D03*
Y197991D02*
D03*
Y243213D02*
D03*
Y258287D02*
D03*
Y273361D02*
D03*
Y363805D02*
D03*
Y348731D02*
D03*
Y333657D02*
D03*
Y288435D02*
D03*
Y303509D02*
D03*
Y318583D02*
D03*
Y409027D02*
D03*
Y393953D02*
D03*
Y378879D02*
D03*
Y424101D02*
D03*
Y439176D02*
D03*
Y454250D02*
D03*
D24*
X381000Y245500D02*
D03*
Y235500D02*
D03*
Y225500D02*
D03*
Y215500D02*
D03*
Y205500D02*
D03*
Y195500D02*
D03*
Y185500D02*
D03*
Y175500D02*
D03*
Y165500D02*
D03*
Y155500D02*
D03*
Y145500D02*
D03*
Y135500D02*
D03*
Y125500D02*
D03*
Y115500D02*
D03*
Y105500D02*
D03*
Y95500D02*
D03*
Y75500D02*
D03*
Y85500D02*
D03*
D25*
X412250Y245501D02*
D03*
Y235501D02*
D03*
Y225501D02*
D03*
Y215501D02*
D03*
Y205501D02*
D03*
Y195501D02*
D03*
Y185501D02*
D03*
Y175501D02*
D03*
Y165501D02*
D03*
Y155501D02*
D03*
Y145501D02*
D03*
Y135501D02*
D03*
D03*
Y125501D02*
D03*
Y115501D02*
D03*
Y105501D02*
D03*
Y95501D02*
D03*
Y85501D02*
D03*
Y75501D02*
D03*
D26*
X417750Y252250D02*
D03*
Y277250D02*
D03*
Y267250D02*
D03*
Y272250D02*
D03*
Y257250D02*
D03*
Y262250D02*
D03*
Y302250D02*
D03*
Y292250D02*
D03*
Y297250D02*
D03*
Y282250D02*
D03*
Y287250D02*
D03*
Y327250D02*
D03*
Y317250D02*
D03*
Y322250D02*
D03*
Y307250D02*
D03*
Y312250D02*
D03*
Y352250D02*
D03*
Y342250D02*
D03*
Y347250D02*
D03*
Y332250D02*
D03*
Y337250D02*
D03*
Y377250D02*
D03*
Y367250D02*
D03*
Y372250D02*
D03*
Y357250D02*
D03*
Y362250D02*
D03*
Y387250D02*
D03*
Y382250D02*
D03*
Y397250D02*
D03*
Y392250D02*
D03*
Y407250D02*
D03*
Y402250D02*
D03*
Y412250D02*
D03*
Y417250D02*
D03*
Y422250D02*
D03*
Y427250D02*
D03*
D27*
X393250Y267250D02*
D03*
X375000D02*
D03*
Y257250D02*
D03*
X393250D02*
D03*
Y307250D02*
D03*
X375000D02*
D03*
Y297250D02*
D03*
X393250D02*
D03*
X375000Y287250D02*
D03*
X393250D02*
D03*
X375000Y277250D02*
D03*
X393250D02*
D03*
Y347250D02*
D03*
X375000D02*
D03*
Y337250D02*
D03*
X393250D02*
D03*
X375000Y327250D02*
D03*
X393250D02*
D03*
X375000Y317250D02*
D03*
X393250D02*
D03*
X393000Y387250D02*
D03*
X374750D02*
D03*
Y377250D02*
D03*
X393000D02*
D03*
X374750Y367250D02*
D03*
X393000D02*
D03*
X374750Y357250D02*
D03*
X393000D02*
D03*
Y397250D02*
D03*
X374750D02*
D03*
X393000Y407250D02*
D03*
X374750D02*
D03*
X393000Y417250D02*
D03*
X374750D02*
D03*
Y427250D02*
D03*
X393000D02*
D03*
M02*
